<svg width="48" height="32" viewBox="0 0 48 32" fill="none" xmlns="http://www.w3.org/2000/svg">
<rect x="0.5" y="0.5" width="47" height="31" rx="15.5" stroke="#626F82"/>
<path d="M24.0002 18.6663C24.7074 18.6663 25.3857 18.3854 25.8858 17.8853C26.3859 17.3852 26.6668 16.7069 26.6668 15.9997C26.6668 15.2924 26.3859 14.6142 25.8858 14.1141C25.3857 13.614 24.7074 13.333 24.0002 13.333C23.2929 13.333 22.6146 13.614 22.1145 14.1141C21.6144 14.6142 21.3335 15.2924 21.3335 15.9997C21.3335 16.7069 21.6144 17.3852 22.1145 17.8853C22.6146 18.3854 23.2929 18.6663 24.0002 18.6663Z" stroke="#010101" stroke-width="1.28" stroke-linecap="round" stroke-linejoin="round"/>
<path d="M18 18.6667V13.3333C18 12.4493 18.3512 11.6014 18.9763 10.9763C19.6014 10.3512 20.4493 10 21.3333 10H26.6667C27.5507 10 28.3986 10.3512 29.0237 10.9763C29.6488 11.6014 30 12.4493 30 13.3333V18.6667C30 19.5507 29.6488 20.3986 29.0237 21.0237C28.3986 21.6488 27.5507 22 26.6667 22H21.3333C20.4493 22 19.6014 21.6488 18.9763 21.0237C18.3512 20.3986 18 19.5507 18 18.6667Z" stroke="#010101" stroke-width="1.28"/>
<path d="M27.6667 12.3403L27.6738 12.3325" stroke="#010101" stroke-width="1.28" stroke-linecap="round" stroke-linejoin="round"/>
</svg>
