<svg width="48" height="32" viewBox="0 0 48 32" fill="none" xmlns="http://www.w3.org/2000/svg">
<rect x="0.5" y="0.5" width="47" height="31" rx="15.5" stroke="#626F82"/>
<path d="M20.1703 10.5186C20.1703 11.3568 19.5592 12.0365 18.5554 12.0365C17.6104 12.035 17 11.3568 17 10.5186C17 9.67969 17.63 9 18.596 9C19.5606 9 20.15 9.65898 20.1703 10.5186ZM17.0791 22.9986V13.2338H20.0716V23L17.0791 22.9986ZM21.8622 16.3488C21.8622 15.1308 21.8237 14.1127 21.7838 13.2331H24.3829L24.5215 14.5917H24.581C24.9744 13.9527 25.939 13.0139 27.5546 13.0139C29.523 13.0139 31 14.3525 31 17.2277V22.9993H28.0075V17.5875C28.0075 16.3288 27.5735 15.4706 26.4906 15.4706C25.6646 15.4706 25.1725 16.0489 24.9548 16.6086C24.8757 16.8086 24.8568 17.087 24.8568 17.3669V22.9979H21.8636V16.3473L21.8622 16.3488Z" fill="#010101"/>
</svg>
