<svg width="24" height="24" viewBox="0 0 24 24" fill="none" xmlns="http://www.w3.org/2000/svg">
<path d="M9 19C9 19.7956 9.31607 20.5587 9.87868 21.1213C10.4413 21.6839 11.2044 22 12 22H14.5C15.2223 22 15.9375 21.8577 16.6048 21.5813C17.272 21.3049 17.8784 20.8998 18.3891 20.3891C18.8998 19.8784 19.3049 19.272 19.5813 18.6048C19.8577 17.9375 20 17.2223 20 16.5V15.5M12 5H12.046C12.8295 5.00027 13.5809 5.31171 14.1349 5.86585C14.6888 6.41999 15 7.17146 15 7.955V12C15 13.5913 14.3679 15.1174 13.2426 16.2426C12.1174 17.3679 10.5913 18 9 18C7.4087 18 5.88258 17.3679 4.75736 16.2426C3.63214 15.1174 3 13.5913 3 12V7.955C3 7.17129 3.31133 6.41967 3.8655 5.8655C4.41967 5.31133 5.17129 5 5.955 5H6.5M11 7V3M7 7V3" stroke="#0C2141" stroke-width="2" stroke-linecap="round"/>
<path d="M20 15C21.1046 15 22 14.1046 22 13C22 11.8954 21.1046 11 20 11C18.8954 11 18 11.8954 18 13C18 14.1046 18.8954 15 20 15Z" stroke="#0C2141" stroke-width="2" stroke-linecap="round"/>
</svg>
