<svg width="24" height="25" viewBox="0 0 24 25" fill="none" xmlns="http://www.w3.org/2000/svg">
<path d="M10 18.5V15.5C10 14.9696 10.2107 14.4609 10.5858 14.0858C10.9609 13.7107 11.4696 13.5 12 13.5C12.5304 13.5 13.0391 13.7107 13.4142 14.0858C13.7893 14.4609 14 14.9696 14 15.5V18.5M2 8.50001L11.732 3.63401C11.8152 3.59246 11.907 3.57083 12 3.57083C12.093 3.57083 12.1848 3.59246 12.268 3.63401L22 8.50001" stroke="white" stroke-width="2" stroke-linecap="round" stroke-linejoin="round"/>
<path d="M20 11.5V19.5C20 20.0304 19.7893 20.5391 19.4142 20.9142C19.0391 21.2893 18.5304 21.5 18 21.5H6C5.46957 21.5 4.96086 21.2893 4.58579 20.9142C4.21071 20.5391 4 20.0304 4 19.5V11.5" stroke="white" stroke-width="2" stroke-linecap="round" stroke-linejoin="round"/>
</svg>
