<svg width="620" height="240" viewBox="0 0 620 240" fill="none" xmlns="http://www.w3.org/2000/svg">
<path d="M5.19304 129.309C4.53017 128.098 3.01094 127.653 1.79976 128.316C0.588578 128.979 0.144086 130.498 0.80696 131.709L3 130.509L5.19304 129.309ZM15.2699 152.928L13.0768 154.128L13.7882 155.428H15.2699V152.928ZM69.608 152.928L71.5279 151.327L70.7783 150.428H69.608V152.928ZM94.1477 182.353L92.2278 183.954L95.9043 188.363L96.6278 182.668L94.1477 182.353ZM116.935 3L119.419 2.72085C119.278 1.46298 118.219 0.50923 116.953 0.500066C115.687 0.490901 114.614 1.42922 114.455 2.68491L116.935 3ZM143.227 237L140.743 237.279C140.881 238.506 141.893 239.448 143.126 239.498C144.359 239.548 145.444 238.691 145.681 237.48L143.227 237ZM160.756 147.323V144.823H158.697L158.302 146.844L160.756 147.323ZM225.611 147.323V149.823H226.693L227.434 149.034L225.611 147.323ZM325.523 147.323L323.061 147.756L323.424 149.823H325.523V147.323ZM620 149.823C621.381 149.823 622.5 148.704 622.5 147.323C622.5 145.943 621.381 144.823 620 144.823V147.323V149.823ZM3 130.509L0.80696 131.709L13.0768 154.128L15.2699 152.928L17.4629 151.728L5.19304 129.309L3 130.509ZM15.2699 152.928V155.428H69.608V152.928V150.428H15.2699V152.928ZM69.608 152.928L67.688 154.529L92.2278 183.954L94.1477 182.353L96.0677 180.752L71.5279 151.327L69.608 152.928ZM94.1477 182.353L96.6278 182.668L119.415 3.31509L116.935 3L114.455 2.68491L91.6677 182.038L94.1477 182.353ZM116.935 3L114.45 3.27915L140.743 237.279L143.227 237L145.712 236.721L119.419 2.72085L116.935 3ZM143.227 237L145.681 237.48L163.209 147.803L160.756 147.323L158.302 146.844L140.774 236.52L143.227 237ZM160.756 147.323V149.823H225.611V147.323V144.823H160.756V147.323ZM225.611 147.323L227.434 149.034C241.377 134.172 262.797 116.674 281.987 111.629C291.488 109.13 300.095 109.766 307.052 114.87C314.08 120.025 319.958 130.123 323.061 147.756L325.523 147.323L327.985 146.89C324.777 128.653 318.517 117.079 310.01 110.838C301.432 104.545 291.109 104.06 280.715 106.793C260.115 112.21 237.89 130.582 223.788 145.613L225.611 147.323ZM325.523 147.323V149.823C325.651 149.823 325.78 149.823 325.907 149.823C326.035 149.823 326.162 149.823 326.288 149.823C326.414 149.823 326.54 149.823 326.666 149.823C326.791 149.823 326.915 149.823 327.04 149.823C327.164 149.823 327.287 149.823 327.41 149.823C327.533 149.823 327.656 149.823 327.777 149.823C327.899 149.823 328.021 149.823 328.141 149.823C328.262 149.823 328.382 149.823 328.502 149.823C328.621 149.823 328.741 149.823 328.859 149.823C328.978 149.823 329.096 149.823 329.213 149.823C329.33 149.823 329.447 149.823 329.564 149.823C329.68 149.823 329.796 149.823 329.911 149.823C330.026 149.823 330.141 149.823 330.255 149.823C330.37 149.823 330.483 149.823 330.596 149.823C330.71 149.823 330.822 149.823 330.934 149.823C331.046 149.823 331.158 149.823 331.269 149.823C331.38 149.823 331.491 149.823 331.601 149.823C331.711 149.823 331.82 149.823 331.929 149.823C332.038 149.823 332.147 149.823 332.255 149.823C332.363 149.823 332.47 149.823 332.577 149.823C332.684 149.823 332.79 149.823 332.896 149.823C333.002 149.823 333.108 149.823 333.213 149.823C333.318 149.823 333.422 149.823 333.526 149.823C333.63 149.823 333.734 149.823 333.837 149.823C333.94 149.823 334.042 149.823 334.144 149.823C334.247 149.823 334.348 149.823 334.449 149.823C334.55 149.823 334.651 149.823 334.751 149.823C334.851 149.823 334.951 149.823 335.05 149.823C335.149 149.823 335.248 149.823 335.346 149.823C335.445 149.823 335.542 149.823 335.64 149.823C335.737 149.823 335.834 149.823 335.93 149.823C336.027 149.823 336.123 149.823 336.218 149.823C336.314 149.823 336.409 149.823 336.503 149.823C336.598 149.823 336.692 149.823 336.786 149.823C336.88 149.823 336.973 149.823 337.066 149.823C337.159 149.823 337.251 149.823 337.343 149.823C337.435 149.823 337.526 149.823 337.618 149.823C337.709 149.823 337.799 149.823 337.89 149.823C337.98 149.823 338.07 149.823 338.159 149.823C338.248 149.823 338.337 149.823 338.426 149.823C338.514 149.823 338.603 149.823 338.69 149.823C338.778 149.823 338.865 149.823 338.952 149.823C339.039 149.823 339.125 149.823 339.211 149.823C339.298 149.823 339.383 149.823 339.468 149.823C339.554 149.823 339.639 149.823 339.723 149.823C339.807 149.823 339.892 149.823 339.975 149.823C340.059 149.823 340.142 149.823 340.225 149.823C340.308 149.823 340.39 149.823 340.472 149.823C340.555 149.823 340.636 149.823 340.718 149.823C340.799 149.823 340.88 149.823 340.96 149.823C341.041 149.823 341.121 149.823 341.201 149.823C341.281 149.823 341.36 149.823 341.439 149.823C341.518 149.823 341.597 149.823 341.675 149.823C341.754 149.823 341.832 149.823 341.909 149.823C341.987 149.823 342.064 149.823 342.141 149.823C342.218 149.823 342.295 149.823 342.371 149.823C342.447 149.823 342.523 149.823 342.598 149.823C342.674 149.823 342.749 149.823 342.824 149.823C342.898 149.823 342.973 149.823 343.047 149.823C343.121 149.823 343.195 149.823 343.268 149.823C343.342 149.823 343.415 149.823 343.488 149.823C343.56 149.823 343.633 149.823 343.705 149.823C343.777 149.823 343.849 149.823 343.92 149.823C343.992 149.823 344.063 149.823 344.134 149.823C344.204 149.823 344.275 149.823 344.345 149.823C344.415 149.823 344.485 149.823 344.555 149.823C344.624 149.823 344.693 149.823 344.762 149.823C344.831 149.823 344.9 149.823 344.968 149.823C345.037 149.823 345.105 149.823 345.172 149.823C345.24 149.823 345.307 149.823 345.375 149.823C345.442 149.823 345.508 149.823 345.575 149.823C345.642 149.823 345.708 149.823 345.774 149.823C345.84 149.823 345.905 149.823 345.971 149.823C346.036 149.823 346.101 149.823 346.166 149.823C346.231 149.823 346.295 149.823 346.36 149.823C346.424 149.823 346.488 149.823 346.552 149.823C346.615 149.823 346.679 149.823 346.742 149.823C346.805 149.823 346.868 149.823 346.931 149.823C346.994 149.823 347.056 149.823 347.118 149.823C347.18 149.823 347.242 149.823 347.304 149.823C347.365 149.823 347.427 149.823 347.488 149.823C347.549 149.823 347.61 149.823 347.671 149.823C347.731 149.823 347.792 149.823 347.852 149.823C347.912 149.823 347.972 149.823 348.032 149.823C348.091 149.823 348.151 149.823 348.21 149.823C348.269 149.823 348.328 149.823 348.387 149.823C348.446 149.823 348.504 149.823 348.562 149.823C348.621 149.823 348.679 149.823 348.737 149.823C348.795 149.823 348.852 149.823 348.91 149.823C348.967 149.823 349.024 149.823 349.081 149.823C349.138 149.823 349.195 149.823 349.252 149.823C349.308 149.823 349.364 149.823 349.421 149.823C349.477 149.823 349.533 149.823 349.588 149.823C349.644 149.823 349.7 149.823 349.755 149.823C349.811 149.823 349.866 149.823 349.921 149.823C349.976 149.823 350.03 149.823 350.085 149.823C350.14 149.823 350.194 149.823 350.248 149.823C350.302 149.823 350.357 149.823 350.41 149.823C350.464 149.823 350.518 149.823 350.571 149.823C350.625 149.823 350.678 149.823 350.731 149.823C350.785 149.823 350.838 149.823 350.89 149.823C350.943 149.823 350.996 149.823 351.048 149.823C351.101 149.823 351.153 149.823 351.206 149.823C351.258 149.823 351.31 149.823 351.362 149.823C351.413 149.823 351.465 149.823 351.517 149.823C351.568 149.823 351.62 149.823 351.671 149.823C351.722 149.823 351.773 149.823 351.824 149.823C351.875 149.823 351.926 149.823 351.977 149.823C352.028 149.823 352.078 149.823 352.129 149.823C352.179 149.823 352.229 149.823 352.28 149.823C352.33 149.823 352.38 149.823 352.43 149.823C352.48 149.823 352.529 149.823 352.579 149.823C352.629 149.823 352.678 149.823 352.728 149.823C352.777 149.823 352.827 149.823 352.876 149.823C352.925 149.823 352.974 149.823 353.023 149.823C353.072 149.823 353.121 149.823 353.17 149.823C353.219 149.823 353.267 149.823 353.316 149.823C353.364 149.823 353.413 149.823 353.461 149.823C353.51 149.823 353.558 149.823 353.606 149.823C353.654 149.823 353.702 149.823 353.75 149.823C353.798 149.823 353.846 149.823 353.894 149.823C353.942 149.823 353.99 149.823 354.038 149.823C354.085 149.823 354.133 149.823 354.18 149.823C354.228 149.823 354.275 149.823 354.323 149.823C354.37 149.823 354.417 149.823 354.465 149.823C354.512 149.823 354.559 149.823 354.606 149.823C354.653 149.823 354.7 149.823 354.747 149.823C354.794 149.823 354.841 149.823 354.888 149.823C354.935 149.823 354.982 149.823 355.029 149.823C355.076 149.823 355.122 149.823 355.169 149.823C355.216 149.823 355.262 149.823 355.309 149.823C355.356 149.823 355.402 149.823 355.449 149.823C355.495 149.823 355.542 149.823 355.588 149.823C355.635 149.823 355.681 149.823 355.727 149.823C355.774 149.823 355.82 149.823 355.866 149.823C355.913 149.823 355.959 149.823 356.005 149.823C356.052 149.823 356.098 149.823 356.144 149.823C356.19 149.823 356.237 149.823 356.283 149.823C356.329 149.823 356.375 149.823 356.421 149.823C356.468 149.823 356.514 149.823 356.56 149.823C356.606 149.823 356.652 149.823 356.699 149.823C356.745 149.823 356.791 149.823 356.837 149.823C356.883 149.823 356.93 149.823 356.976 149.823C357.022 149.823 357.068 149.823 357.114 149.823C357.161 149.823 357.207 149.823 357.253 149.823C357.299 149.823 357.346 149.823 357.392 149.823C357.438 149.823 357.484 149.823 357.531 149.823C357.577 149.823 357.624 149.823 357.67 149.823C357.716 149.823 357.763 149.823 357.809 149.823C357.856 149.823 357.902 149.823 357.949 149.823C357.995 149.823 358.042 149.823 358.088 149.823C358.135 149.823 358.182 149.823 358.228 149.823C358.275 149.823 358.322 149.823 358.368 149.823C358.415 149.823 358.462 149.823 358.509 149.823C358.556 149.823 358.603 149.823 358.65 149.823C358.697 149.823 358.744 149.823 358.791 149.823C358.838 149.823 358.885 149.823 358.932 149.823C358.98 149.823 359.027 149.823 359.074 149.823C359.122 149.823 359.169 149.823 359.217 149.823C359.264 149.823 359.312 149.823 359.359 149.823C359.407 149.823 359.455 149.823 359.503 149.823C359.551 149.823 359.599 149.823 359.647 149.823C359.695 149.823 359.743 149.823 359.791 149.823C359.839 149.823 359.887 149.823 359.936 149.823C359.984 149.823 360.033 149.823 360.081 149.823C360.13 149.823 360.178 149.823 360.227 149.823C360.276 149.823 360.325 149.823 360.374 149.823C360.423 149.823 360.472 149.823 360.521 149.823C360.57 149.823 360.62 149.823 360.669 149.823C360.718 149.823 360.768 149.823 360.818 149.823C360.867 149.823 360.917 149.823 360.967 149.823C361.017 149.823 361.067 149.823 361.117 149.823C361.167 149.823 361.218 149.823 361.268 149.823C361.318 149.823 361.369 149.823 361.42 149.823C361.47 149.823 361.521 149.823 361.572 149.823C361.623 149.823 361.674 149.823 361.726 149.823C361.777 149.823 361.828 149.823 361.88 149.823C361.931 149.823 361.983 149.823 362.035 149.823C362.087 149.823 362.139 149.823 362.191 149.823C362.243 149.823 362.295 149.823 362.348 149.823C362.4 149.823 362.453 149.823 362.506 149.823C362.559 149.823 362.612 149.823 362.665 149.823C362.718 149.823 362.771 149.823 362.825 149.823C362.878 149.823 362.932 149.823 362.986 149.823C363.04 149.823 363.094 149.823 363.148 149.823C363.202 149.823 363.257 149.823 363.311 149.823C363.366 149.823 363.42 149.823 363.475 149.823C363.53 149.823 363.586 149.823 363.641 149.823C363.696 149.823 363.752 149.823 363.807 149.823C363.863 149.823 363.919 149.823 363.975 149.823C364.031 149.823 364.088 149.823 364.144 149.823C364.201 149.823 364.258 149.823 364.315 149.823C364.372 149.823 364.429 149.823 364.486 149.823C364.544 149.823 364.601 149.823 364.659 149.823C364.717 149.823 364.775 149.823 364.833 149.823C364.891 149.823 364.95 149.823 365.009 149.823C365.067 149.823 365.126 149.823 365.186 149.823C365.245 149.823 365.304 149.823 365.364 149.823C365.423 149.823 365.483 149.823 365.543 149.823C365.604 149.823 365.664 149.823 365.725 149.823C365.785 149.823 365.846 149.823 365.907 149.823C365.968 149.823 366.03 149.823 366.091 149.823C366.153 149.823 366.215 149.823 366.277 149.823C366.339 149.823 366.401 149.823 366.464 149.823C366.527 149.823 366.59 149.823 366.653 149.823C366.716 149.823 366.779 149.823 366.843 149.823C366.907 149.823 366.971 149.823 367.035 149.823C367.099 149.823 367.164 149.823 367.229 149.823C367.293 149.823 367.358 149.823 367.424 149.823C367.489 149.823 367.555 149.823 367.621 149.823C367.687 149.823 367.753 149.823 367.819 149.823C367.886 149.823 367.953 149.823 368.02 149.823C368.087 149.823 368.154 149.823 368.222 149.823C368.29 149.823 368.358 149.823 368.426 149.823C368.494 149.823 368.563 149.823 368.632 149.823C368.701 149.823 368.77 149.823 368.839 149.823C368.909 149.823 368.979 149.823 369.049 149.823C369.119 149.823 369.189 149.823 369.26 149.823C369.331 149.823 369.402 149.823 369.474 149.823C369.545 149.823 369.617 149.823 369.689 149.823C369.761 149.823 369.833 149.823 369.906 149.823C369.979 149.823 370.052 149.823 370.125 149.823C370.199 149.823 370.272 149.823 370.346 149.823C370.42 149.823 370.495 149.823 370.57 149.823C370.644 149.823 370.719 149.823 370.795 149.823C370.87 149.823 370.946 149.823 371.022 149.823C371.099 149.823 371.175 149.823 371.252 149.823C371.329 149.823 371.406 149.823 371.484 149.823C371.561 149.823 371.639 149.823 371.717 149.823C371.796 149.823 371.874 149.823 371.953 149.823C372.032 149.823 372.112 149.823 372.192 149.823C372.271 149.823 372.352 149.823 372.432 149.823C372.513 149.823 372.594 149.823 372.675 149.823C372.756 149.823 372.838 149.823 372.92 149.823C373.002 149.823 373.084 149.823 373.167 149.823C373.25 149.823 373.333 149.823 373.417 149.823C373.501 149.823 373.585 149.823 373.669 149.823C373.753 149.823 373.838 149.823 373.923 149.823C374.009 149.823 374.094 149.823 374.18 149.823C374.266 149.823 374.353 149.823 374.44 149.823C374.526 149.823 374.614 149.823 374.701 149.823C374.789 149.823 374.877 149.823 374.966 149.823C375.054 149.823 375.143 149.823 375.232 149.823C375.322 149.823 375.411 149.823 375.502 149.823C375.592 149.823 375.683 149.823 375.774 149.823C375.865 149.823 375.956 149.823 376.048 149.823C376.14 149.823 376.232 149.823 376.325 149.823C376.418 149.823 376.511 149.823 376.605 149.823C376.699 149.823 376.793 149.823 376.887 149.823C376.982 149.823 377.077 149.823 377.172 149.823C377.268 149.823 377.364 149.823 377.46 149.823C377.556 149.823 377.653 149.823 377.751 149.823C377.848 149.823 377.946 149.823 378.044 149.823C378.142 149.823 378.241 149.823 378.34 149.823C378.439 149.823 378.539 149.823 378.639 149.823C378.739 149.823 378.84 149.823 378.941 149.823C379.042 149.823 379.143 149.823 379.245 149.823C379.347 149.823 379.45 149.823 379.553 149.823C379.656 149.823 379.759 149.823 379.863 149.823C379.967 149.823 380.071 149.823 380.176 149.823C380.281 149.823 380.387 149.823 380.493 149.823C380.599 149.823 380.705 149.823 380.812 149.823C380.919 149.823 381.026 149.823 381.134 149.823C381.242 149.823 381.351 149.823 381.46 149.823C381.568 149.823 381.678 149.823 381.788 149.823C381.898 149.823 382.008 149.823 382.119 149.823C382.23 149.823 382.342 149.823 382.454 149.823C382.566 149.823 382.679 149.823 382.792 149.823C382.905 149.823 383.018 149.823 383.133 149.823C383.247 149.823 383.361 149.823 383.477 149.823C383.592 149.823 383.708 149.823 383.824 149.823C383.94 149.823 384.057 149.823 384.174 149.823C384.292 149.823 384.41 149.823 384.528 149.823C384.647 149.823 384.766 149.823 384.885 149.823C385.005 149.823 385.125 149.823 385.246 149.823C385.366 149.823 385.488 149.823 385.609 149.823C385.731 149.823 385.854 149.823 385.977 149.823C386.099 149.823 386.223 149.823 386.347 149.823C386.471 149.823 386.596 149.823 386.721 149.823C386.846 149.823 386.972 149.823 387.098 149.823C387.225 149.823 387.351 149.823 387.479 149.823C387.606 149.823 387.735 149.823 387.863 149.823C387.992 149.823 388.121 149.823 388.251 149.823C388.381 149.823 388.511 149.823 388.642 149.823C388.773 149.823 388.905 149.823 389.037 149.823C389.169 149.823 389.302 149.823 389.436 149.823C389.569 149.823 389.703 149.823 389.838 149.823C389.972 149.823 390.108 149.823 390.243 149.823C390.379 149.823 390.516 149.823 390.653 149.823C390.79 149.823 390.927 149.823 391.066 149.823C391.204 149.823 391.343 149.823 391.483 149.823C391.622 149.823 391.762 149.823 391.903 149.823C392.044 149.823 392.185 149.823 392.327 149.823C392.469 149.823 392.612 149.823 392.755 149.823C392.899 149.823 393.043 149.823 393.187 149.823C393.332 149.823 393.477 149.823 393.623 149.823C393.769 149.823 393.915 149.823 394.062 149.823C394.21 149.823 394.357 149.823 394.506 149.823C394.654 149.823 394.803 149.823 394.953 149.823C395.103 149.823 395.253 149.823 395.404 149.823C395.555 149.823 395.707 149.823 395.86 149.823C396.012 149.823 396.165 149.823 396.319 149.823C396.473 149.823 396.627 149.823 396.782 149.823C396.937 149.823 397.093 149.823 397.249 149.823C397.406 149.823 397.563 149.823 397.721 149.823C397.878 149.823 398.037 149.823 398.196 149.823C398.355 149.823 398.515 149.823 398.675 149.823C398.836 149.823 398.997 149.823 399.159 149.823C399.321 149.823 399.484 149.823 399.647 149.823C399.81 149.823 399.974 149.823 400.139 149.823C400.304 149.823 400.469 149.823 400.635 149.823C400.801 149.823 400.968 149.823 401.135 149.823C401.303 149.823 401.471 149.823 401.64 149.823C401.809 149.823 401.979 149.823 402.149 149.823C402.319 149.823 402.491 149.823 402.662 149.823C402.834 149.823 403.007 149.823 403.18 149.823C403.353 149.823 403.527 149.823 403.702 149.823C403.877 149.823 404.052 149.823 404.228 149.823C404.404 149.823 404.581 149.823 404.759 149.823C404.937 149.823 405.115 149.823 405.294 149.823C405.473 149.823 405.653 149.823 405.834 149.823C406.014 149.823 406.196 149.823 406.378 149.823C406.56 149.823 406.743 149.823 406.926 149.823C407.11 149.823 407.294 149.823 407.48 149.823C407.665 149.823 407.851 149.823 408.037 149.823C408.224 149.823 408.411 149.823 408.6 149.823C408.788 149.823 408.977 149.823 409.167 149.823C409.356 149.823 409.547 149.823 409.738 149.823C409.929 149.823 410.121 149.823 410.314 149.823C410.507 149.823 410.701 149.823 410.895 149.823C411.089 149.823 411.285 149.823 411.481 149.823C411.677 149.823 411.873 149.823 412.071 149.823C412.268 149.823 412.467 149.823 412.666 149.823C412.865 149.823 413.065 149.823 413.266 149.823C413.467 149.823 413.668 149.823 413.87 149.823C414.073 149.823 414.276 149.823 414.48 149.823C414.684 149.823 414.889 149.823 415.094 149.823C415.3 149.823 415.506 149.823 415.713 149.823C415.921 149.823 416.129 149.823 416.338 149.823C416.546 149.823 416.756 149.823 416.967 149.823C417.177 149.823 417.388 149.823 417.601 149.823C417.813 149.823 418.026 149.823 418.24 149.823C418.453 149.823 418.668 149.823 418.884 149.823C419.099 149.823 419.315 149.823 419.533 149.823C419.75 149.823 419.968 149.823 420.187 149.823C420.406 149.823 420.625 149.823 420.846 149.823C421.066 149.823 421.288 149.823 421.51 149.823C421.732 149.823 421.955 149.823 422.179 149.823C422.403 149.823 422.628 149.823 422.854 149.823C423.08 149.823 423.306 149.823 423.534 149.823C423.761 149.823 423.989 149.823 424.219 149.823C424.448 149.823 424.678 149.823 424.909 149.823C425.14 149.823 425.371 149.823 425.604 149.823C425.837 149.823 426.07 149.823 426.305 149.823C426.539 149.823 426.775 149.823 427.011 149.823C427.247 149.823 427.484 149.823 427.722 149.823C427.96 149.823 428.199 149.823 428.439 149.823C428.679 149.823 428.919 149.823 429.161 149.823C429.402 149.823 429.645 149.823 429.888 149.823C430.132 149.823 430.376 149.823 430.621 149.823C430.866 149.823 431.112 149.823 431.359 149.823C431.606 149.823 431.854 149.823 432.103 149.823C432.352 149.823 432.602 149.823 432.853 149.823C433.103 149.823 433.355 149.823 433.607 149.823C433.86 149.823 434.113 149.823 434.368 149.823C434.622 149.823 434.877 149.823 435.134 149.823C435.39 149.823 435.647 149.823 435.905 149.823C436.163 149.823 436.422 149.823 436.682 149.823C436.942 149.823 437.203 149.823 437.465 149.823C437.727 149.823 437.99 149.823 438.254 149.823C438.518 149.823 438.782 149.823 439.048 149.823C439.314 149.823 439.58 149.823 439.848 149.823C440.116 149.823 440.384 149.823 440.654 149.823C440.923 149.823 441.194 149.823 441.465 149.823C441.737 149.823 442.009 149.823 442.283 149.823C442.556 149.823 442.83 149.823 443.106 149.823C443.381 149.823 443.657 149.823 443.935 149.823C444.212 149.823 444.49 149.823 444.769 149.823C445.049 149.823 445.329 149.823 445.61 149.823C445.891 149.823 446.174 149.823 446.457 149.823C446.74 149.823 447.024 149.823 447.309 149.823C447.595 149.823 447.881 149.823 448.168 149.823C448.455 149.823 448.743 149.823 449.033 149.823C449.322 149.823 449.612 149.823 449.903 149.823C450.194 149.823 450.487 149.823 450.78 149.823C451.073 149.823 451.367 149.823 451.663 149.823C451.958 149.823 452.254 149.823 452.551 149.823C452.849 149.823 453.147 149.823 453.446 149.823C453.746 149.823 454.046 149.823 454.348 149.823C454.649 149.823 454.951 149.823 455.255 149.823C455.558 149.823 455.863 149.823 456.168 149.823C456.474 149.823 456.78 149.823 457.088 149.823C457.396 149.823 457.704 149.823 458.014 149.823C458.324 149.823 458.634 149.823 458.946 149.823C459.258 149.823 459.571 149.823 459.885 149.823C460.199 149.823 460.514 149.823 460.83 149.823C461.146 149.823 461.463 149.823 461.781 149.823C462.099 149.823 462.418 149.823 462.739 149.823C463.059 149.823 463.38 149.823 463.703 149.823C464.025 149.823 464.348 149.823 464.673 149.823C464.997 149.823 465.323 149.823 465.65 149.823C465.977 149.823 466.304 149.823 466.633 149.823C466.962 149.823 467.292 149.823 467.623 149.823C467.954 149.823 468.286 149.823 468.619 149.823C468.953 149.823 469.287 149.823 469.622 149.823C469.958 149.823 470.294 149.823 470.632 149.823C470.969 149.823 471.308 149.823 471.648 149.823C471.988 149.823 472.329 149.823 472.671 149.823C473.013 149.823 473.356 149.823 473.7 149.823C474.044 149.823 474.389 149.823 474.736 149.823C475.082 149.823 475.43 149.823 475.779 149.823C476.127 149.823 476.477 149.823 476.828 149.823C477.179 149.823 477.531 149.823 477.884 149.823C478.237 149.823 478.592 149.823 478.947 149.823C479.303 149.823 479.659 149.823 480.017 149.823C480.375 149.823 480.734 149.823 481.094 149.823C481.454 149.823 481.815 149.823 482.177 149.823C482.539 149.823 482.903 149.823 483.267 149.823C483.632 149.823 483.998 149.823 484.365 149.823C484.731 149.823 485.099 149.823 485.469 149.823C485.838 149.823 486.208 149.823 486.58 149.823C486.951 149.823 487.324 149.823 487.698 149.823C488.072 149.823 488.447 149.823 488.823 149.823C489.199 149.823 489.576 149.823 489.955 149.823C490.333 149.823 490.713 149.823 491.094 149.823C491.475 149.823 491.857 149.823 492.24 149.823C492.623 149.823 493.008 149.823 493.394 149.823C493.779 149.823 494.166 149.823 494.554 149.823C494.942 149.823 495.331 149.823 495.721 149.823C496.112 149.823 496.503 149.823 496.896 149.823C497.289 149.823 497.683 149.823 498.078 149.823C498.473 149.823 498.87 149.823 499.267 149.823C499.665 149.823 500.064 149.823 500.464 149.823C500.864 149.823 501.265 149.823 501.667 149.823C502.07 149.823 502.473 149.823 502.878 149.823C503.283 149.823 503.689 149.823 504.096 149.823C504.504 149.823 504.912 149.823 505.322 149.823C505.732 149.823 506.143 149.823 506.555 149.823C506.967 149.823 507.381 149.823 507.796 149.823C508.21 149.823 508.626 149.823 509.043 149.823C509.46 149.823 509.879 149.823 510.299 149.823C510.718 149.823 511.139 149.823 511.561 149.823C511.983 149.823 512.407 149.823 512.831 149.823C513.256 149.823 513.682 149.823 514.109 149.823C514.536 149.823 514.965 149.823 515.395 149.823C515.824 149.823 516.255 149.823 516.687 149.823C517.12 149.823 517.553 149.823 517.988 149.823C518.423 149.823 518.859 149.823 519.296 149.823C519.733 149.823 520.172 149.823 520.612 149.823C521.051 149.823 521.493 149.823 521.935 149.823C522.377 149.823 522.821 149.823 523.266 149.823C523.711 149.823 524.157 149.823 524.605 149.823C525.052 149.823 525.501 149.823 525.951 149.823C526.401 149.823 526.853 149.823 527.306 149.823C527.758 149.823 528.212 149.823 528.668 149.823C529.123 149.823 529.58 149.823 530.038 149.823C530.496 149.823 530.955 149.823 531.415 149.823C531.876 149.823 532.338 149.823 532.801 149.823C533.264 149.823 533.729 149.823 534.195 149.823C534.66 149.823 535.128 149.823 535.596 149.823C536.064 149.823 536.534 149.823 537.005 149.823C537.477 149.823 537.949 149.823 538.423 149.823C538.897 149.823 539.372 149.823 539.848 149.823C540.325 149.823 540.802 149.823 541.281 149.823C541.761 149.823 542.241 149.823 542.723 149.823C543.205 149.823 543.688 149.823 544.172 149.823C544.657 149.823 545.143 149.823 545.63 149.823C546.117 149.823 546.606 149.823 547.096 149.823C547.586 149.823 548.077 149.823 548.569 149.823C549.062 149.823 549.556 149.823 550.051 149.823C550.547 149.823 551.043 149.823 551.542 149.823C552.04 149.823 552.539 149.823 553.04 149.823C553.541 149.823 554.043 149.823 554.547 149.823C555.05 149.823 555.555 149.823 556.062 149.823C556.568 149.823 557.076 149.823 557.585 149.823C558.094 149.823 558.604 149.823 559.116 149.823C559.628 149.823 560.141 149.823 560.656 149.823C561.171 149.823 561.687 149.823 562.204 149.823C562.722 149.823 563.241 149.823 563.761 149.823C564.281 149.823 564.803 149.823 565.326 149.823C565.849 149.823 566.374 149.823 566.899 149.823C567.425 149.823 567.953 149.823 568.481 149.823C569.01 149.823 569.54 149.823 570.072 149.823C570.603 149.823 571.136 149.823 571.671 149.823C572.205 149.823 572.741 149.823 573.278 149.823C573.816 149.823 574.354 149.823 574.894 149.823C575.434 149.823 575.976 149.823 576.519 149.823C577.062 149.823 577.606 149.823 578.152 149.823C578.698 149.823 579.245 149.823 579.794 149.823C580.343 149.823 580.893 149.823 581.445 149.823C581.996 149.823 582.549 149.823 583.104 149.823C583.659 149.823 584.215 149.823 584.772 149.823C585.329 149.823 585.888 149.823 586.449 149.823C587.009 149.823 587.571 149.823 588.134 149.823C588.697 149.823 589.262 149.823 589.828 149.823C590.395 149.823 590.962 149.823 591.531 149.823C592.101 149.823 592.671 149.823 593.243 149.823C593.816 149.823 594.389 149.823 594.964 149.823C595.539 149.823 596.116 149.823 596.694 149.823C597.272 149.823 597.851 149.823 598.432 149.823C599.013 149.823 599.596 149.823 600.18 149.823C600.764 149.823 601.35 149.823 601.937 149.823C602.523 149.823 603.112 149.823 603.702 149.823C604.292 149.823 604.883 149.823 605.477 149.823C606.07 149.823 606.664 149.823 607.26 149.823C607.856 149.823 608.454 149.823 609.053 149.823C609.652 149.823 610.252 149.823 610.854 149.823C611.456 149.823 612.06 149.823 612.665 149.823C613.27 149.823 613.877 149.823 614.485 149.823C615.093 149.823 615.703 149.823 616.314 149.823C616.925 149.823 617.538 149.823 618.152 149.823C618.767 149.823 619.383 149.823 620 149.823V147.323V144.823C619.383 144.823 618.767 144.823 618.152 144.823C617.538 144.823 616.925 144.823 616.314 144.823C615.703 144.823 615.093 144.823 614.485 144.823C613.877 144.823 613.27 144.823 612.665 144.823C612.06 144.823 611.456 144.823 610.854 144.823C610.252 144.823 609.652 144.823 609.053 144.823C608.454 144.823 607.856 144.823 607.26 144.823C606.664 144.823 606.07 144.823 605.477 144.823C604.883 144.823 604.292 144.823 603.702 144.823C603.112 144.823 602.523 144.823 601.937 144.823C601.35 144.823 600.764 144.823 600.18 144.823C599.596 144.823 599.013 144.823 598.432 144.823C597.851 144.823 597.272 144.823 596.694 144.823C596.116 144.823 595.539 144.823 594.964 144.823C594.389 144.823 593.816 144.823 593.243 144.823C592.671 144.823 592.101 144.823 591.531 144.823C590.962 144.823 590.395 144.823 589.828 144.823C589.262 144.823 588.697 144.823 588.134 144.823C587.571 144.823 587.009 144.823 586.449 144.823C585.888 144.823 585.329 144.823 584.772 144.823C584.215 144.823 583.659 144.823 583.104 144.823C582.549 144.823 581.996 144.823 581.445 144.823C580.893 144.823 580.343 144.823 579.794 144.823C579.245 144.823 578.698 144.823 578.152 144.823C577.606 144.823 577.062 144.823 576.519 144.823C575.976 144.823 575.434 144.823 574.894 144.823C574.354 144.823 573.816 144.823 573.278 144.823C572.741 144.823 572.205 144.823 571.671 144.823C571.136 144.823 570.603 144.823 570.072 144.823C569.54 144.823 569.01 144.823 568.481 144.823C567.953 144.823 567.425 144.823 566.899 144.823C566.374 144.823 565.849 144.823 565.326 144.823C564.803 144.823 564.281 144.823 563.761 144.823C563.241 144.823 562.722 144.823 562.204 144.823C561.687 144.823 561.171 144.823 560.656 144.823C560.141 144.823 559.628 144.823 559.116 144.823C558.604 144.823 558.094 144.823 557.585 144.823C557.076 144.823 556.568 144.823 556.062 144.823C555.555 144.823 555.05 144.823 554.547 144.823C554.043 144.823 553.541 144.823 553.04 144.823C552.539 144.823 552.04 144.823 551.542 144.823C551.043 144.823 550.547 144.823 550.051 144.823C549.556 144.823 549.062 144.823 548.569 144.823C548.077 144.823 547.586 144.823 547.096 144.823C546.606 144.823 546.117 144.823 545.63 144.823C545.143 144.823 544.657 144.823 544.172 144.823C543.688 144.823 543.205 144.823 542.723 144.823C542.241 144.823 541.761 144.823 541.281 144.823C540.802 144.823 540.325 144.823 539.848 144.823C539.372 144.823 538.897 144.823 538.423 144.823C537.949 144.823 537.477 144.823 537.005 144.823C536.534 144.823 536.064 144.823 535.596 144.823C535.128 144.823 534.66 144.823 534.195 144.823C533.729 144.823 533.264 144.823 532.801 144.823C532.338 144.823 531.876 144.823 531.415 144.823C530.955 144.823 530.496 144.823 530.038 144.823C529.58 144.823 529.123 144.823 528.668 144.823C528.212 144.823 527.758 144.823 527.306 144.823C526.853 144.823 526.401 144.823 525.951 144.823C525.501 144.823 525.052 144.823 524.605 144.823C524.157 144.823 523.711 144.823 523.266 144.823C522.821 144.823 522.377 144.823 521.935 144.823C521.493 144.823 521.051 144.823 520.612 144.823C520.172 144.823 519.733 144.823 519.296 144.823C518.859 144.823 518.423 144.823 517.988 144.823C517.553 144.823 517.12 144.823 516.687 144.823C516.255 144.823 515.824 144.823 515.395 144.823C514.965 144.823 514.536 144.823 514.109 144.823C513.682 144.823 513.256 144.823 512.831 144.823C512.407 144.823 511.983 144.823 511.561 144.823C511.139 144.823 510.718 144.823 510.299 144.823C509.879 144.823 509.46 144.823 509.043 144.823C508.626 144.823 508.21 144.823 507.796 144.823C507.381 144.823 506.967 144.823 506.555 144.823C506.143 144.823 505.732 144.823 505.322 144.823C504.912 144.823 504.504 144.823 504.096 144.823C503.689 144.823 503.283 144.823 502.878 144.823C502.473 144.823 502.07 144.823 501.667 144.823C501.265 144.823 500.864 144.823 500.464 144.823C500.064 144.823 499.665 144.823 499.267 144.823C498.87 144.823 498.473 144.823 498.078 144.823C497.683 144.823 497.289 144.823 496.896 144.823C496.503 144.823 496.112 144.823 495.721 144.823C495.331 144.823 494.942 144.823 494.554 144.823C494.166 144.823 493.779 144.823 493.394 144.823C493.008 144.823 492.623 144.823 492.24 144.823C491.857 144.823 491.475 144.823 491.094 144.823C490.713 144.823 490.333 144.823 489.955 144.823C489.576 144.823 489.199 144.823 488.823 144.823C488.447 144.823 488.072 144.823 487.698 144.823C487.324 144.823 486.951 144.823 486.58 144.823C486.208 144.823 485.838 144.823 485.469 144.823C485.099 144.823 484.731 144.823 484.365 144.823C483.998 144.823 483.632 144.823 483.267 144.823C482.903 144.823 482.539 144.823 482.177 144.823C481.815 144.823 481.454 144.823 481.094 144.823C480.734 144.823 480.375 144.823 480.017 144.823C479.659 144.823 479.303 144.823 478.947 144.823C478.592 144.823 478.237 144.823 477.884 144.823C477.531 144.823 477.179 144.823 476.828 144.823C476.477 144.823 476.127 144.823 475.779 144.823C475.43 144.823 475.082 144.823 474.736 144.823C474.389 144.823 474.044 144.823 473.7 144.823C473.356 144.823 473.013 144.823 472.671 144.823C472.329 144.823 471.988 144.823 471.648 144.823C471.308 144.823 470.969 144.823 470.632 144.823C470.294 144.823 469.958 144.823 469.622 144.823C469.287 144.823 468.953 144.823 468.619 144.823C468.286 144.823 467.954 144.823 467.623 144.823C467.292 144.823 466.962 144.823 466.633 144.823C466.304 144.823 465.977 144.823 465.65 144.823C465.323 144.823 464.997 144.823 464.673 144.823C464.348 144.823 464.025 144.823 463.703 144.823C463.38 144.823 463.059 144.823 462.739 144.823C462.418 144.823 462.099 144.823 461.781 144.823C461.463 144.823 461.146 144.823 460.83 144.823C460.514 144.823 460.199 144.823 459.885 144.823C459.571 144.823 459.258 144.823 458.946 144.823C458.634 144.823 458.324 144.823 458.014 144.823C457.704 144.823 457.396 144.823 457.088 144.823C456.78 144.823 456.474 144.823 456.168 144.823C455.863 144.823 455.558 144.823 455.255 144.823C454.951 144.823 454.649 144.823 454.348 144.823C454.046 144.823 453.746 144.823 453.446 144.823C453.147 144.823 452.849 144.823 452.551 144.823C452.254 144.823 451.958 144.823 451.663 144.823C451.367 144.823 451.073 144.823 450.78 144.823C450.487 144.823 450.194 144.823 449.903 144.823C449.612 144.823 449.322 144.823 449.033 144.823C448.743 144.823 448.455 144.823 448.168 144.823C447.881 144.823 447.595 144.823 447.309 144.823C447.024 144.823 446.74 144.823 446.457 144.823C446.174 144.823 445.891 144.823 445.61 144.823C445.329 144.823 445.049 144.823 444.769 144.823C444.49 144.823 444.212 144.823 443.935 144.823C443.657 144.823 443.381 144.823 443.106 144.823C442.83 144.823 442.556 144.823 442.283 144.823C442.009 144.823 441.737 144.823 441.465 144.823C441.194 144.823 440.923 144.823 440.654 144.823C440.384 144.823 440.116 144.823 439.848 144.823C439.58 144.823 439.314 144.823 439.048 144.823C438.782 144.823 438.518 144.823 438.254 144.823C437.99 144.823 437.727 144.823 437.465 144.823C437.203 144.823 436.942 144.823 436.682 144.823C436.422 144.823 436.163 144.823 435.905 144.823C435.647 144.823 435.39 144.823 435.134 144.823C434.877 144.823 434.622 144.823 434.368 144.823C434.113 144.823 433.86 144.823 433.607 144.823C433.355 144.823 433.103 144.823 432.853 144.823C432.602 144.823 432.352 144.823 432.103 144.823C431.854 144.823 431.606 144.823 431.359 144.823C431.112 144.823 430.866 144.823 430.621 144.823C430.376 144.823 430.132 144.823 429.888 144.823C429.645 144.823 429.402 144.823 429.161 144.823C428.919 144.823 428.679 144.823 428.439 144.823C428.199 144.823 427.96 144.823 427.722 144.823C427.484 144.823 427.247 144.823 427.011 144.823C426.775 144.823 426.539 144.823 426.305 144.823C426.07 144.823 425.837 144.823 425.604 144.823C425.371 144.823 425.14 144.823 424.909 144.823C424.678 144.823 424.448 144.823 424.219 144.823C423.989 144.823 423.761 144.823 423.534 144.823C423.306 144.823 423.08 144.823 422.854 144.823C422.628 144.823 422.403 144.823 422.179 144.823C421.955 144.823 421.732 144.823 421.51 144.823C421.288 144.823 421.066 144.823 420.846 144.823C420.625 144.823 420.406 144.823 420.187 144.823C419.968 144.823 419.75 144.823 419.533 144.823C419.315 144.823 419.099 144.823 418.884 144.823C418.668 144.823 418.453 144.823 418.24 144.823C418.026 144.823 417.813 144.823 417.601 144.823C417.388 144.823 417.177 144.823 416.967 144.823C416.756 144.823 416.546 144.823 416.338 144.823C416.129 144.823 415.921 144.823 415.713 144.823C415.506 144.823 415.3 144.823 415.094 144.823C414.889 144.823 414.684 144.823 414.48 144.823C414.276 144.823 414.073 144.823 413.87 144.823C413.668 144.823 413.467 144.823 413.266 144.823C413.065 144.823 412.865 144.823 412.666 144.823C412.467 144.823 412.268 144.823 412.071 144.823C411.873 144.823 411.677 144.823 411.481 144.823C411.285 144.823 411.089 144.823 410.895 144.823C410.701 144.823 410.507 144.823 410.314 144.823C410.121 144.823 409.929 144.823 409.738 144.823C409.547 144.823 409.356 144.823 409.167 144.823C408.977 144.823 408.788 144.823 408.6 144.823C408.411 144.823 408.224 144.823 408.037 144.823C407.851 144.823 407.665 144.823 407.48 144.823C407.294 144.823 407.11 144.823 406.926 144.823C406.743 144.823 406.56 144.823 406.378 144.823C406.196 144.823 406.014 144.823 405.834 144.823C405.653 144.823 405.473 144.823 405.294 144.823C405.115 144.823 404.937 144.823 404.759 144.823C404.581 144.823 404.404 144.823 404.228 144.823C404.052 144.823 403.877 144.823 403.702 144.823C403.527 144.823 403.353 144.823 403.18 144.823C403.007 144.823 402.834 144.823 402.662 144.823C402.491 144.823 402.319 144.823 402.149 144.823C401.979 144.823 401.809 144.823 401.64 144.823C401.471 144.823 401.303 144.823 401.135 144.823C400.968 144.823 400.801 144.823 400.635 144.823C400.469 144.823 400.304 144.823 400.139 144.823C399.974 144.823 399.81 144.823 399.647 144.823C399.484 144.823 399.321 144.823 399.159 144.823C398.997 144.823 398.836 144.823 398.675 144.823C398.515 144.823 398.355 144.823 398.196 144.823C398.037 144.823 397.878 144.823 397.721 144.823C397.563 144.823 397.406 144.823 397.249 144.823C397.093 144.823 396.937 144.823 396.782 144.823C396.627 144.823 396.473 144.823 396.319 144.823C396.165 144.823 396.012 144.823 395.86 144.823C395.707 144.823 395.555 144.823 395.404 144.823C395.253 144.823 395.103 144.823 394.953 144.823C394.803 144.823 394.654 144.823 394.506 144.823C394.357 144.823 394.21 144.823 394.062 144.823C393.915 144.823 393.769 144.823 393.623 144.823C393.477 144.823 393.332 144.823 393.187 144.823C393.043 144.823 392.899 144.823 392.755 144.823C392.612 144.823 392.469 144.823 392.327 144.823C392.185 144.823 392.044 144.823 391.903 144.823C391.762 144.823 391.622 144.823 391.483 144.823C391.343 144.823 391.204 144.823 391.066 144.823C390.927 144.823 390.79 144.823 390.653 144.823C390.516 144.823 390.379 144.823 390.243 144.823C390.108 144.823 389.972 144.823 389.838 144.823C389.703 144.823 389.569 144.823 389.436 144.823C389.302 144.823 389.169 144.823 389.037 144.823C388.905 144.823 388.773 144.823 388.642 144.823C388.511 144.823 388.381 144.823 388.251 144.823C388.121 144.823 387.992 144.823 387.863 144.823C387.735 144.823 387.606 144.823 387.479 144.823C387.351 144.823 387.225 144.823 387.098 144.823C386.972 144.823 386.846 144.823 386.721 144.823C386.596 144.823 386.471 144.823 386.347 144.823C386.223 144.823 386.099 144.823 385.977 144.823C385.854 144.823 385.731 144.823 385.609 144.823C385.488 144.823 385.366 144.823 385.246 144.823C385.125 144.823 385.005 144.823 384.885 144.823C384.766 144.823 384.647 144.823 384.528 144.823C384.41 144.823 384.292 144.823 384.174 144.823C384.057 144.823 383.94 144.823 383.824 144.823C383.708 144.823 383.592 144.823 383.477 144.823C383.361 144.823 383.247 144.823 383.133 144.823C383.018 144.823 382.905 144.823 382.792 144.823C382.679 144.823 382.566 144.823 382.454 144.823C382.342 144.823 382.23 144.823 382.119 144.823C382.008 144.823 381.898 144.823 381.788 144.823C381.678 144.823 381.568 144.823 381.46 144.823C381.351 144.823 381.242 144.823 381.134 144.823C381.026 144.823 380.919 144.823 380.812 144.823C380.705 144.823 380.599 144.823 380.493 144.823C380.387 144.823 380.281 144.823 380.176 144.823C380.071 144.823 379.967 144.823 379.863 144.823C379.759 144.823 379.656 144.823 379.553 144.823C379.45 144.823 379.347 144.823 379.245 144.823C379.143 144.823 379.042 144.823 378.941 144.823C378.84 144.823 378.739 144.823 378.639 144.823C378.539 144.823 378.439 144.823 378.34 144.823C378.241 144.823 378.142 144.823 378.044 144.823C377.946 144.823 377.848 144.823 377.751 144.823C377.653 144.823 377.556 144.823 377.46 144.823C377.364 144.823 377.268 144.823 377.172 144.823C377.077 144.823 376.982 144.823 376.887 144.823C376.793 144.823 376.699 144.823 376.605 144.823C376.511 144.823 376.418 144.823 376.325 144.823C376.232 144.823 376.14 144.823 376.048 144.823C375.956 144.823 375.865 144.823 375.774 144.823C375.683 144.823 375.592 144.823 375.502 144.823C375.411 144.823 375.322 144.823 375.232 144.823C375.143 144.823 375.054 144.823 374.966 144.823C374.877 144.823 374.789 144.823 374.701 144.823C374.614 144.823 374.526 144.823 374.44 144.823C374.353 144.823 374.266 144.823 374.18 144.823C374.094 144.823 374.009 144.823 373.923 144.823C373.838 144.823 373.753 144.823 373.669 144.823C373.585 144.823 373.501 144.823 373.417 144.823C373.333 144.823 373.25 144.823 373.167 144.823C373.084 144.823 373.002 144.823 372.92 144.823C372.838 144.823 372.756 144.823 372.675 144.823C372.594 144.823 372.513 144.823 372.432 144.823C372.352 144.823 372.271 144.823 372.192 144.823C372.112 144.823 372.032 144.823 371.953 144.823C371.874 144.823 371.796 144.823 371.717 144.823C371.639 144.823 371.561 144.823 371.484 144.823C371.406 144.823 371.329 144.823 371.252 144.823C371.175 144.823 371.099 144.823 371.022 144.823C370.946 144.823 370.87 144.823 370.795 144.823C370.719 144.823 370.644 144.823 370.57 144.823C370.495 144.823 370.42 144.823 370.346 144.823C370.272 144.823 370.199 144.823 370.125 144.823C370.052 144.823 369.979 144.823 369.906 144.823C369.833 144.823 369.761 144.823 369.689 144.823C369.617 144.823 369.545 144.823 369.474 144.823C369.402 144.823 369.331 144.823 369.26 144.823C369.189 144.823 369.119 144.823 369.049 144.823C368.979 144.823 368.909 144.823 368.839 144.823C368.77 144.823 368.701 144.823 368.632 144.823C368.563 144.823 368.494 144.823 368.426 144.823C368.358 144.823 368.29 144.823 368.222 144.823C368.154 144.823 368.087 144.823 368.02 144.823C367.953 144.823 367.886 144.823 367.819 144.823C367.753 144.823 367.687 144.823 367.621 144.823C367.555 144.823 367.489 144.823 367.424 144.823C367.358 144.823 367.293 144.823 367.229 144.823C367.164 144.823 367.099 144.823 367.035 144.823C366.971 144.823 366.907 144.823 366.843 144.823C366.779 144.823 366.716 144.823 366.653 144.823C366.59 144.823 366.527 144.823 366.464 144.823C366.401 144.823 366.339 144.823 366.277 144.823C366.215 144.823 366.153 144.823 366.091 144.823C366.03 144.823 365.968 144.823 365.907 144.823C365.846 144.823 365.785 144.823 365.725 144.823C365.664 144.823 365.604 144.823 365.543 144.823C365.483 144.823 365.423 144.823 365.364 144.823C365.304 144.823 365.245 144.823 365.186 144.823C365.126 144.823 365.067 144.823 365.009 144.823C364.95 144.823 364.891 144.823 364.833 144.823C364.775 144.823 364.717 144.823 364.659 144.823C364.601 144.823 364.544 144.823 364.486 144.823C364.429 144.823 364.372 144.823 364.315 144.823C364.258 144.823 364.201 144.823 364.144 144.823C364.088 144.823 364.031 144.823 363.975 144.823C363.919 144.823 363.863 144.823 363.807 144.823C363.752 144.823 363.696 144.823 363.641 144.823C363.586 144.823 363.53 144.823 363.475 144.823C363.42 144.823 363.366 144.823 363.311 144.823C363.257 144.823 363.202 144.823 363.148 144.823C363.094 144.823 363.04 144.823 362.986 144.823C362.932 144.823 362.878 144.823 362.825 144.823C362.771 144.823 362.718 144.823 362.665 144.823C362.612 144.823 362.559 144.823 362.506 144.823C362.453 144.823 362.4 144.823 362.348 144.823C362.295 144.823 362.243 144.823 362.191 144.823C362.139 144.823 362.087 144.823 362.035 144.823C361.983 144.823 361.931 144.823 361.88 144.823C361.828 144.823 361.777 144.823 361.726 144.823C361.674 144.823 361.623 144.823 361.572 144.823C361.521 144.823 361.47 144.823 361.42 144.823C361.369 144.823 361.318 144.823 361.268 144.823C361.218 144.823 361.167 144.823 361.117 144.823C361.067 144.823 361.017 144.823 360.967 144.823C360.917 144.823 360.867 144.823 360.818 144.823C360.768 144.823 360.718 144.823 360.669 144.823C360.62 144.823 360.57 144.823 360.521 144.823C360.472 144.823 360.423 144.823 360.374 144.823C360.325 144.823 360.276 144.823 360.227 144.823C360.178 144.823 360.13 144.823 360.081 144.823C360.033 144.823 359.984 144.823 359.936 144.823C359.887 144.823 359.839 144.823 359.791 144.823C359.743 144.823 359.695 144.823 359.647 144.823C359.599 144.823 359.551 144.823 359.503 144.823C359.455 144.823 359.407 144.823 359.359 144.823C359.312 144.823 359.264 144.823 359.217 144.823C359.169 144.823 359.122 144.823 359.074 144.823C359.027 144.823 358.98 144.823 358.932 144.823C358.885 144.823 358.838 144.823 358.791 144.823C358.744 144.823 358.697 144.823 358.65 144.823C358.603 144.823 358.556 144.823 358.509 144.823C358.462 144.823 358.415 144.823 358.368 144.823C358.322 144.823 358.275 144.823 358.228 144.823C358.182 144.823 358.135 144.823 358.088 144.823C358.042 144.823 357.995 144.823 357.949 144.823C357.902 144.823 357.856 144.823 357.809 144.823C357.763 144.823 357.716 144.823 357.67 144.823C357.624 144.823 357.577 144.823 357.531 144.823C357.484 144.823 357.438 144.823 357.392 144.823C357.346 144.823 357.299 144.823 357.253 144.823C357.207 144.823 357.161 144.823 357.114 144.823C357.068 144.823 357.022 144.823 356.976 144.823C356.93 144.823 356.883 144.823 356.837 144.823C356.791 144.823 356.745 144.823 356.699 144.823C356.652 144.823 356.606 144.823 356.56 144.823C356.514 144.823 356.468 144.823 356.421 144.823C356.375 144.823 356.329 144.823 356.283 144.823C356.237 144.823 356.19 144.823 356.144 144.823C356.098 144.823 356.052 144.823 356.005 144.823C355.959 144.823 355.913 144.823 355.866 144.823C355.82 144.823 355.774 144.823 355.727 144.823C355.681 144.823 355.635 144.823 355.588 144.823C355.542 144.823 355.495 144.823 355.449 144.823C355.402 144.823 355.356 144.823 355.309 144.823C355.262 144.823 355.216 144.823 355.169 144.823C355.122 144.823 355.076 144.823 355.029 144.823C354.982 144.823 354.935 144.823 354.888 144.823C354.841 144.823 354.794 144.823 354.747 144.823C354.7 144.823 354.653 144.823 354.606 144.823C354.559 144.823 354.512 144.823 354.465 144.823C354.417 144.823 354.37 144.823 354.323 144.823C354.275 144.823 354.228 144.823 354.18 144.823C354.133 144.823 354.085 144.823 354.038 144.823C353.99 144.823 353.942 144.823 353.894 144.823C353.846 144.823 353.798 144.823 353.75 144.823C353.702 144.823 353.654 144.823 353.606 144.823C353.558 144.823 353.51 144.823 353.461 144.823C353.413 144.823 353.364 144.823 353.316 144.823C353.267 144.823 353.219 144.823 353.17 144.823C353.121 144.823 353.072 144.823 353.023 144.823C352.974 144.823 352.925 144.823 352.876 144.823C352.827 144.823 352.777 144.823 352.728 144.823C352.678 144.823 352.629 144.823 352.579 144.823C352.529 144.823 352.48 144.823 352.43 144.823C352.38 144.823 352.33 144.823 352.28 144.823C352.229 144.823 352.179 144.823 352.129 144.823C352.078 144.823 352.028 144.823 351.977 144.823C351.926 144.823 351.875 144.823 351.824 144.823C351.773 144.823 351.722 144.823 351.671 144.823C351.62 144.823 351.568 144.823 351.517 144.823C351.465 144.823 351.413 144.823 351.362 144.823C351.31 144.823 351.258 144.823 351.206 144.823C351.153 144.823 351.101 144.823 351.048 144.823C350.996 144.823 350.943 144.823 350.89 144.823C350.838 144.823 350.785 144.823 350.731 144.823C350.678 144.823 350.625 144.823 350.571 144.823C350.518 144.823 350.464 144.823 350.41 144.823C350.357 144.823 350.302 144.823 350.248 144.823C350.194 144.823 350.14 144.823 350.085 144.823C350.03 144.823 349.976 144.823 349.921 144.823C349.866 144.823 349.811 144.823 349.755 144.823C349.7 144.823 349.644 144.823 349.588 144.823C349.533 144.823 349.477 144.823 349.421 144.823C349.364 144.823 349.308 144.823 349.252 144.823C349.195 144.823 349.138 144.823 349.081 144.823C349.024 144.823 348.967 144.823 348.91 144.823C348.852 144.823 348.795 144.823 348.737 144.823C348.679 144.823 348.621 144.823 348.562 144.823C348.504 144.823 348.446 144.823 348.387 144.823C348.328 144.823 348.269 144.823 348.21 144.823C348.151 144.823 348.091 144.823 348.032 144.823C347.972 144.823 347.912 144.823 347.852 144.823C347.792 144.823 347.731 144.823 347.671 144.823C347.61 144.823 347.549 144.823 347.488 144.823C347.427 144.823 347.365 144.823 347.304 144.823C347.242 144.823 347.18 144.823 347.118 144.823C347.056 144.823 346.994 144.823 346.931 144.823C346.868 144.823 346.805 144.823 346.742 144.823C346.679 144.823 346.615 144.823 346.552 144.823C346.488 144.823 346.424 144.823 346.36 144.823C346.295 144.823 346.231 144.823 346.166 144.823C346.101 144.823 346.036 144.823 345.971 144.823C345.905 144.823 345.84 144.823 345.774 144.823C345.708 144.823 345.642 144.823 345.575 144.823C345.508 144.823 345.442 144.823 345.375 144.823C345.307 144.823 345.24 144.823 345.172 144.823C345.105 144.823 345.037 144.823 344.968 144.823C344.9 144.823 344.831 144.823 344.762 144.823C344.693 144.823 344.624 144.823 344.555 144.823C344.485 144.823 344.415 144.823 344.345 144.823C344.275 144.823 344.204 144.823 344.134 144.823C344.063 144.823 343.992 144.823 343.92 144.823C343.849 144.823 343.777 144.823 343.705 144.823C343.633 144.823 343.56 144.823 343.488 144.823C343.415 144.823 343.342 144.823 343.268 144.823C343.195 144.823 343.121 144.823 343.047 144.823C342.973 144.823 342.898 144.823 342.824 144.823C342.749 144.823 342.674 144.823 342.598 144.823C342.523 144.823 342.447 144.823 342.371 144.823C342.295 144.823 342.218 144.823 342.141 144.823C342.064 144.823 341.987 144.823 341.909 144.823C341.832 144.823 341.754 144.823 341.675 144.823C341.597 144.823 341.518 144.823 341.439 144.823C341.36 144.823 341.281 144.823 341.201 144.823C341.121 144.823 341.041 144.823 340.96 144.823C340.88 144.823 340.799 144.823 340.718 144.823C340.636 144.823 340.555 144.823 340.472 144.823C340.39 144.823 340.308 144.823 340.225 144.823C340.142 144.823 340.059 144.823 339.975 144.823C339.892 144.823 339.807 144.823 339.723 144.823C339.639 144.823 339.554 144.823 339.468 144.823C339.383 144.823 339.298 144.823 339.211 144.823C339.125 144.823 339.039 144.823 338.952 144.823C338.865 144.823 338.778 144.823 338.69 144.823C338.603 144.823 338.514 144.823 338.426 144.823C338.337 144.823 338.248 144.823 338.159 144.823C338.07 144.823 337.98 144.823 337.89 144.823C337.799 144.823 337.709 144.823 337.618 144.823C337.526 144.823 337.435 144.823 337.343 144.823C337.251 144.823 337.159 144.823 337.066 144.823C336.973 144.823 336.88 144.823 336.786 144.823C336.692 144.823 336.598 144.823 336.503 144.823C336.409 144.823 336.314 144.823 336.218 144.823C336.123 144.823 336.027 144.823 335.93 144.823C335.834 144.823 335.737 144.823 335.64 144.823C335.542 144.823 335.445 144.823 335.346 144.823C335.248 144.823 335.149 144.823 335.05 144.823C334.951 144.823 334.851 144.823 334.751 144.823C334.651 144.823 334.55 144.823 334.449 144.823C334.348 144.823 334.247 144.823 334.144 144.823C334.042 144.823 333.94 144.823 333.837 144.823C333.734 144.823 333.63 144.823 333.526 144.823C333.422 144.823 333.318 144.823 333.213 144.823C333.108 144.823 333.002 144.823 332.896 144.823C332.79 144.823 332.684 144.823 332.577 144.823C332.47 144.823 332.363 144.823 332.255 144.823C332.147 144.823 332.038 144.823 331.929 144.823C331.82 144.823 331.711 144.823 331.601 144.823C331.491 144.823 331.38 144.823 331.269 144.823C331.158 144.823 331.046 144.823 330.934 144.823C330.822 144.823 330.71 144.823 330.596 144.823C330.483 144.823 330.37 144.823 330.255 144.823C330.141 144.823 330.026 144.823 329.911 144.823C329.796 144.823 329.68 144.823 329.564 144.823C329.447 144.823 329.33 144.823 329.213 144.823C329.096 144.823 328.978 144.823 328.859 144.823C328.741 144.823 328.621 144.823 328.502 144.823C328.382 144.823 328.262 144.823 328.141 144.823C328.021 144.823 327.899 144.823 327.777 144.823C327.656 144.823 327.533 144.823 327.41 144.823C327.287 144.823 327.164 144.823 327.04 144.823C326.915 144.823 326.791 144.823 326.666 144.823C326.54 144.823 326.414 144.823 326.288 144.823C326.162 144.823 326.035 144.823 325.907 144.823C325.78 144.823 325.651 144.823 325.523 144.823V147.323Z" fill="white" fill-opacity="0.1"/>
</svg>
