<svg width="24" height="25" viewBox="0 0 24 25" fill="none" xmlns="http://www.w3.org/2000/svg">
<path d="M9 19.5C9 21.1569 10.3431 22.5 12 22.5H14.5C17.5376 22.5 20 20.0376 20 17V16" stroke="#F8F8F8" stroke-width="2" stroke-linecap="round"/>
<path d="M12 5.5H12.0455C13.6772 5.5 15 6.8228 15 8.45455V12.5C15 15.8137 12.3137 18.5 9 18.5C5.68629 18.5 3 15.8137 3 12.5V8.45454C3 6.82279 4.3228 5.5 5.95455 5.5H6.5" stroke="#F8F8F8" stroke-width="2" stroke-linecap="round"/>
<path d="M11 7.5V3.5" stroke="#F8F8F8" stroke-width="2" stroke-linecap="round"/>
<path d="M7 7.5V3.5" stroke="#F8F8F8" stroke-width="2" stroke-linecap="round"/>
<path d="M20 15.5C21.1046 15.5 22 14.6046 22 13.5C22 12.3954 21.1046 11.5 20 11.5C18.8954 11.5 18 12.3954 18 13.5C18 14.6046 18.8954 15.5 20 15.5Z" stroke="#F8F8F8" stroke-width="2" stroke-linecap="round"/>
</svg>
