<svg width="674" height="332" viewBox="0 0 674 332" fill="none" xmlns="http://www.w3.org/2000/svg">
<path d="M5.29739 179.655C4.7529 178.386 3.28292 177.799 2.01411 178.343C0.745292 178.888 0.158113 180.358 0.702607 181.627L3 180.641L5.29739 179.655ZM16.4034 211.874L14.106 212.86L14.7558 214.374H16.4034V211.874ZM75.7614 211.874L77.8537 210.506L77.1136 209.374H75.7614V211.874ZM102.568 252.868L100.476 254.236L104.354 260.166L105.056 253.116L102.568 252.868ZM127.46 3L129.951 2.78059C129.837 1.49537 128.765 0.507406 127.475 0.500041C126.184 0.492676 125.1 1.46833 124.973 2.75218L127.46 3ZM156.182 329L153.691 329.219C153.802 330.48 154.837 331.458 156.102 331.499C157.366 331.539 158.461 330.629 158.653 329.379L156.182 329ZM175.33 204.066V201.566H173.184L172.858 203.687L175.33 204.066ZM246.176 204.066V206.566H247.441L248.19 205.547L246.176 204.066ZM355.318 204.066L352.842 204.407L353.139 206.566H355.318V204.066ZM677 206.566C678.381 206.566 679.5 205.447 679.5 204.066C679.5 202.685 678.381 201.566 677 201.566V204.066V206.566ZM3 180.641L0.702607 181.627L14.106 212.86L16.4034 211.874L18.7008 210.888L5.29739 179.655L3 180.641ZM16.4034 211.874V214.374H75.7614V211.874V209.374H16.4034V211.874ZM75.7614 211.874L73.669 213.242L100.476 254.236L102.568 252.868L104.661 251.5L77.8537 210.506L75.7614 211.874ZM102.568 252.868L105.056 253.116L129.948 3.24782L127.46 3L124.973 2.75218L100.08 252.62L102.568 252.868ZM127.46 3L124.97 3.21941L153.691 329.219L156.182 329L158.672 328.781L129.951 2.78059L127.46 3ZM156.182 329L158.653 329.379L177.801 204.445L175.33 204.066L172.858 203.687L153.711 328.621L156.182 329ZM175.33 204.066V206.566H246.176V204.066V201.566H175.33V204.066ZM246.176 204.066L248.19 205.547C255.774 195.238 265.459 183.912 275.91 174.28C286.396 164.616 297.482 156.819 307.861 153.339C318.125 149.897 327.419 150.731 335.049 157.87C342.897 165.213 349.42 179.598 352.842 204.407L355.318 204.066L357.795 203.724C354.324 178.56 347.586 162.753 338.465 154.219C329.125 145.48 317.74 144.753 306.271 148.599C294.917 152.406 283.217 160.747 272.521 170.604C261.79 180.493 251.896 192.071 244.162 202.584L246.176 204.066ZM355.318 204.066V206.566C355.459 206.566 355.599 206.566 355.738 206.566C355.877 206.566 356.016 206.566 356.154 206.566C356.292 206.566 356.43 206.566 356.567 206.566C356.703 206.566 356.84 206.566 356.975 206.566C357.111 206.566 357.246 206.566 357.38 206.566C357.514 206.566 357.648 206.566 357.781 206.566C357.914 206.566 358.047 206.566 358.179 206.566C358.311 206.566 358.442 206.566 358.573 206.566C358.703 206.566 358.833 206.566 358.963 206.566C359.092 206.566 359.221 206.566 359.349 206.566C359.478 206.566 359.605 206.566 359.732 206.566C359.86 206.566 359.986 206.566 360.112 206.566C360.238 206.566 360.363 206.566 360.488 206.566C360.613 206.566 360.737 206.566 360.861 206.566C360.984 206.566 361.107 206.566 361.23 206.566C361.352 206.566 361.474 206.566 361.595 206.566C361.717 206.566 361.837 206.566 361.958 206.566C362.078 206.566 362.197 206.566 362.316 206.566C362.435 206.566 362.554 206.566 362.672 206.566C362.79 206.566 362.907 206.566 363.024 206.566C363.141 206.566 363.257 206.566 363.373 206.566C363.489 206.566 363.604 206.566 363.719 206.566C363.833 206.566 363.948 206.566 364.061 206.566C364.175 206.566 364.288 206.566 364.4 206.566C364.513 206.566 364.625 206.566 364.736 206.566C364.848 206.566 364.959 206.566 365.069 206.566C365.18 206.566 365.29 206.566 365.399 206.566C365.508 206.566 365.617 206.566 365.726 206.566C365.834 206.566 365.942 206.566 366.049 206.566C366.157 206.566 366.263 206.566 366.37 206.566C366.476 206.566 366.582 206.566 366.687 206.566C366.793 206.566 366.897 206.566 367.002 206.566C367.106 206.566 367.21 206.566 367.313 206.566C367.417 206.566 367.52 206.566 367.622 206.566C367.724 206.566 367.826 206.566 367.928 206.566C368.029 206.566 368.13 206.566 368.23 206.566C368.331 206.566 368.431 206.566 368.53 206.566C368.63 206.566 368.729 206.566 368.827 206.566C368.926 206.566 369.024 206.566 369.122 206.566C369.219 206.566 369.317 206.566 369.413 206.566C369.51 206.566 369.606 206.566 369.702 206.566C369.798 206.566 369.893 206.566 369.988 206.566C370.083 206.566 370.178 206.566 370.272 206.566C370.366 206.566 370.459 206.566 370.552 206.566C370.645 206.566 370.738 206.566 370.83 206.566C370.923 206.566 371.014 206.566 371.106 206.566C371.197 206.566 371.288 206.566 371.379 206.566C371.469 206.566 371.559 206.566 371.649 206.566C371.739 206.566 371.828 206.566 371.917 206.566C372.006 206.566 372.094 206.566 372.182 206.566C372.27 206.566 372.358 206.566 372.445 206.566C372.532 206.566 372.619 206.566 372.705 206.566C372.792 206.566 372.878 206.566 372.963 206.566C373.049 206.566 373.134 206.566 373.219 206.566C373.303 206.566 373.388 206.566 373.472 206.566C373.556 206.566 373.639 206.566 373.723 206.566C373.806 206.566 373.889 206.566 373.971 206.566C374.054 206.566 374.136 206.566 374.217 206.566C374.299 206.566 374.381 206.566 374.461 206.566C374.542 206.566 374.623 206.566 374.703 206.566C374.783 206.566 374.863 206.566 374.943 206.566C375.022 206.566 375.101 206.566 375.18 206.566C375.259 206.566 375.337 206.566 375.415 206.566C375.493 206.566 375.571 206.566 375.648 206.566C375.726 206.566 375.803 206.566 375.879 206.566C375.956 206.566 376.032 206.566 376.108 206.566C376.184 206.566 376.26 206.566 376.335 206.566C376.411 206.566 376.486 206.566 376.56 206.566C376.635 206.566 376.709 206.566 376.783 206.566C376.857 206.566 376.931 206.566 377.004 206.566C377.077 206.566 377.15 206.566 377.223 206.566C377.296 206.566 377.368 206.566 377.44 206.566C377.512 206.566 377.584 206.566 377.655 206.566C377.727 206.566 377.798 206.566 377.869 206.566C377.939 206.566 378.01 206.566 378.08 206.566C378.15 206.566 378.22 206.566 378.29 206.566C378.36 206.566 378.429 206.566 378.498 206.566C378.567 206.566 378.636 206.566 378.704 206.566C378.773 206.566 378.841 206.566 378.909 206.566C378.977 206.566 379.044 206.566 379.111 206.566C379.179 206.566 379.246 206.566 379.313 206.566C379.379 206.566 379.446 206.566 379.512 206.566C379.578 206.566 379.644 206.566 379.71 206.566C379.776 206.566 379.841 206.566 379.906 206.566C379.972 206.566 380.037 206.566 380.101 206.566C380.166 206.566 380.23 206.566 380.295 206.566C380.359 206.566 380.423 206.566 380.486 206.566C380.55 206.566 380.613 206.566 380.677 206.566C380.74 206.566 380.803 206.566 380.866 206.566C380.928 206.566 380.991 206.566 381.053 206.566C381.115 206.566 381.177 206.566 381.239 206.566C381.301 206.566 381.362 206.566 381.424 206.566C381.485 206.566 381.546 206.566 381.607 206.566C381.668 206.566 381.729 206.566 381.789 206.566C381.85 206.566 381.91 206.566 381.97 206.566C382.03 206.566 382.09 206.566 382.15 206.566C382.209 206.566 382.269 206.566 382.328 206.566C382.387 206.566 382.446 206.566 382.505 206.566C382.564 206.566 382.623 206.566 382.681 206.566C382.739 206.566 382.798 206.566 382.856 206.566C382.914 206.566 382.972 206.566 383.029 206.566C383.087 206.566 383.145 206.566 383.202 206.566C383.259 206.566 383.317 206.566 383.374 206.566C383.431 206.566 383.487 206.566 383.544 206.566C383.601 206.566 383.657 206.566 383.714 206.566C383.77 206.566 383.826 206.566 383.882 206.566C383.938 206.566 383.994 206.566 384.05 206.566C384.105 206.566 384.161 206.566 384.216 206.566C384.272 206.566 384.327 206.566 384.382 206.566C384.437 206.566 384.492 206.566 384.547 206.566C384.602 206.566 384.656 206.566 384.711 206.566C384.766 206.566 384.82 206.566 384.874 206.566C384.928 206.566 384.983 206.566 385.037 206.566C385.091 206.566 385.144 206.566 385.198 206.566C385.252 206.566 385.306 206.566 385.359 206.566C385.413 206.566 385.466 206.566 385.519 206.566C385.573 206.566 385.626 206.566 385.679 206.566C385.732 206.566 385.785 206.566 385.838 206.566C385.891 206.566 385.943 206.566 385.996 206.566C386.049 206.566 386.101 206.566 386.154 206.566C386.206 206.566 386.259 206.566 386.311 206.566C386.363 206.566 386.415 206.566 386.467 206.566C386.519 206.566 386.571 206.566 386.623 206.566C386.675 206.566 386.727 206.566 386.779 206.566C386.831 206.566 386.882 206.566 386.934 206.566C386.986 206.566 387.037 206.566 387.089 206.566C387.14 206.566 387.191 206.566 387.243 206.566C387.294 206.566 387.345 206.566 387.397 206.566C387.448 206.566 387.499 206.566 387.55 206.566C387.601 206.566 387.652 206.566 387.703 206.566C387.754 206.566 387.805 206.566 387.856 206.566C387.907 206.566 387.958 206.566 388.009 206.566C388.06 206.566 388.11 206.566 388.161 206.566C388.212 206.566 388.262 206.566 388.313 206.566C388.364 206.566 388.414 206.566 388.465 206.566C388.516 206.566 388.566 206.566 388.617 206.566C388.667 206.566 388.718 206.566 388.768 206.566C388.819 206.566 388.87 206.566 388.92 206.566C388.971 206.566 389.021 206.566 389.071 206.566C389.122 206.566 389.172 206.566 389.223 206.566C389.273 206.566 389.324 206.566 389.374 206.566C389.425 206.566 389.475 206.566 389.526 206.566C389.576 206.566 389.626 206.566 389.677 206.566C389.727 206.566 389.778 206.566 389.828 206.566C389.879 206.566 389.929 206.566 389.98 206.566C390.03 206.566 390.081 206.566 390.132 206.566C390.182 206.566 390.233 206.566 390.283 206.566C390.334 206.566 390.385 206.566 390.435 206.566C390.486 206.566 390.537 206.566 390.587 206.566C390.638 206.566 390.689 206.566 390.74 206.566C390.79 206.566 390.841 206.566 390.892 206.566C390.943 206.566 390.994 206.566 391.045 206.566C391.096 206.566 391.147 206.566 391.198 206.566C391.249 206.566 391.3 206.566 391.352 206.566C391.403 206.566 391.454 206.566 391.506 206.566C391.557 206.566 391.608 206.566 391.66 206.566C391.711 206.566 391.763 206.566 391.814 206.566C391.866 206.566 391.918 206.566 391.969 206.566C392.021 206.566 392.073 206.566 392.125 206.566C392.177 206.566 392.229 206.566 392.281 206.566C392.333 206.566 392.385 206.566 392.437 206.566C392.49 206.566 392.542 206.566 392.594 206.566C392.647 206.566 392.699 206.566 392.752 206.566C392.805 206.566 392.857 206.566 392.91 206.566C392.963 206.566 393.016 206.566 393.069 206.566C393.122 206.566 393.175 206.566 393.229 206.566C393.282 206.566 393.335 206.566 393.389 206.566C393.442 206.566 393.496 206.566 393.55 206.566C393.603 206.566 393.657 206.566 393.711 206.566C393.765 206.566 393.819 206.566 393.874 206.566C393.928 206.566 393.982 206.566 394.037 206.566C394.091 206.566 394.146 206.566 394.201 206.566C394.256 206.566 394.311 206.566 394.366 206.566C394.421 206.566 394.476 206.566 394.531 206.566C394.587 206.566 394.642 206.566 394.698 206.566C394.754 206.566 394.81 206.566 394.866 206.566C394.922 206.566 394.978 206.566 395.034 206.566C395.09 206.566 395.147 206.566 395.203 206.566C395.26 206.566 395.317 206.566 395.374 206.566C395.431 206.566 395.488 206.566 395.545 206.566C395.603 206.566 395.66 206.566 395.718 206.566C395.776 206.566 395.834 206.566 395.892 206.566C395.95 206.566 396.008 206.566 396.066 206.566C396.125 206.566 396.183 206.566 396.242 206.566C396.301 206.566 396.36 206.566 396.419 206.566C396.479 206.566 396.538 206.566 396.598 206.566C396.657 206.566 396.717 206.566 396.777 206.566C396.837 206.566 396.897 206.566 396.958 206.566C397.018 206.566 397.079 206.566 397.14 206.566C397.201 206.566 397.262 206.566 397.323 206.566C397.384 206.566 397.446 206.566 397.508 206.566C397.57 206.566 397.632 206.566 397.694 206.566C397.756 206.566 397.818 206.566 397.881 206.566C397.944 206.566 398.007 206.566 398.07 206.566C398.133 206.566 398.197 206.566 398.26 206.566C398.324 206.566 398.388 206.566 398.452 206.566C398.516 206.566 398.58 206.566 398.645 206.566C398.71 206.566 398.775 206.566 398.84 206.566C398.905 206.566 398.97 206.566 399.036 206.566C399.102 206.566 399.168 206.566 399.234 206.566C399.3 206.566 399.367 206.566 399.434 206.566C399.5 206.566 399.567 206.566 399.635 206.566C399.702 206.566 399.77 206.566 399.837 206.566C399.905 206.566 399.973 206.566 400.042 206.566C400.11 206.566 400.179 206.566 400.248 206.566C400.317 206.566 400.386 206.566 400.456 206.566C400.525 206.566 400.595 206.566 400.666 206.566C400.736 206.566 400.806 206.566 400.877 206.566C400.948 206.566 401.019 206.566 401.09 206.566C401.162 206.566 401.233 206.566 401.305 206.566C401.377 206.566 401.45 206.566 401.522 206.566C401.595 206.566 401.668 206.566 401.741 206.566C401.815 206.566 401.888 206.566 401.962 206.566C402.036 206.566 402.11 206.566 402.185 206.566C402.26 206.566 402.334 206.566 402.41 206.566C402.485 206.566 402.561 206.566 402.637 206.566C402.712 206.566 402.789 206.566 402.865 206.566C402.942 206.566 403.019 206.566 403.096 206.566C403.174 206.566 403.251 206.566 403.329 206.566C403.407 206.566 403.486 206.566 403.564 206.566C403.643 206.566 403.722 206.566 403.802 206.566C403.881 206.566 403.961 206.566 404.041 206.566C404.121 206.566 404.202 206.566 404.283 206.566C404.364 206.566 404.445 206.566 404.527 206.566C404.608 206.566 404.69 206.566 404.773 206.566C404.855 206.566 404.938 206.566 405.021 206.566C405.104 206.566 405.188 206.566 405.272 206.566C405.356 206.566 405.44 206.566 405.525 206.566C405.61 206.566 405.695 206.566 405.78 206.566C405.866 206.566 405.952 206.566 406.038 206.566C406.125 206.566 406.211 206.566 406.298 206.566C406.386 206.566 406.473 206.566 406.561 206.566C406.649 206.566 406.738 206.566 406.826 206.566C406.915 206.566 407.004 206.566 407.094 206.566C407.184 206.566 407.274 206.566 407.364 206.566C407.455 206.566 407.546 206.566 407.637 206.566C407.728 206.566 407.82 206.566 407.912 206.566C408.005 206.566 408.097 206.566 408.19 206.566C408.283 206.566 408.377 206.566 408.471 206.566C408.565 206.566 408.659 206.566 408.754 206.566C408.849 206.566 408.944 206.566 409.04 206.566C409.136 206.566 409.232 206.566 409.329 206.566C409.425 206.566 409.523 206.566 409.62 206.566C409.718 206.566 409.816 206.566 409.914 206.566C410.013 206.566 410.112 206.566 410.211 206.566C410.311 206.566 410.411 206.566 410.511 206.566C410.612 206.566 410.712 206.566 410.814 206.566C410.915 206.566 411.017 206.566 411.119 206.566C411.222 206.566 411.325 206.566 411.428 206.566C411.531 206.566 411.635 206.566 411.739 206.566C411.844 206.566 411.948 206.566 412.054 206.566C412.159 206.566 412.265 206.566 412.371 206.566C412.477 206.566 412.584 206.566 412.691 206.566C412.799 206.566 412.906 206.566 413.015 206.566C413.123 206.566 413.232 206.566 413.341 206.566C413.451 206.566 413.561 206.566 413.671 206.566C413.781 206.566 413.892 206.566 414.004 206.566C414.115 206.566 414.227 206.566 414.34 206.566C414.452 206.566 414.565 206.566 414.679 206.566C414.792 206.566 414.906 206.566 415.021 206.566C415.135 206.566 415.251 206.566 415.366 206.566C415.482 206.566 415.598 206.566 415.715 206.566C415.832 206.566 415.949 206.566 416.067 206.566C416.185 206.566 416.304 206.566 416.423 206.566C416.542 206.566 416.661 206.566 416.781 206.566C416.901 206.566 417.022 206.566 417.143 206.566C417.265 206.566 417.386 206.566 417.509 206.566C417.631 206.566 417.754 206.566 417.878 206.566C418.001 206.566 418.125 206.566 418.25 206.566C418.375 206.566 418.5 206.566 418.626 206.566C418.752 206.566 418.878 206.566 419.005 206.566C419.132 206.566 419.26 206.566 419.388 206.566C419.517 206.566 419.645 206.566 419.775 206.566C419.904 206.566 420.034 206.566 420.165 206.566C420.296 206.566 420.427 206.566 420.559 206.566C420.69 206.566 420.823 206.566 420.956 206.566C421.089 206.566 421.223 206.566 421.357 206.566C421.491 206.566 421.626 206.566 421.762 206.566C421.897 206.566 422.033 206.566 422.17 206.566C422.307 206.566 422.444 206.566 422.582 206.566C422.72 206.566 422.859 206.566 422.998 206.566C423.137 206.566 423.277 206.566 423.418 206.566C423.558 206.566 423.7 206.566 423.841 206.566C423.983 206.566 424.126 206.566 424.269 206.566C424.412 206.566 424.556 206.566 424.7 206.566C424.845 206.566 424.99 206.566 425.136 206.566C425.281 206.566 425.428 206.566 425.575 206.566C425.722 206.566 425.87 206.566 426.018 206.566C426.166 206.566 426.315 206.566 426.465 206.566C426.615 206.566 426.765 206.566 426.916 206.566C427.067 206.566 427.219 206.566 427.372 206.566C427.524 206.566 427.677 206.566 427.831 206.566C427.985 206.566 428.139 206.566 428.294 206.566C428.449 206.566 428.605 206.566 428.762 206.566C428.918 206.566 429.076 206.566 429.234 206.566C429.392 206.566 429.55 206.566 429.71 206.566C429.869 206.566 430.029 206.566 430.19 206.566C430.35 206.566 430.512 206.566 430.674 206.566C430.836 206.566 430.999 206.566 431.163 206.566C431.326 206.566 431.491 206.566 431.656 206.566C431.821 206.566 431.986 206.566 432.153 206.566C432.319 206.566 432.487 206.566 432.655 206.566C432.823 206.566 432.991 206.566 433.161 206.566C433.33 206.566 433.5 206.566 433.671 206.566C433.842 206.566 434.013 206.566 434.186 206.566C434.358 206.566 434.531 206.566 434.705 206.566C434.879 206.566 435.054 206.566 435.229 206.566C435.404 206.566 435.58 206.566 435.757 206.566C435.934 206.566 436.112 206.566 436.29 206.566C436.468 206.566 436.648 206.566 436.828 206.566C437.007 206.566 437.188 206.566 437.37 206.566C437.551 206.566 437.733 206.566 437.916 206.566C438.099 206.566 438.283 206.566 438.467 206.566C438.652 206.566 438.837 206.566 439.023 206.566C439.21 206.566 439.396 206.566 439.584 206.566C439.772 206.566 439.96 206.566 440.15 206.566C440.339 206.566 440.529 206.566 440.72 206.566C440.911 206.566 441.102 206.566 441.295 206.566C441.487 206.566 441.68 206.566 441.874 206.566C442.069 206.566 442.263 206.566 442.459 206.566C442.655 206.566 442.851 206.566 443.049 206.566C443.246 206.566 443.444 206.566 443.643 206.566C443.842 206.566 444.042 206.566 444.242 206.566C444.443 206.566 444.644 206.566 444.846 206.566C445.049 206.566 445.252 206.566 445.456 206.566C445.66 206.566 445.864 206.566 446.07 206.566C446.275 206.566 446.482 206.566 446.689 206.566C446.896 206.566 447.105 206.566 447.314 206.566C447.522 206.566 447.732 206.566 447.943 206.566C448.154 206.566 448.365 206.566 448.577 206.566C448.79 206.566 449.003 206.566 449.217 206.566C449.431 206.566 449.646 206.566 449.862 206.566C450.078 206.566 450.294 206.566 450.512 206.566C450.729 206.566 450.948 206.566 451.167 206.566C451.387 206.566 451.607 206.566 451.828 206.566C452.049 206.566 452.271 206.566 452.493 206.566C452.716 206.566 452.94 206.566 453.165 206.566C453.389 206.566 453.615 206.566 453.841 206.566C454.067 206.566 454.295 206.566 454.523 206.566C454.751 206.566 454.98 206.566 455.21 206.566C455.44 206.566 455.671 206.566 455.902 206.566C456.134 206.566 456.367 206.566 456.6 206.566C456.834 206.566 457.069 206.566 457.304 206.566C457.539 206.566 457.776 206.566 458.013 206.566C458.25 206.566 458.488 206.566 458.727 206.566C458.966 206.566 459.206 206.566 459.447 206.566C459.688 206.566 459.93 206.566 460.173 206.566C460.416 206.566 460.66 206.566 460.904 206.566C461.149 206.566 461.395 206.566 461.641 206.566C461.888 206.566 462.135 206.566 462.384 206.566C462.632 206.566 462.881 206.566 463.132 206.566C463.382 206.566 463.633 206.566 463.886 206.566C464.138 206.566 464.391 206.566 464.645 206.566C464.9 206.566 465.155 206.566 465.411 206.566C465.667 206.566 465.924 206.566 466.182 206.566C466.44 206.566 466.699 206.566 466.959 206.566C467.219 206.566 467.48 206.566 467.742 206.566C468.004 206.566 468.267 206.566 468.531 206.566C468.794 206.566 469.059 206.566 469.325 206.566C469.591 206.566 469.858 206.566 470.126 206.566C470.394 206.566 470.663 206.566 470.932 206.566C471.202 206.566 471.473 206.566 471.745 206.566C472.017 206.566 472.29 206.566 472.563 206.566C472.837 206.566 473.112 206.566 473.388 206.566C473.664 206.566 473.941 206.566 474.219 206.566C474.496 206.566 474.775 206.566 475.055 206.566C475.335 206.566 475.616 206.566 475.898 206.566C476.18 206.566 476.463 206.566 476.747 206.566C477.031 206.566 477.316 206.566 477.602 206.566C477.888 206.566 478.176 206.566 478.464 206.566C478.752 206.566 479.041 206.566 479.331 206.566C479.622 206.566 479.913 206.566 480.205 206.566C480.497 206.566 480.791 206.566 481.085 206.566C481.38 206.566 481.675 206.566 481.972 206.566C482.268 206.566 482.566 206.566 482.865 206.566C483.163 206.566 483.463 206.566 483.764 206.566C484.064 206.566 484.366 206.566 484.669 206.566C484.972 206.566 485.276 206.566 485.581 206.566C485.886 206.566 486.192 206.566 486.5 206.566C486.807 206.566 487.115 206.566 487.424 206.566C487.734 206.566 488.044 206.566 488.356 206.566C488.667 206.566 488.98 206.566 489.294 206.566C489.607 206.566 489.922 206.566 490.238 206.566C490.554 206.566 490.871 206.566 491.189 206.566C491.507 206.566 491.827 206.566 492.147 206.566C492.467 206.566 492.789 206.566 493.111 206.566C493.434 206.566 493.757 206.566 494.082 206.566C494.407 206.566 494.733 206.566 495.06 206.566C495.387 206.566 495.715 206.566 496.044 206.566C496.373 206.566 496.704 206.566 497.035 206.566C497.367 206.566 497.699 206.566 498.033 206.566C498.367 206.566 498.702 206.566 499.038 206.566C499.374 206.566 499.711 206.566 500.049 206.566C500.388 206.566 500.727 206.566 501.068 206.566C501.408 206.566 501.75 206.566 502.093 206.566C502.436 206.566 502.78 206.566 503.125 206.566C503.47 206.566 503.817 206.566 504.164 206.566C504.512 206.566 504.86 206.566 505.21 206.566C505.56 206.566 505.911 206.566 506.263 206.566C506.616 206.566 506.969 206.566 507.323 206.566C507.678 206.566 508.034 206.566 508.391 206.566C508.747 206.566 509.105 206.566 509.465 206.566C509.824 206.566 510.184 206.566 510.546 206.566C510.908 206.566 511.27 206.566 511.634 206.566C511.998 206.566 512.364 206.566 512.73 206.566C513.096 206.566 513.464 206.566 513.833 206.566C514.202 206.566 514.572 206.566 514.943 206.566C515.314 206.566 515.686 206.566 516.06 206.566C516.433 206.566 516.808 206.566 517.184 206.566C517.56 206.566 517.938 206.566 518.316 206.566C518.695 206.566 519.074 206.566 519.455 206.566C519.836 206.566 520.218 206.566 520.602 206.566C520.985 206.566 521.369 206.566 521.755 206.566C522.141 206.566 522.528 206.566 522.916 206.566C523.305 206.566 523.694 206.566 524.085 206.566C524.476 206.566 524.868 206.566 525.261 206.566C525.654 206.566 526.049 206.566 526.445 206.566C526.84 206.566 527.237 206.566 527.636 206.566C528.034 206.566 528.433 206.566 528.834 206.566C529.235 206.566 529.637 206.566 530.04 206.566C530.444 206.566 530.848 206.566 531.254 206.566C531.66 206.566 532.067 206.566 532.475 206.566C532.884 206.566 533.293 206.566 533.704 206.566C534.115 206.566 534.528 206.566 534.941 206.566C535.355 206.566 535.769 206.566 536.185 206.566C536.602 206.566 537.019 206.566 537.438 206.566C537.856 206.566 538.276 206.566 538.697 206.566C539.119 206.566 539.541 206.566 539.965 206.566C540.389 206.566 540.814 206.566 541.24 206.566C541.667 206.566 542.094 206.566 542.524 206.566C542.953 206.566 543.383 206.566 543.815 206.566C544.246 206.566 544.679 206.566 545.114 206.566C545.548 206.566 545.984 206.566 546.421 206.566C546.858 206.566 547.296 206.566 547.735 206.566C548.175 206.566 548.616 206.566 549.058 206.566C549.501 206.566 549.944 206.566 550.389 206.566C550.834 206.566 551.28 206.566 551.728 206.566C552.176 206.566 552.625 206.566 553.075 206.566C553.525 206.566 553.977 206.566 554.43 206.566C554.883 206.566 555.337 206.566 555.793 206.566C556.249 206.566 556.706 206.566 557.164 206.566C557.622 206.566 558.082 206.566 558.543 206.566C559.005 206.566 559.467 206.566 559.931 206.566C560.395 206.566 560.86 206.566 561.327 206.566C561.793 206.566 562.261 206.566 562.731 206.566C563.2 206.566 563.671 206.566 564.143 206.566C564.615 206.566 565.089 206.566 565.564 206.566C566.039 206.566 566.515 206.566 566.993 206.566C567.47 206.566 567.949 206.566 568.43 206.566C568.91 206.566 569.392 206.566 569.875 206.566C570.359 206.566 570.843 206.566 571.33 206.566C571.816 206.566 572.303 206.566 572.792 206.566C573.281 206.566 573.771 206.566 574.263 206.566C574.755 206.566 575.248 206.566 575.742 206.566C576.237 206.566 576.733 206.566 577.23 206.566C577.728 206.566 578.227 206.566 578.727 206.566C579.227 206.566 579.729 206.566 580.232 206.566C580.735 206.566 581.239 206.566 581.745 206.566C582.251 206.566 582.759 206.566 583.268 206.566C583.776 206.566 584.287 206.566 584.799 206.566C585.31 206.566 585.823 206.566 586.338 206.566C586.853 206.566 587.369 206.566 587.886 206.566C588.404 206.566 588.923 206.566 589.443 206.566C589.964 206.566 590.486 206.566 591.009 206.566C591.533 206.566 592.057 206.566 592.584 206.566C593.11 206.566 593.638 206.566 594.167 206.566C594.696 206.566 595.227 206.566 595.759 206.566C596.292 206.566 596.825 206.566 597.36 206.566C597.896 206.566 598.432 206.566 598.97 206.566C599.509 206.566 600.048 206.566 600.589 206.566C601.13 206.566 601.673 206.566 602.217 206.566C602.761 206.566 603.307 206.566 603.854 206.566C604.401 206.566 604.95 206.566 605.5 206.566C606.05 206.566 606.602 206.566 607.155 206.566C607.708 206.566 608.263 206.566 608.819 206.566C609.375 206.566 609.932 206.566 610.492 206.566C611.051 206.566 611.612 206.566 612.174 206.566C612.736 206.566 613.3 206.566 613.865 206.566C614.43 206.566 614.997 206.566 615.565 206.566C616.134 206.566 616.704 206.566 617.275 206.566C617.846 206.566 618.419 206.566 618.994 206.566C619.568 206.566 620.144 206.566 620.722 206.566C621.3 206.566 621.879 206.566 622.459 206.566C623.04 206.566 623.622 206.566 624.206 206.566C624.79 206.566 625.375 206.566 625.962 206.566C626.549 206.566 627.137 206.566 627.727 206.566C628.317 206.566 628.909 206.566 629.502 206.566C630.095 206.566 630.69 206.566 631.286 206.566C631.883 206.566 632.48 206.566 633.08 206.566C633.679 206.566 634.28 206.566 634.883 206.566C635.486 206.566 636.09 206.566 636.695 206.566C637.301 206.566 637.909 206.566 638.518 206.566C639.126 206.566 639.737 206.566 640.349 206.566C640.961 206.566 641.575 206.566 642.19 206.566C642.806 206.566 643.423 206.566 644.041 206.566C644.66 206.566 645.28 206.566 645.902 206.566C646.523 206.566 647.147 206.566 647.772 206.566C648.397 206.566 649.023 206.566 649.651 206.566C650.28 206.566 650.909 206.566 651.541 206.566C652.172 206.566 652.805 206.566 653.44 206.566C654.075 206.566 654.711 206.566 655.349 206.566C655.987 206.566 656.627 206.566 657.268 206.566C657.909 206.566 658.552 206.566 659.196 206.566C659.841 206.566 660.487 206.566 661.135 206.566C661.783 206.566 662.432 206.566 663.083 206.566C663.734 206.566 664.387 206.566 665.041 206.566C665.696 206.566 666.352 206.566 667.009 206.566C667.667 206.566 668.327 206.566 668.988 206.566C669.649 206.566 670.311 206.566 670.976 206.566C671.64 206.566 672.306 206.566 672.974 206.566C673.641 206.566 674.311 206.566 674.982 206.566C675.653 206.566 676.326 206.566 677 206.566V204.066V201.566C676.326 201.566 675.653 201.566 674.982 201.566C674.311 201.566 673.641 201.566 672.974 201.566C672.306 201.566 671.64 201.566 670.976 201.566C670.311 201.566 669.649 201.566 668.988 201.566C668.327 201.566 667.667 201.566 667.009 201.566C666.352 201.566 665.696 201.566 665.041 201.566C664.387 201.566 663.734 201.566 663.083 201.566C662.432 201.566 661.783 201.566 661.135 201.566C660.487 201.566 659.841 201.566 659.196 201.566C658.552 201.566 657.909 201.566 657.268 201.566C656.627 201.566 655.987 201.566 655.349 201.566C654.711 201.566 654.075 201.566 653.44 201.566C652.805 201.566 652.172 201.566 651.541 201.566C650.909 201.566 650.28 201.566 649.651 201.566C649.023 201.566 648.397 201.566 647.772 201.566C647.147 201.566 646.523 201.566 645.902 201.566C645.28 201.566 644.66 201.566 644.041 201.566C643.423 201.566 642.806 201.566 642.19 201.566C641.575 201.566 640.961 201.566 640.349 201.566C639.737 201.566 639.126 201.566 638.518 201.566C637.909 201.566 637.301 201.566 636.695 201.566C636.09 201.566 635.486 201.566 634.883 201.566C634.28 201.566 633.679 201.566 633.08 201.566C632.48 201.566 631.883 201.566 631.286 201.566C630.69 201.566 630.095 201.566 629.502 201.566C628.909 201.566 628.317 201.566 627.727 201.566C627.137 201.566 626.549 201.566 625.962 201.566C625.375 201.566 624.79 201.566 624.206 201.566C623.622 201.566 623.04 201.566 622.459 201.566C621.879 201.566 621.3 201.566 620.722 201.566C620.144 201.566 619.568 201.566 618.994 201.566C618.419 201.566 617.846 201.566 617.275 201.566C616.704 201.566 616.134 201.566 615.565 201.566C614.997 201.566 614.43 201.566 613.865 201.566C613.3 201.566 612.736 201.566 612.174 201.566C611.612 201.566 611.051 201.566 610.492 201.566C609.932 201.566 609.375 201.566 608.819 201.566C608.263 201.566 607.708 201.566 607.155 201.566C606.602 201.566 606.05 201.566 605.5 201.566C604.95 201.566 604.401 201.566 603.854 201.566C603.307 201.566 602.761 201.566 602.217 201.566C601.673 201.566 601.13 201.566 600.589 201.566C600.048 201.566 599.509 201.566 598.97 201.566C598.432 201.566 597.896 201.566 597.36 201.566C596.825 201.566 596.292 201.566 595.759 201.566C595.227 201.566 594.696 201.566 594.167 201.566C593.638 201.566 593.11 201.566 592.584 201.566C592.057 201.566 591.533 201.566 591.009 201.566C590.486 201.566 589.964 201.566 589.443 201.566C588.923 201.566 588.404 201.566 587.886 201.566C587.369 201.566 586.853 201.566 586.338 201.566C585.823 201.566 585.31 201.566 584.799 201.566C584.287 201.566 583.776 201.566 583.268 201.566C582.759 201.566 582.251 201.566 581.745 201.566C581.239 201.566 580.735 201.566 580.232 201.566C579.729 201.566 579.227 201.566 578.727 201.566C578.227 201.566 577.728 201.566 577.23 201.566C576.733 201.566 576.237 201.566 575.742 201.566C575.248 201.566 574.755 201.566 574.263 201.566C573.771 201.566 573.281 201.566 572.792 201.566C572.303 201.566 571.816 201.566 571.33 201.566C570.843 201.566 570.359 201.566 569.875 201.566C569.392 201.566 568.91 201.566 568.43 201.566C567.949 201.566 567.47 201.566 566.993 201.566C566.515 201.566 566.039 201.566 565.564 201.566C565.089 201.566 564.615 201.566 564.143 201.566C563.671 201.566 563.2 201.566 562.731 201.566C562.261 201.566 561.793 201.566 561.327 201.566C560.86 201.566 560.395 201.566 559.931 201.566C559.467 201.566 559.005 201.566 558.543 201.566C558.082 201.566 557.622 201.566 557.164 201.566C556.706 201.566 556.249 201.566 555.793 201.566C555.337 201.566 554.883 201.566 554.43 201.566C553.977 201.566 553.525 201.566 553.075 201.566C552.625 201.566 552.176 201.566 551.728 201.566C551.28 201.566 550.834 201.566 550.389 201.566C549.944 201.566 549.501 201.566 549.058 201.566C548.616 201.566 548.175 201.566 547.735 201.566C547.296 201.566 546.858 201.566 546.421 201.566C545.984 201.566 545.548 201.566 545.114 201.566C544.679 201.566 544.246 201.566 543.815 201.566C543.383 201.566 542.953 201.566 542.524 201.566C542.094 201.566 541.667 201.566 541.24 201.566C540.814 201.566 540.389 201.566 539.965 201.566C539.541 201.566 539.119 201.566 538.697 201.566C538.276 201.566 537.856 201.566 537.438 201.566C537.019 201.566 536.602 201.566 536.185 201.566C535.769 201.566 535.355 201.566 534.941 201.566C534.528 201.566 534.115 201.566 533.704 201.566C533.293 201.566 532.884 201.566 532.475 201.566C532.067 201.566 531.66 201.566 531.254 201.566C530.848 201.566 530.444 201.566 530.04 201.566C529.637 201.566 529.235 201.566 528.834 201.566C528.433 201.566 528.034 201.566 527.636 201.566C527.237 201.566 526.84 201.566 526.445 201.566C526.049 201.566 525.654 201.566 525.261 201.566C524.868 201.566 524.476 201.566 524.085 201.566C523.694 201.566 523.305 201.566 522.916 201.566C522.528 201.566 522.141 201.566 521.755 201.566C521.369 201.566 520.985 201.566 520.602 201.566C520.218 201.566 519.836 201.566 519.455 201.566C519.074 201.566 518.695 201.566 518.316 201.566C517.938 201.566 517.56 201.566 517.184 201.566C516.808 201.566 516.433 201.566 516.06 201.566C515.686 201.566 515.314 201.566 514.943 201.566C514.572 201.566 514.202 201.566 513.833 201.566C513.464 201.566 513.096 201.566 512.73 201.566C512.364 201.566 511.998 201.566 511.634 201.566C511.27 201.566 510.908 201.566 510.546 201.566C510.184 201.566 509.824 201.566 509.465 201.566C509.105 201.566 508.747 201.566 508.391 201.566C508.034 201.566 507.678 201.566 507.323 201.566C506.969 201.566 506.616 201.566 506.263 201.566C505.911 201.566 505.56 201.566 505.21 201.566C504.86 201.566 504.512 201.566 504.164 201.566C503.817 201.566 503.47 201.566 503.125 201.566C502.78 201.566 502.436 201.566 502.093 201.566C501.75 201.566 501.408 201.566 501.068 201.566C500.727 201.566 500.388 201.566 500.049 201.566C499.711 201.566 499.374 201.566 499.038 201.566C498.702 201.566 498.367 201.566 498.033 201.566C497.699 201.566 497.367 201.566 497.035 201.566C496.704 201.566 496.373 201.566 496.044 201.566C495.715 201.566 495.387 201.566 495.06 201.566C494.733 201.566 494.407 201.566 494.082 201.566C493.757 201.566 493.434 201.566 493.111 201.566C492.789 201.566 492.467 201.566 492.147 201.566C491.827 201.566 491.507 201.566 491.189 201.566C490.871 201.566 490.554 201.566 490.238 201.566C489.922 201.566 489.607 201.566 489.294 201.566C488.98 201.566 488.667 201.566 488.356 201.566C488.044 201.566 487.734 201.566 487.424 201.566C487.115 201.566 486.807 201.566 486.5 201.566C486.192 201.566 485.886 201.566 485.581 201.566C485.276 201.566 484.972 201.566 484.669 201.566C484.366 201.566 484.064 201.566 483.764 201.566C483.463 201.566 483.163 201.566 482.865 201.566C482.566 201.566 482.268 201.566 481.972 201.566C481.675 201.566 481.38 201.566 481.085 201.566C480.791 201.566 480.497 201.566 480.205 201.566C479.913 201.566 479.622 201.566 479.331 201.566C479.041 201.566 478.752 201.566 478.464 201.566C478.176 201.566 477.888 201.566 477.602 201.566C477.316 201.566 477.031 201.566 476.747 201.566C476.463 201.566 476.18 201.566 475.898 201.566C475.616 201.566 475.335 201.566 475.055 201.566C474.775 201.566 474.496 201.566 474.219 201.566C473.941 201.566 473.664 201.566 473.388 201.566C473.112 201.566 472.837 201.566 472.563 201.566C472.29 201.566 472.017 201.566 471.745 201.566C471.473 201.566 471.202 201.566 470.932 201.566C470.663 201.566 470.394 201.566 470.126 201.566C469.858 201.566 469.591 201.566 469.325 201.566C469.059 201.566 468.794 201.566 468.531 201.566C468.267 201.566 468.004 201.566 467.742 201.566C467.48 201.566 467.219 201.566 466.959 201.566C466.699 201.566 466.44 201.566 466.182 201.566C465.924 201.566 465.667 201.566 465.411 201.566C465.155 201.566 464.9 201.566 464.645 201.566C464.391 201.566 464.138 201.566 463.886 201.566C463.633 201.566 463.382 201.566 463.132 201.566C462.881 201.566 462.632 201.566 462.384 201.566C462.135 201.566 461.888 201.566 461.641 201.566C461.395 201.566 461.149 201.566 460.904 201.566C460.66 201.566 460.416 201.566 460.173 201.566C459.93 201.566 459.688 201.566 459.447 201.566C459.206 201.566 458.966 201.566 458.727 201.566C458.488 201.566 458.25 201.566 458.013 201.566C457.776 201.566 457.539 201.566 457.304 201.566C457.069 201.566 456.834 201.566 456.6 201.566C456.367 201.566 456.134 201.566 455.902 201.566C455.671 201.566 455.44 201.566 455.21 201.566C454.98 201.566 454.751 201.566 454.523 201.566C454.295 201.566 454.067 201.566 453.841 201.566C453.615 201.566 453.389 201.566 453.165 201.566C452.94 201.566 452.716 201.566 452.493 201.566C452.271 201.566 452.049 201.566 451.828 201.566C451.607 201.566 451.387 201.566 451.167 201.566C450.948 201.566 450.729 201.566 450.512 201.566C450.294 201.566 450.078 201.566 449.862 201.566C449.646 201.566 449.431 201.566 449.217 201.566C449.003 201.566 448.79 201.566 448.577 201.566C448.365 201.566 448.154 201.566 447.943 201.566C447.732 201.566 447.522 201.566 447.314 201.566C447.105 201.566 446.896 201.566 446.689 201.566C446.482 201.566 446.275 201.566 446.07 201.566C445.864 201.566 445.66 201.566 445.456 201.566C445.252 201.566 445.049 201.566 444.846 201.566C444.644 201.566 444.443 201.566 444.242 201.566C444.042 201.566 443.842 201.566 443.643 201.566C443.444 201.566 443.246 201.566 443.049 201.566C442.851 201.566 442.655 201.566 442.459 201.566C442.263 201.566 442.069 201.566 441.874 201.566C441.68 201.566 441.487 201.566 441.295 201.566C441.102 201.566 440.911 201.566 440.72 201.566C440.529 201.566 440.339 201.566 440.15 201.566C439.96 201.566 439.772 201.566 439.584 201.566C439.396 201.566 439.21 201.566 439.023 201.566C438.837 201.566 438.652 201.566 438.467 201.566C438.283 201.566 438.099 201.566 437.916 201.566C437.733 201.566 437.551 201.566 437.37 201.566C437.188 201.566 437.007 201.566 436.828 201.566C436.648 201.566 436.468 201.566 436.29 201.566C436.112 201.566 435.934 201.566 435.757 201.566C435.58 201.566 435.404 201.566 435.229 201.566C435.054 201.566 434.879 201.566 434.705 201.566C434.531 201.566 434.358 201.566 434.186 201.566C434.013 201.566 433.842 201.566 433.671 201.566C433.5 201.566 433.33 201.566 433.161 201.566C432.991 201.566 432.823 201.566 432.655 201.566C432.487 201.566 432.319 201.566 432.153 201.566C431.986 201.566 431.821 201.566 431.656 201.566C431.491 201.566 431.326 201.566 431.163 201.566C430.999 201.566 430.836 201.566 430.674 201.566C430.512 201.566 430.35 201.566 430.19 201.566C430.029 201.566 429.869 201.566 429.71 201.566C429.55 201.566 429.392 201.566 429.234 201.566C429.076 201.566 428.918 201.566 428.762 201.566C428.605 201.566 428.449 201.566 428.294 201.566C428.139 201.566 427.985 201.566 427.831 201.566C427.677 201.566 427.524 201.566 427.372 201.566C427.219 201.566 427.067 201.566 426.916 201.566C426.765 201.566 426.615 201.566 426.465 201.566C426.315 201.566 426.166 201.566 426.018 201.566C425.87 201.566 425.722 201.566 425.575 201.566C425.428 201.566 425.281 201.566 425.136 201.566C424.99 201.566 424.845 201.566 424.7 201.566C424.556 201.566 424.412 201.566 424.269 201.566C424.126 201.566 423.983 201.566 423.841 201.566C423.7 201.566 423.558 201.566 423.418 201.566C423.277 201.566 423.137 201.566 422.998 201.566C422.859 201.566 422.72 201.566 422.582 201.566C422.444 201.566 422.307 201.566 422.17 201.566C422.033 201.566 421.897 201.566 421.762 201.566C421.626 201.566 421.491 201.566 421.357 201.566C421.223 201.566 421.089 201.566 420.956 201.566C420.823 201.566 420.69 201.566 420.559 201.566C420.427 201.566 420.296 201.566 420.165 201.566C420.034 201.566 419.904 201.566 419.775 201.566C419.645 201.566 419.517 201.566 419.388 201.566C419.26 201.566 419.132 201.566 419.005 201.566C418.878 201.566 418.752 201.566 418.626 201.566C418.5 201.566 418.375 201.566 418.25 201.566C418.125 201.566 418.001 201.566 417.878 201.566C417.754 201.566 417.631 201.566 417.509 201.566C417.386 201.566 417.265 201.566 417.143 201.566C417.022 201.566 416.901 201.566 416.781 201.566C416.661 201.566 416.542 201.566 416.423 201.566C416.304 201.566 416.185 201.566 416.067 201.566C415.949 201.566 415.832 201.566 415.715 201.566C415.598 201.566 415.482 201.566 415.366 201.566C415.251 201.566 415.135 201.566 415.021 201.566C414.906 201.566 414.792 201.566 414.679 201.566C414.565 201.566 414.452 201.566 414.34 201.566C414.227 201.566 414.115 201.566 414.004 201.566C413.892 201.566 413.781 201.566 413.671 201.566C413.561 201.566 413.451 201.566 413.341 201.566C413.232 201.566 413.123 201.566 413.015 201.566C412.906 201.566 412.799 201.566 412.691 201.566C412.584 201.566 412.477 201.566 412.371 201.566C412.265 201.566 412.159 201.566 412.054 201.566C411.948 201.566 411.844 201.566 411.739 201.566C411.635 201.566 411.531 201.566 411.428 201.566C411.325 201.566 411.222 201.566 411.119 201.566C411.017 201.566 410.915 201.566 410.814 201.566C410.712 201.566 410.612 201.566 410.511 201.566C410.411 201.566 410.311 201.566 410.211 201.566C410.112 201.566 410.013 201.566 409.914 201.566C409.816 201.566 409.718 201.566 409.62 201.566C409.523 201.566 409.425 201.566 409.329 201.566C409.232 201.566 409.136 201.566 409.04 201.566C408.944 201.566 408.849 201.566 408.754 201.566C408.659 201.566 408.565 201.566 408.471 201.566C408.377 201.566 408.283 201.566 408.19 201.566C408.097 201.566 408.005 201.566 407.912 201.566C407.82 201.566 407.728 201.566 407.637 201.566C407.546 201.566 407.455 201.566 407.364 201.566C407.274 201.566 407.184 201.566 407.094 201.566C407.004 201.566 406.915 201.566 406.826 201.566C406.738 201.566 406.649 201.566 406.561 201.566C406.473 201.566 406.386 201.566 406.298 201.566C406.211 201.566 406.125 201.566 406.038 201.566C405.952 201.566 405.866 201.566 405.78 201.566C405.695 201.566 405.61 201.566 405.525 201.566C405.44 201.566 405.356 201.566 405.272 201.566C405.188 201.566 405.104 201.566 405.021 201.566C404.938 201.566 404.855 201.566 404.773 201.566C404.69 201.566 404.608 201.566 404.527 201.566C404.445 201.566 404.364 201.566 404.283 201.566C404.202 201.566 404.121 201.566 404.041 201.566C403.961 201.566 403.881 201.566 403.802 201.566C403.722 201.566 403.643 201.566 403.564 201.566C403.486 201.566 403.407 201.566 403.329 201.566C403.251 201.566 403.174 201.566 403.096 201.566C403.019 201.566 402.942 201.566 402.865 201.566C402.789 201.566 402.712 201.566 402.637 201.566C402.561 201.566 402.485 201.566 402.41 201.566C402.334 201.566 402.26 201.566 402.185 201.566C402.11 201.566 402.036 201.566 401.962 201.566C401.888 201.566 401.815 201.566 401.741 201.566C401.668 201.566 401.595 201.566 401.522 201.566C401.45 201.566 401.377 201.566 401.305 201.566C401.233 201.566 401.162 201.566 401.09 201.566C401.019 201.566 400.948 201.566 400.877 201.566C400.806 201.566 400.736 201.566 400.666 201.566C400.595 201.566 400.525 201.566 400.456 201.566C400.386 201.566 400.317 201.566 400.248 201.566C400.179 201.566 400.11 201.566 400.042 201.566C399.973 201.566 399.905 201.566 399.837 201.566C399.77 201.566 399.702 201.566 399.635 201.566C399.567 201.566 399.5 201.566 399.434 201.566C399.367 201.566 399.3 201.566 399.234 201.566C399.168 201.566 399.102 201.566 399.036 201.566C398.97 201.566 398.905 201.566 398.84 201.566C398.775 201.566 398.71 201.566 398.645 201.566C398.58 201.566 398.516 201.566 398.452 201.566C398.388 201.566 398.324 201.566 398.26 201.566C398.197 201.566 398.133 201.566 398.07 201.566C398.007 201.566 397.944 201.566 397.881 201.566C397.818 201.566 397.756 201.566 397.694 201.566C397.632 201.566 397.57 201.566 397.508 201.566C397.446 201.566 397.384 201.566 397.323 201.566C397.262 201.566 397.201 201.566 397.14 201.566C397.079 201.566 397.018 201.566 396.958 201.566C396.897 201.566 396.837 201.566 396.777 201.566C396.717 201.566 396.657 201.566 396.598 201.566C396.538 201.566 396.479 201.566 396.419 201.566C396.36 201.566 396.301 201.566 396.242 201.566C396.183 201.566 396.125 201.566 396.066 201.566C396.008 201.566 395.95 201.566 395.892 201.566C395.834 201.566 395.776 201.566 395.718 201.566C395.66 201.566 395.603 201.566 395.545 201.566C395.488 201.566 395.431 201.566 395.374 201.566C395.317 201.566 395.26 201.566 395.203 201.566C395.147 201.566 395.09 201.566 395.034 201.566C394.978 201.566 394.922 201.566 394.866 201.566C394.81 201.566 394.754 201.566 394.698 201.566C394.642 201.566 394.587 201.566 394.531 201.566C394.476 201.566 394.421 201.566 394.366 201.566C394.311 201.566 394.256 201.566 394.201 201.566C394.146 201.566 394.091 201.566 394.037 201.566C393.982 201.566 393.928 201.566 393.874 201.566C393.819 201.566 393.765 201.566 393.711 201.566C393.657 201.566 393.603 201.566 393.55 201.566C393.496 201.566 393.442 201.566 393.389 201.566C393.335 201.566 393.282 201.566 393.229 201.566C393.175 201.566 393.122 201.566 393.069 201.566C393.016 201.566 392.963 201.566 392.91 201.566C392.857 201.566 392.805 201.566 392.752 201.566C392.699 201.566 392.647 201.566 392.594 201.566C392.542 201.566 392.49 201.566 392.437 201.566C392.385 201.566 392.333 201.566 392.281 201.566C392.229 201.566 392.177 201.566 392.125 201.566C392.073 201.566 392.021 201.566 391.969 201.566C391.918 201.566 391.866 201.566 391.814 201.566C391.763 201.566 391.711 201.566 391.66 201.566C391.608 201.566 391.557 201.566 391.506 201.566C391.454 201.566 391.403 201.566 391.352 201.566C391.3 201.566 391.249 201.566 391.198 201.566C391.147 201.566 391.096 201.566 391.045 201.566C390.994 201.566 390.943 201.566 390.892 201.566C390.841 201.566 390.79 201.566 390.74 201.566C390.689 201.566 390.638 201.566 390.587 201.566C390.537 201.566 390.486 201.566 390.435 201.566C390.385 201.566 390.334 201.566 390.283 201.566C390.233 201.566 390.182 201.566 390.132 201.566C390.081 201.566 390.03 201.566 389.98 201.566C389.929 201.566 389.879 201.566 389.828 201.566C389.778 201.566 389.727 201.566 389.677 201.566C389.626 201.566 389.576 201.566 389.526 201.566C389.475 201.566 389.425 201.566 389.374 201.566C389.324 201.566 389.273 201.566 389.223 201.566C389.172 201.566 389.122 201.566 389.071 201.566C389.021 201.566 388.971 201.566 388.92 201.566C388.87 201.566 388.819 201.566 388.768 201.566C388.718 201.566 388.667 201.566 388.617 201.566C388.566 201.566 388.516 201.566 388.465 201.566C388.414 201.566 388.364 201.566 388.313 201.566C388.262 201.566 388.212 201.566 388.161 201.566C388.11 201.566 388.06 201.566 388.009 201.566C387.958 201.566 387.907 201.566 387.856 201.566C387.805 201.566 387.754 201.566 387.703 201.566C387.652 201.566 387.601 201.566 387.55 201.566C387.499 201.566 387.448 201.566 387.397 201.566C387.345 201.566 387.294 201.566 387.243 201.566C387.191 201.566 387.14 201.566 387.089 201.566C387.037 201.566 386.986 201.566 386.934 201.566C386.882 201.566 386.831 201.566 386.779 201.566C386.727 201.566 386.675 201.566 386.623 201.566C386.571 201.566 386.519 201.566 386.467 201.566C386.415 201.566 386.363 201.566 386.311 201.566C386.259 201.566 386.206 201.566 386.154 201.566C386.101 201.566 386.049 201.566 385.996 201.566C385.943 201.566 385.891 201.566 385.838 201.566C385.785 201.566 385.732 201.566 385.679 201.566C385.626 201.566 385.573 201.566 385.519 201.566C385.466 201.566 385.413 201.566 385.359 201.566C385.306 201.566 385.252 201.566 385.198 201.566C385.144 201.566 385.091 201.566 385.037 201.566C384.983 201.566 384.928 201.566 384.874 201.566C384.82 201.566 384.766 201.566 384.711 201.566C384.656 201.566 384.602 201.566 384.547 201.566C384.492 201.566 384.437 201.566 384.382 201.566C384.327 201.566 384.272 201.566 384.216 201.566C384.161 201.566 384.105 201.566 384.05 201.566C383.994 201.566 383.938 201.566 383.882 201.566C383.826 201.566 383.77 201.566 383.714 201.566C383.657 201.566 383.601 201.566 383.544 201.566C383.487 201.566 383.431 201.566 383.374 201.566C383.317 201.566 383.259 201.566 383.202 201.566C383.145 201.566 383.087 201.566 383.029 201.566C382.972 201.566 382.914 201.566 382.856 201.566C382.798 201.566 382.739 201.566 382.681 201.566C382.623 201.566 382.564 201.566 382.505 201.566C382.446 201.566 382.387 201.566 382.328 201.566C382.269 201.566 382.209 201.566 382.15 201.566C382.09 201.566 382.03 201.566 381.97 201.566C381.91 201.566 381.85 201.566 381.789 201.566C381.729 201.566 381.668 201.566 381.607 201.566C381.546 201.566 381.485 201.566 381.424 201.566C381.362 201.566 381.301 201.566 381.239 201.566C381.177 201.566 381.115 201.566 381.053 201.566C380.991 201.566 380.928 201.566 380.866 201.566C380.803 201.566 380.74 201.566 380.677 201.566C380.613 201.566 380.55 201.566 380.486 201.566C380.423 201.566 380.359 201.566 380.295 201.566C380.23 201.566 380.166 201.566 380.101 201.566C380.037 201.566 379.972 201.566 379.906 201.566C379.841 201.566 379.776 201.566 379.71 201.566C379.644 201.566 379.578 201.566 379.512 201.566C379.446 201.566 379.379 201.566 379.313 201.566C379.246 201.566 379.179 201.566 379.111 201.566C379.044 201.566 378.977 201.566 378.909 201.566C378.841 201.566 378.773 201.566 378.704 201.566C378.636 201.566 378.567 201.566 378.498 201.566C378.429 201.566 378.36 201.566 378.29 201.566C378.22 201.566 378.15 201.566 378.08 201.566C378.01 201.566 377.939 201.566 377.869 201.566C377.798 201.566 377.727 201.566 377.655 201.566C377.584 201.566 377.512 201.566 377.44 201.566C377.368 201.566 377.296 201.566 377.223 201.566C377.15 201.566 377.077 201.566 377.004 201.566C376.931 201.566 376.857 201.566 376.783 201.566C376.709 201.566 376.635 201.566 376.56 201.566C376.486 201.566 376.411 201.566 376.335 201.566C376.26 201.566 376.184 201.566 376.108 201.566C376.032 201.566 375.956 201.566 375.879 201.566C375.803 201.566 375.726 201.566 375.648 201.566C375.571 201.566 375.493 201.566 375.415 201.566C375.337 201.566 375.259 201.566 375.18 201.566C375.101 201.566 375.022 201.566 374.943 201.566C374.863 201.566 374.783 201.566 374.703 201.566C374.623 201.566 374.542 201.566 374.461 201.566C374.381 201.566 374.299 201.566 374.217 201.566C374.136 201.566 374.054 201.566 373.971 201.566C373.889 201.566 373.806 201.566 373.723 201.566C373.639 201.566 373.556 201.566 373.472 201.566C373.388 201.566 373.303 201.566 373.219 201.566C373.134 201.566 373.049 201.566 372.963 201.566C372.878 201.566 372.792 201.566 372.705 201.566C372.619 201.566 372.532 201.566 372.445 201.566C372.358 201.566 372.27 201.566 372.182 201.566C372.094 201.566 372.006 201.566 371.917 201.566C371.828 201.566 371.739 201.566 371.649 201.566C371.559 201.566 371.469 201.566 371.379 201.566C371.288 201.566 371.197 201.566 371.106 201.566C371.014 201.566 370.923 201.566 370.83 201.566C370.738 201.566 370.645 201.566 370.552 201.566C370.459 201.566 370.366 201.566 370.272 201.566C370.178 201.566 370.083 201.566 369.988 201.566C369.893 201.566 369.798 201.566 369.702 201.566C369.606 201.566 369.51 201.566 369.413 201.566C369.317 201.566 369.219 201.566 369.122 201.566C369.024 201.566 368.926 201.566 368.827 201.566C368.729 201.566 368.63 201.566 368.53 201.566C368.431 201.566 368.331 201.566 368.23 201.566C368.13 201.566 368.029 201.566 367.928 201.566C367.826 201.566 367.724 201.566 367.622 201.566C367.52 201.566 367.417 201.566 367.313 201.566C367.21 201.566 367.106 201.566 367.002 201.566C366.897 201.566 366.793 201.566 366.687 201.566C366.582 201.566 366.476 201.566 366.37 201.566C366.263 201.566 366.157 201.566 366.049 201.566C365.942 201.566 365.834 201.566 365.726 201.566C365.617 201.566 365.508 201.566 365.399 201.566C365.29 201.566 365.18 201.566 365.069 201.566C364.959 201.566 364.848 201.566 364.736 201.566C364.625 201.566 364.513 201.566 364.4 201.566C364.288 201.566 364.175 201.566 364.061 201.566C363.948 201.566 363.833 201.566 363.719 201.566C363.604 201.566 363.489 201.566 363.373 201.566C363.257 201.566 363.141 201.566 363.024 201.566C362.907 201.566 362.79 201.566 362.672 201.566C362.554 201.566 362.435 201.566 362.316 201.566C362.197 201.566 362.078 201.566 361.958 201.566C361.837 201.566 361.717 201.566 361.595 201.566C361.474 201.566 361.352 201.566 361.23 201.566C361.107 201.566 360.984 201.566 360.861 201.566C360.737 201.566 360.613 201.566 360.488 201.566C360.363 201.566 360.238 201.566 360.112 201.566C359.986 201.566 359.86 201.566 359.732 201.566C359.605 201.566 359.478 201.566 359.349 201.566C359.221 201.566 359.092 201.566 358.963 201.566C358.833 201.566 358.703 201.566 358.573 201.566C358.442 201.566 358.311 201.566 358.179 201.566C358.047 201.566 357.914 201.566 357.781 201.566C357.648 201.566 357.514 201.566 357.38 201.566C357.246 201.566 357.111 201.566 356.975 201.566C356.84 201.566 356.703 201.566 356.567 201.566C356.43 201.566 356.292 201.566 356.154 201.566C356.016 201.566 355.877 201.566 355.738 201.566C355.599 201.566 355.459 201.566 355.318 201.566V204.066Z" fill="white" fill-opacity="0.1"/>
</svg>
