<svg width="40" height="40" viewBox="0 0 40 40" fill="none" xmlns="http://www.w3.org/2000/svg">
<rect width="40" height="40" rx="12" fill="#0C2141"/>
<path d="M27.9535 22.5329L27.8543 22.4449C26.3468 20.9374 26.3468 18.4929 27.8543 16.9854L27.9594 16.8922C28.0787 16.7983 28.192 16.6977 28.2994 16.5911C29.8068 15.0836 29.8068 12.6391 28.2994 11.1316C26.7919 9.62418 24.3474 9.62418 22.84 11.1316C22.7333 11.239 22.6327 11.3523 22.5387 11.4716L22.4455 11.5767C20.9381 13.0841 18.4936 13.0841 16.9861 11.5767L16.8981 11.4775C15.5823 9.80086 13.1556 9.50713 11.4782 10.823C9.80081 12.1388 9.50707 14.5655 10.8229 16.2429C10.9191 16.3652 11.022 16.4822 11.1323 16.5918C11.2412 16.7006 11.3567 16.8028 11.4782 16.8975L11.5774 16.9854C13.0848 18.4929 13.0848 20.9374 11.5774 22.4449L11.4723 22.5381C11.353 22.632 11.2397 22.7326 11.1323 22.8392C9.62487 24.3467 9.62487 26.7912 11.1323 28.2986C12.6397 29.8061 15.0843 29.8061 16.5917 28.2986C16.6983 28.1914 16.799 28.078 16.8929 27.9587L16.9861 27.8536C18.4936 26.3462 20.9381 26.3462 22.4455 27.8536L22.5335 27.9527C22.6282 28.0743 22.7303 28.1898 22.8391 28.2986C24.3466 29.8061 26.7912 29.8061 28.2986 28.2986C29.8061 26.7912 29.8061 24.3467 28.2986 22.8392C28.1897 22.7304 28.0742 22.6282 27.9527 22.5336L27.9535 22.5329ZM23.4043 23.4029H16.0274V16.0259H23.4043V23.4029Z" fill="#F8F8F8"/>
</svg>
