<svg width="49" height="48" viewBox="0 0 49 48" fill="none" xmlns="http://www.w3.org/2000/svg">
<path fill-rule="evenodd" clip-rule="evenodd" d="M24.109 3.36004C24.3491 3.21332 24.6511 3.21332 24.8912 3.36004L42.8912 14.36C43.2446 14.576 43.356 15.0376 43.14 15.3911C42.9241 15.7445 42.4624 15.856 42.109 15.64L24.5001 4.87896L6.89119 15.64C6.53775 15.856 6.07614 15.7445 5.86014 15.3911C5.64415 15.0376 5.75558 14.576 6.10902 14.36L24.109 3.36004ZM10.5001 19.25C10.9143 19.25 11.2501 19.5858 11.2501 20V42.8C11.2501 42.9193 11.2975 43.0338 11.3819 43.1182C11.4663 43.2026 11.5807 43.25 11.7001 43.25H37.3001C37.4194 43.25 37.5339 43.2026 37.6183 43.1182C37.7027 43.0338 37.7501 42.9193 37.7501 42.8V20C37.7501 19.5858 38.0859 19.25 38.5001 19.25C38.9143 19.25 39.2501 19.5858 39.2501 20V42.8C39.2501 43.3172 39.0446 43.8132 38.6789 44.1789C38.3132 44.5446 37.8173 44.75 37.3001 44.75H11.7001C11.1829 44.75 10.6869 44.5446 10.3213 44.1789C9.95555 43.8132 9.75011 43.3172 9.75011 42.8V20C9.75011 19.5858 10.0859 19.25 10.5001 19.25Z" fill="#02070D"/>
<path fill-rule="evenodd" clip-rule="evenodd" d="M20.416 20C20.416 19.5858 20.7518 19.25 21.166 19.25H27.834C28.2482 19.25 28.584 19.5858 28.584 20V23.916H32.5C32.9142 23.916 33.25 24.2518 33.25 24.666V31.334C33.25 31.7482 32.9142 32.084 32.5 32.084H28.584V36C28.584 36.4142 28.2482 36.75 27.834 36.75H21.166C20.7518 36.75 20.416 36.4142 20.416 36V32.084H16.5C16.0858 32.084 15.75 31.7482 15.75 31.334V24.666C15.75 24.2518 16.0858 23.916 16.5 23.916H20.416V20ZM21.916 20.75V24.666C21.916 25.0802 21.5802 25.416 21.166 25.416H17.25V30.584H21.166C21.5802 30.584 21.916 30.9198 21.916 31.334V35.25H27.084V31.334C27.084 30.9198 27.4198 30.584 27.834 30.584H31.75V25.416H27.834C27.4198 25.416 27.084 25.0802 27.084 24.666V20.75H21.916Z" fill="#02070D"/>
</svg>
