<svg width="723" height="354" viewBox="0 0 723 354" fill="none" xmlns="http://www.w3.org/2000/svg">
<path d="M2.29714 191.642C1.75231 190.374 0.282185 189.787 -0.986489 190.332C-2.25516 190.876 -2.84196 192.347 -2.29714 193.615L0 192.629L2.29714 191.642ZM14.3182 225.97L12.021 226.957L12.671 228.47H14.3182V225.97ZM77.7273 225.97L79.8192 224.601L79.079 223.47H77.7273V225.97ZM106.364 269.731L104.272 271.099L108.149 277.024L108.851 269.979L106.364 269.731ZM132.955 3L135.445 2.78044C135.332 1.49528 134.259 0.507411 132.969 0.500041C131.679 0.492671 130.595 1.46822 130.467 2.752L132.955 3ZM163.636 351L161.146 351.22C161.257 352.48 162.292 353.458 163.556 353.499C164.82 353.539 165.916 352.629 166.107 351.379L163.636 351ZM184.091 217.635V215.135H181.945L181.62 217.256L184.091 217.635ZM259.773 217.635V220.135H261.037L261.786 219.117L259.773 217.635ZM376.364 217.635L373.887 217.977L374.185 220.135H376.364V217.635ZM720 220.135C721.381 220.135 722.5 219.015 722.5 217.635C722.5 216.254 721.381 215.135 720 215.135V217.635V220.135ZM0 192.629L-2.29714 193.615L12.021 226.957L14.3182 225.97L16.6153 224.984L2.29714 191.642L0 192.629ZM14.3182 225.97V228.47H77.7273V225.97V223.47H14.3182V225.97ZM77.7273 225.97L75.6354 227.339L104.272 271.099L106.364 269.731L108.456 268.362L79.8192 224.601L77.7273 225.97ZM106.364 269.731L108.851 269.979L135.442 3.248L132.955 3L130.467 2.752L103.876 269.483L106.364 269.731ZM132.955 3L130.464 3.21956L161.146 351.22L163.636 351L166.127 350.78L135.445 2.78044L132.955 3ZM163.636 351L166.107 351.379L186.562 218.014L184.091 217.635L181.62 217.256L161.165 350.621L163.636 351ZM184.091 217.635V220.135H259.773V217.635V215.135H184.091V217.635ZM259.773 217.635L261.786 219.117C269.893 208.105 280.246 196.006 291.419 185.716C302.629 175.393 314.492 167.051 325.613 163.325C336.618 159.637 346.619 160.524 354.828 168.199C363.255 176.077 370.23 191.481 373.887 217.977L376.364 217.635L378.84 217.293C375.134 190.442 367.944 173.616 358.243 164.546C348.324 155.273 336.234 154.493 324.024 158.584C311.928 162.637 299.451 171.522 288.032 182.038C276.578 192.586 266.016 204.937 257.759 216.153L259.773 217.635ZM376.364 217.635V220.135C376.514 220.135 376.663 220.135 376.812 220.135C376.961 220.135 377.109 220.135 377.257 220.135C377.404 220.135 377.551 220.135 377.697 220.135C377.843 220.135 377.989 220.135 378.134 220.135C378.279 220.135 378.423 220.135 378.566 220.135C378.71 220.135 378.853 220.135 378.995 220.135C379.137 220.135 379.278 220.135 379.419 220.135C379.56 220.135 379.7 220.135 379.84 220.135C379.98 220.135 380.119 220.135 380.257 220.135C380.395 220.135 380.533 220.135 380.67 220.135C380.807 220.135 380.943 220.135 381.079 220.135C381.215 220.135 381.35 220.135 381.485 220.135C381.619 220.135 381.753 220.135 381.886 220.135C382.02 220.135 382.152 220.135 382.284 220.135C382.416 220.135 382.548 220.135 382.679 220.135C382.809 220.135 382.94 220.135 383.069 220.135C383.199 220.135 383.328 220.135 383.456 220.135C383.585 220.135 383.712 220.135 383.839 220.135C383.967 220.135 384.093 220.135 384.219 220.135C384.345 220.135 384.471 220.135 384.596 220.135C384.72 220.135 384.845 220.135 384.968 220.135C385.092 220.135 385.215 220.135 385.338 220.135C385.46 220.135 385.582 220.135 385.703 220.135C385.825 220.135 385.945 220.135 386.066 220.135C386.186 220.135 386.306 220.135 386.425 220.135C386.544 220.135 386.662 220.135 386.78 220.135C386.898 220.135 387.016 220.135 387.132 220.135C387.249 220.135 387.366 220.135 387.481 220.135C387.597 220.135 387.712 220.135 387.827 220.135C387.942 220.135 388.056 220.135 388.169 220.135C388.283 220.135 388.396 220.135 388.509 220.135C388.621 220.135 388.733 220.135 388.845 220.135C388.956 220.135 389.067 220.135 389.177 220.135C389.288 220.135 389.398 220.135 389.507 220.135C389.616 220.135 389.725 220.135 389.834 220.135C389.942 220.135 390.05 220.135 390.157 220.135C390.264 220.135 390.371 220.135 390.478 220.135C390.584 220.135 390.69 220.135 390.795 220.135C390.9 220.135 391.005 220.135 391.109 220.135C391.214 220.135 391.317 220.135 391.421 220.135C391.524 220.135 391.627 220.135 391.729 220.135C391.832 220.135 391.933 220.135 392.035 220.135C392.136 220.135 392.237 220.135 392.338 220.135C392.438 220.135 392.538 220.135 392.637 220.135C392.737 220.135 392.836 220.135 392.934 220.135C393.033 220.135 393.131 220.135 393.229 220.135C393.326 220.135 393.424 220.135 393.52 220.135C393.617 220.135 393.713 220.135 393.809 220.135C393.905 220.135 394 220.135 394.095 220.135C394.19 220.135 394.284 220.135 394.378 220.135C394.472 220.135 394.566 220.135 394.659 220.135C394.752 220.135 394.845 220.135 394.937 220.135C395.03 220.135 395.121 220.135 395.213 220.135C395.304 220.135 395.395 220.135 395.486 220.135C395.576 220.135 395.667 220.135 395.756 220.135C395.846 220.135 395.935 220.135 396.024 220.135C396.113 220.135 396.202 220.135 396.29 220.135C396.378 220.135 396.466 220.135 396.553 220.135C396.64 220.135 396.727 220.135 396.813 220.135C396.9 220.135 396.986 220.135 397.072 220.135C397.157 220.135 397.243 220.135 397.328 220.135C397.412 220.135 397.497 220.135 397.581 220.135C397.665 220.135 397.749 220.135 397.832 220.135C397.916 220.135 397.999 220.135 398.081 220.135C398.164 220.135 398.246 220.135 398.328 220.135C398.41 220.135 398.492 220.135 398.573 220.135C398.654 220.135 398.735 220.135 398.815 220.135C398.896 220.135 398.976 220.135 399.055 220.135C399.135 220.135 399.214 220.135 399.293 220.135C399.372 220.135 399.451 220.135 399.529 220.135C399.608 220.135 399.686 220.135 399.763 220.135C399.841 220.135 399.918 220.135 399.995 220.135C400.072 220.135 400.149 220.135 400.225 220.135C400.301 220.135 400.377 220.135 400.453 220.135C400.529 220.135 400.604 220.135 400.679 220.135C400.754 220.135 400.829 220.135 400.903 220.135C400.978 220.135 401.052 220.135 401.125 220.135C401.199 220.135 401.273 220.135 401.346 220.135C401.419 220.135 401.492 220.135 401.564 220.135C401.637 220.135 401.709 220.135 401.781 220.135C401.853 220.135 401.924 220.135 401.996 220.135C402.067 220.135 402.138 220.135 402.209 220.135C402.28 220.135 402.35 220.135 402.42 220.135C402.491 220.135 402.56 220.135 402.63 220.135C402.7 220.135 402.769 220.135 402.838 220.135C402.907 220.135 402.976 220.135 403.045 220.135C403.113 220.135 403.181 220.135 403.25 220.135C403.318 220.135 403.385 220.135 403.453 220.135C403.52 220.135 403.588 220.135 403.655 220.135C403.722 220.135 403.788 220.135 403.855 220.135C403.921 220.135 403.988 220.135 404.054 220.135C404.12 220.135 404.185 220.135 404.251 220.135C404.316 220.135 404.382 220.135 404.447 220.135C404.512 220.135 404.577 220.135 404.641 220.135C404.706 220.135 404.77 220.135 404.834 220.135C404.899 220.135 404.963 220.135 405.026 220.135C405.09 220.135 405.153 220.135 405.217 220.135C405.28 220.135 405.343 220.135 405.406 220.135C405.469 220.135 405.531 220.135 405.594 220.135C405.656 220.135 405.719 220.135 405.781 220.135C405.843 220.135 405.905 220.135 405.966 220.135C406.028 220.135 406.089 220.135 406.151 220.135C406.212 220.135 406.273 220.135 406.334 220.135C406.395 220.135 406.455 220.135 406.516 220.135C406.576 220.135 406.637 220.135 406.697 220.135C406.757 220.135 406.817 220.135 406.877 220.135C406.937 220.135 406.997 220.135 407.056 220.135C407.116 220.135 407.175 220.135 407.234 220.135C407.293 220.135 407.352 220.135 407.411 220.135C407.47 220.135 407.529 220.135 407.587 220.135C407.646 220.135 407.704 220.135 407.762 220.135C407.821 220.135 407.879 220.135 407.937 220.135C407.995 220.135 408.053 220.135 408.11 220.135C408.168 220.135 408.226 220.135 408.283 220.135C408.34 220.135 408.398 220.135 408.455 220.135C408.512 220.135 408.569 220.135 408.626 220.135C408.683 220.135 408.74 220.135 408.796 220.135C408.853 220.135 408.91 220.135 408.966 220.135C409.023 220.135 409.079 220.135 409.135 220.135C409.191 220.135 409.248 220.135 409.304 220.135C409.36 220.135 409.416 220.135 409.471 220.135C409.527 220.135 409.583 220.135 409.639 220.135C409.694 220.135 409.75 220.135 409.805 220.135C409.861 220.135 409.916 220.135 409.971 220.135C410.027 220.135 410.082 220.135 410.137 220.135C410.192 220.135 410.247 220.135 410.302 220.135C410.357 220.135 410.412 220.135 410.467 220.135C410.522 220.135 410.577 220.135 410.631 220.135C410.686 220.135 410.741 220.135 410.795 220.135C410.85 220.135 410.904 220.135 410.959 220.135C411.013 220.135 411.068 220.135 411.122 220.135C411.177 220.135 411.231 220.135 411.285 220.135C411.34 220.135 411.394 220.135 411.448 220.135C411.502 220.135 411.556 220.135 411.61 220.135C411.665 220.135 411.719 220.135 411.773 220.135C411.827 220.135 411.881 220.135 411.935 220.135C411.989 220.135 412.043 220.135 412.097 220.135C412.151 220.135 412.205 220.135 412.259 220.135C412.313 220.135 412.367 220.135 412.421 220.135C412.474 220.135 412.528 220.135 412.582 220.135C412.636 220.135 412.69 220.135 412.744 220.135C412.798 220.135 412.852 220.135 412.906 220.135C412.96 220.135 413.013 220.135 413.067 220.135C413.121 220.135 413.175 220.135 413.229 220.135C413.283 220.135 413.337 220.135 413.391 220.135C413.445 220.135 413.499 220.135 413.553 220.135C413.607 220.135 413.661 220.135 413.715 220.135C413.769 220.135 413.823 220.135 413.877 220.135C413.931 220.135 413.986 220.135 414.04 220.135C414.094 220.135 414.148 220.135 414.203 220.135C414.257 220.135 414.311 220.135 414.366 220.135C414.42 220.135 414.474 220.135 414.529 220.135C414.583 220.135 414.638 220.135 414.692 220.135C414.747 220.135 414.802 220.135 414.856 220.135C414.911 220.135 414.966 220.135 415.021 220.135C415.076 220.135 415.13 220.135 415.185 220.135C415.24 220.135 415.295 220.135 415.351 220.135C415.406 220.135 415.461 220.135 415.516 220.135C415.572 220.135 415.627 220.135 415.682 220.135C415.738 220.135 415.793 220.135 415.849 220.135C415.905 220.135 415.96 220.135 416.016 220.135C416.072 220.135 416.128 220.135 416.184 220.135C416.24 220.135 416.296 220.135 416.352 220.135C416.409 220.135 416.465 220.135 416.521 220.135C416.578 220.135 416.634 220.135 416.691 220.135C416.748 220.135 416.805 220.135 416.861 220.135C416.918 220.135 416.975 220.135 417.033 220.135C417.09 220.135 417.147 220.135 417.204 220.135C417.262 220.135 417.319 220.135 417.377 220.135C417.435 220.135 417.493 220.135 417.551 220.135C417.608 220.135 417.667 220.135 417.725 220.135C417.783 220.135 417.841 220.135 417.9 220.135C417.959 220.135 418.017 220.135 418.076 220.135C418.135 220.135 418.194 220.135 418.253 220.135C418.312 220.135 418.372 220.135 418.431 220.135C418.491 220.135 418.55 220.135 418.61 220.135C418.67 220.135 418.73 220.135 418.79 220.135C418.85 220.135 418.91 220.135 418.971 220.135C419.032 220.135 419.092 220.135 419.153 220.135C419.214 220.135 419.275 220.135 419.336 220.135C419.398 220.135 419.459 220.135 419.521 220.135C419.582 220.135 419.644 220.135 419.706 220.135C419.768 220.135 419.83 220.135 419.893 220.135C419.955 220.135 420.018 220.135 420.081 220.135C420.144 220.135 420.207 220.135 420.27 220.135C420.333 220.135 420.397 220.135 420.46 220.135C420.524 220.135 420.588 220.135 420.652 220.135C420.716 220.135 420.78 220.135 420.845 220.135C420.91 220.135 420.974 220.135 421.04 220.135C421.105 220.135 421.17 220.135 421.235 220.135C421.301 220.135 421.367 220.135 421.433 220.135C421.499 220.135 421.565 220.135 421.631 220.135C421.698 220.135 421.764 220.135 421.831 220.135C421.898 220.135 421.966 220.135 422.033 220.135C422.101 220.135 422.168 220.135 422.236 220.135C422.304 220.135 422.373 220.135 422.441 220.135C422.51 220.135 422.579 220.135 422.648 220.135C422.717 220.135 422.786 220.135 422.856 220.135C422.925 220.135 422.995 220.135 423.065 220.135C423.135 220.135 423.206 220.135 423.277 220.135C423.347 220.135 423.418 220.135 423.49 220.135C423.561 220.135 423.633 220.135 423.705 220.135C423.776 220.135 423.849 220.135 423.921 220.135C423.994 220.135 424.066 220.135 424.14 220.135C424.213 220.135 424.286 220.135 424.36 220.135C424.434 220.135 424.508 220.135 424.582 220.135C424.656 220.135 424.731 220.135 424.806 220.135C424.881 220.135 424.956 220.135 425.032 220.135C425.107 220.135 425.183 220.135 425.26 220.135C425.336 220.135 425.412 220.135 425.489 220.135C425.566 220.135 425.644 220.135 425.721 220.135C425.799 220.135 425.877 220.135 425.955 220.135C426.033 220.135 426.112 220.135 426.191 220.135C426.27 220.135 426.349 220.135 426.429 220.135C426.509 220.135 426.589 220.135 426.669 220.135C426.75 220.135 426.83 220.135 426.911 220.135C426.993 220.135 427.074 220.135 427.156 220.135C427.238 220.135 427.32 220.135 427.403 220.135C427.485 220.135 427.568 220.135 427.651 220.135C427.735 220.135 427.819 220.135 427.903 220.135C427.987 220.135 428.071 220.135 428.156 220.135C428.241 220.135 428.326 220.135 428.412 220.135C428.497 220.135 428.584 220.135 428.67 220.135C428.756 220.135 428.843 220.135 428.931 220.135C429.018 220.135 429.105 220.135 429.193 220.135C429.281 220.135 429.37 220.135 429.459 220.135C429.548 220.135 429.637 220.135 429.727 220.135C429.816 220.135 429.906 220.135 429.997 220.135C430.088 220.135 430.178 220.135 430.27 220.135C430.361 220.135 430.453 220.135 430.545 220.135C430.638 220.135 430.73 220.135 430.823 220.135C430.916 220.135 431.01 220.135 431.104 220.135C431.198 220.135 431.292 220.135 431.387 220.135C431.482 220.135 431.577 220.135 431.673 220.135C431.769 220.135 431.865 220.135 431.962 220.135C432.058 220.135 432.156 220.135 432.253 220.135C432.351 220.135 432.449 220.135 432.547 220.135C432.646 220.135 432.745 220.135 432.844 220.135C432.944 220.135 433.044 220.135 433.144 220.135C433.244 220.135 433.345 220.135 433.447 220.135C433.548 220.135 433.65 220.135 433.752 220.135C433.854 220.135 433.957 220.135 434.06 220.135C434.164 220.135 434.267 220.135 434.372 220.135C434.476 220.135 434.581 220.135 434.686 220.135C434.791 220.135 434.897 220.135 435.003 220.135C435.109 220.135 435.216 220.135 435.323 220.135C435.431 220.135 435.539 220.135 435.647 220.135C435.755 220.135 435.864 220.135 435.973 220.135C436.083 220.135 436.192 220.135 436.303 220.135C436.413 220.135 436.524 220.135 436.635 220.135C436.747 220.135 436.859 220.135 436.971 220.135C437.084 220.135 437.197 220.135 437.31 220.135C437.424 220.135 437.538 220.135 437.652 220.135C437.767 220.135 437.882 220.135 437.998 220.135C438.114 220.135 438.23 220.135 438.347 220.135C438.464 220.135 438.581 220.135 438.699 220.135C438.817 220.135 438.935 220.135 439.054 220.135C439.173 220.135 439.293 220.135 439.413 220.135C439.533 220.135 439.654 220.135 439.775 220.135C439.897 220.135 440.018 220.135 440.141 220.135C440.263 220.135 440.386 220.135 440.51 220.135C440.634 220.135 440.758 220.135 440.883 220.135C441.007 220.135 441.133 220.135 441.259 220.135C441.385 220.135 441.511 220.135 441.638 220.135C441.765 220.135 441.893 220.135 442.022 220.135C442.15 220.135 442.279 220.135 442.408 220.135C442.538 220.135 442.668 220.135 442.799 220.135C442.93 220.135 443.061 220.135 443.193 220.135C443.325 220.135 443.457 220.135 443.591 220.135C443.724 220.135 443.858 220.135 443.992 220.135C444.127 220.135 444.262 220.135 444.397 220.135C444.533 220.135 444.67 220.135 444.807 220.135C444.943 220.135 445.081 220.135 445.219 220.135C445.358 220.135 445.497 220.135 445.636 220.135C445.776 220.135 445.916 220.135 446.057 220.135C446.197 220.135 446.339 220.135 446.481 220.135C446.623 220.135 446.766 220.135 446.909 220.135C447.053 220.135 447.197 220.135 447.342 220.135C447.486 220.135 447.632 220.135 447.778 220.135C447.924 220.135 448.071 220.135 448.218 220.135C448.366 220.135 448.514 220.135 448.663 220.135C448.811 220.135 448.961 220.135 449.111 220.135C449.261 220.135 449.412 220.135 449.564 220.135C449.715 220.135 449.867 220.135 450.02 220.135C450.173 220.135 450.327 220.135 450.481 220.135C450.635 220.135 450.79 220.135 450.946 220.135C451.102 220.135 451.258 220.135 451.415 220.135C451.572 220.135 451.73 220.135 451.889 220.135C452.047 220.135 452.206 220.135 452.366 220.135C452.526 220.135 452.687 220.135 452.848 220.135C453.01 220.135 453.172 220.135 453.335 220.135C453.497 220.135 453.661 220.135 453.825 220.135C453.99 220.135 454.155 220.135 454.32 220.135C454.486 220.135 454.653 220.135 454.82 220.135C454.987 220.135 455.155 220.135 455.324 220.135C455.492 220.135 455.662 220.135 455.832 220.135C456.002 220.135 456.173 220.135 456.345 220.135C456.517 220.135 456.689 220.135 456.862 220.135C457.036 220.135 457.21 220.135 457.384 220.135C457.559 220.135 457.735 220.135 457.911 220.135C458.087 220.135 458.264 220.135 458.442 220.135C458.62 220.135 458.799 220.135 458.978 220.135C459.158 220.135 459.338 220.135 459.519 220.135C459.7 220.135 459.881 220.135 460.064 220.135C460.246 220.135 460.43 220.135 460.614 220.135C460.798 220.135 460.983 220.135 461.169 220.135C461.354 220.135 461.541 220.135 461.728 220.135C461.916 220.135 462.104 220.135 462.293 220.135C462.482 220.135 462.671 220.135 462.862 220.135C463.052 220.135 463.244 220.135 463.436 220.135C463.628 220.135 463.821 220.135 464.015 220.135C464.209 220.135 464.403 220.135 464.599 220.135C464.794 220.135 464.991 220.135 465.188 220.135C465.385 220.135 465.583 220.135 465.782 220.135C465.981 220.135 466.18 220.135 466.381 220.135C466.581 220.135 466.782 220.135 466.985 220.135C467.187 220.135 467.39 220.135 467.594 220.135C467.798 220.135 468.002 220.135 468.208 220.135C468.414 220.135 468.62 220.135 468.827 220.135C469.035 220.135 469.243 220.135 469.452 220.135C469.661 220.135 469.871 220.135 470.081 220.135C470.292 220.135 470.504 220.135 470.716 220.135C470.929 220.135 471.142 220.135 471.357 220.135C471.571 220.135 471.786 220.135 472.002 220.135C472.218 220.135 472.435 220.135 472.653 220.135C472.871 220.135 473.089 220.135 473.309 220.135C473.529 220.135 473.749 220.135 473.971 220.135C474.192 220.135 474.414 220.135 474.638 220.135C474.861 220.135 475.085 220.135 475.31 220.135C475.535 220.135 475.761 220.135 475.988 220.135C476.215 220.135 476.442 220.135 476.671 220.135C476.9 220.135 477.129 220.135 477.36 220.135C477.59 220.135 477.822 220.135 478.054 220.135C478.287 220.135 478.52 220.135 478.754 220.135C478.989 220.135 479.224 220.135 479.46 220.135C479.696 220.135 479.933 220.135 480.171 220.135C480.409 220.135 480.648 220.135 480.888 220.135C481.128 220.135 481.369 220.135 481.611 220.135C481.852 220.135 482.095 220.135 482.339 220.135C482.583 220.135 482.827 220.135 483.073 220.135C483.319 220.135 483.565 220.135 483.813 220.135C484.06 220.135 484.309 220.135 484.558 220.135C484.808 220.135 485.058 220.135 485.31 220.135C485.561 220.135 485.814 220.135 486.067 220.135C486.321 220.135 486.575 220.135 486.83 220.135C487.086 220.135 487.342 220.135 487.6 220.135C487.857 220.135 488.115 220.135 488.375 220.135C488.634 220.135 488.895 220.135 489.156 220.135C489.417 220.135 489.68 220.135 489.943 220.135C490.206 220.135 490.471 220.135 490.736 220.135C491.002 220.135 491.268 220.135 491.535 220.135C491.803 220.135 492.071 220.135 492.341 220.135C492.61 220.135 492.881 220.135 493.152 220.135C493.424 220.135 493.696 220.135 493.97 220.135C494.243 220.135 494.518 220.135 494.794 220.135C495.069 220.135 495.346 220.135 495.624 220.135C495.902 220.135 496.18 220.135 496.46 220.135C496.74 220.135 497.021 220.135 497.303 220.135C497.585 220.135 497.868 220.135 498.152 220.135C498.436 220.135 498.721 220.135 499.007 220.135C499.293 220.135 499.58 220.135 499.868 220.135C500.157 220.135 500.446 220.135 500.736 220.135C501.027 220.135 501.318 220.135 501.611 220.135C501.903 220.135 502.197 220.135 502.492 220.135C502.786 220.135 503.082 220.135 503.379 220.135C503.676 220.135 503.974 220.135 504.273 220.135C504.572 220.135 504.872 220.135 505.173 220.135C505.474 220.135 505.777 220.135 506.08 220.135C506.383 220.135 506.688 220.135 506.994 220.135C507.299 220.135 507.606 220.135 507.914 220.135C508.222 220.135 508.53 220.135 508.841 220.135C509.151 220.135 509.462 220.135 509.774 220.135C510.086 220.135 510.4 220.135 510.714 220.135C511.029 220.135 511.344 220.135 511.661 220.135C511.978 220.135 512.296 220.135 512.615 220.135C512.934 220.135 513.254 220.135 513.575 220.135C513.897 220.135 514.219 220.135 514.543 220.135C514.866 220.135 515.191 220.135 515.517 220.135C515.843 220.135 516.17 220.135 516.498 220.135C516.826 220.135 517.156 220.135 517.486 220.135C517.817 220.135 518.148 220.135 518.481 220.135C518.814 220.135 519.148 220.135 519.483 220.135C519.818 220.135 520.154 220.135 520.492 220.135C520.829 220.135 521.168 220.135 521.508 220.135C521.848 220.135 522.189 220.135 522.531 220.135C522.873 220.135 523.216 220.135 523.561 220.135C523.905 220.135 524.251 220.135 524.598 220.135C524.945 220.135 525.293 220.135 525.643 220.135C525.992 220.135 526.342 220.135 526.694 220.135C527.046 220.135 527.399 220.135 527.753 220.135C528.107 220.135 528.462 220.135 528.819 220.135C529.175 220.135 529.533 220.135 529.892 220.135C530.251 220.135 530.611 220.135 530.973 220.135C531.334 220.135 531.697 220.135 532.06 220.135C532.424 220.135 532.789 220.135 533.156 220.135C533.522 220.135 533.89 220.135 534.258 220.135C534.627 220.135 534.997 220.135 535.368 220.135C535.74 220.135 536.112 220.135 536.486 220.135C536.859 220.135 537.234 220.135 537.611 220.135C537.987 220.135 538.364 220.135 538.743 220.135C539.122 220.135 539.502 220.135 539.883 220.135C540.264 220.135 540.647 220.135 541.031 220.135C541.414 220.135 541.799 220.135 542.186 220.135C542.572 220.135 542.959 220.135 543.348 220.135C543.737 220.135 544.127 220.135 544.519 220.135C544.91 220.135 545.303 220.135 545.697 220.135C546.091 220.135 546.486 220.135 546.882 220.135C547.279 220.135 547.677 220.135 548.076 220.135C548.475 220.135 548.875 220.135 549.277 220.135C549.679 220.135 550.082 220.135 550.486 220.135C550.89 220.135 551.296 220.135 551.703 220.135C552.11 220.135 552.518 220.135 552.927 220.135C553.337 220.135 553.748 220.135 554.16 220.135C554.572 220.135 554.986 220.135 555.4 220.135C555.815 220.135 556.231 220.135 556.649 220.135C557.066 220.135 557.485 220.135 557.905 220.135C558.325 220.135 558.747 220.135 559.169 220.135C559.592 220.135 560.016 220.135 560.442 220.135C560.867 220.135 561.294 220.135 561.722 220.135C562.15 220.135 562.58 220.135 563.01 220.135C563.441 220.135 563.873 220.135 564.307 220.135C564.741 220.135 565.175 220.135 565.612 220.135C566.048 220.135 566.486 220.135 566.925 220.135C567.364 220.135 567.804 220.135 568.246 220.135C568.687 220.135 569.13 220.135 569.575 220.135C570.019 220.135 570.465 220.135 570.912 220.135C571.36 220.135 571.808 220.135 572.258 220.135C572.708 220.135 573.16 220.135 573.612 220.135C574.065 220.135 574.519 220.135 574.975 220.135C575.43 220.135 575.887 220.135 576.346 220.135C576.804 220.135 577.264 220.135 577.725 220.135C578.186 220.135 578.649 220.135 579.112 220.135C579.576 220.135 580.042 220.135 580.509 220.135C580.975 220.135 581.444 220.135 581.913 220.135C582.383 220.135 582.854 220.135 583.326 220.135C583.799 220.135 584.273 220.135 584.748 220.135C585.223 220.135 585.7 220.135 586.178 220.135C586.656 220.135 587.136 220.135 587.617 220.135C588.098 220.135 588.581 220.135 589.064 220.135C589.548 220.135 590.034 220.135 590.521 220.135C591.007 220.135 591.496 220.135 591.985 220.135C592.475 220.135 592.966 220.135 593.459 220.135C593.951 220.135 594.446 220.135 594.941 220.135C595.437 220.135 595.934 220.135 596.432 220.135C596.931 220.135 597.431 220.135 597.932 220.135C598.433 220.135 598.936 220.135 599.441 220.135C599.945 220.135 600.451 220.135 600.958 220.135C601.466 220.135 601.974 220.135 602.485 220.135C602.995 220.135 603.507 220.135 604.02 220.135C604.533 220.135 605.048 220.135 605.564 220.135C606.081 220.135 606.598 220.135 607.118 220.135C607.637 220.135 608.158 220.135 608.68 220.135C609.202 220.135 609.726 220.135 610.251 220.135C610.776 220.135 611.303 220.135 611.832 220.135C612.36 220.135 612.89 220.135 613.421 220.135C613.952 220.135 614.485 220.135 615.02 220.135C615.554 220.135 616.09 220.135 616.627 220.135C617.165 220.135 617.704 220.135 618.244 220.135C618.785 220.135 619.327 220.135 619.87 220.135C620.414 220.135 620.959 220.135 621.506 220.135C622.053 220.135 622.601 220.135 623.151 220.135C623.7 220.135 624.252 220.135 624.805 220.135C625.357 220.135 625.912 220.135 626.468 220.135C627.024 220.135 627.581 220.135 628.14 220.135C628.7 220.135 629.26 220.135 629.822 220.135C630.385 220.135 630.948 220.135 631.514 220.135C632.079 220.135 632.646 220.135 633.215 220.135C633.783 220.135 634.353 220.135 634.925 220.135C635.497 220.135 636.07 220.135 636.645 220.135C637.22 220.135 637.796 220.135 638.374 220.135C638.952 220.135 639.532 220.135 640.113 220.135C640.695 220.135 641.277 220.135 641.862 220.135C642.446 220.135 643.032 220.135 643.62 220.135C644.208 220.135 644.797 220.135 645.388 220.135C645.979 220.135 646.571 220.135 647.165 220.135C647.759 220.135 648.355 220.135 648.953 220.135C649.55 220.135 650.149 220.135 650.749 220.135C651.35 220.135 651.952 220.135 652.556 220.135C653.16 220.135 653.765 220.135 654.373 220.135C654.98 220.135 655.589 220.135 656.199 220.135C656.809 220.135 657.421 220.135 658.035 220.135C658.649 220.135 659.264 220.135 659.881 220.135C660.498 220.135 661.117 220.135 661.737 220.135C662.357 220.135 662.979 220.135 663.603 220.135C664.227 220.135 664.852 220.135 665.479 220.135C666.106 220.135 666.734 220.135 667.365 220.135C667.995 220.135 668.627 220.135 669.26 220.135C669.894 220.135 670.529 220.135 671.166 220.135C671.803 220.135 672.442 220.135 673.082 220.135C673.723 220.135 674.365 220.135 675.008 220.135C675.652 220.135 676.298 220.135 676.945 220.135C677.592 220.135 678.241 220.135 678.891 220.135C679.542 220.135 680.194 220.135 680.848 220.135C681.502 220.135 682.157 220.135 682.815 220.135C683.472 220.135 684.131 220.135 684.792 220.135C685.452 220.135 686.115 220.135 686.779 220.135C687.443 220.135 688.109 220.135 688.777 220.135C689.444 220.135 690.114 220.135 690.785 220.135C691.456 220.135 692.129 220.135 692.803 220.135C693.478 220.135 694.154 220.135 694.832 220.135C695.51 220.135 696.19 220.135 696.871 220.135C697.553 220.135 698.236 220.135 698.921 220.135C699.606 220.135 700.293 220.135 700.981 220.135C701.67 220.135 702.36 220.135 703.052 220.135C703.744 220.135 704.438 220.135 705.133 220.135C705.829 220.135 706.526 220.135 707.225 220.135C707.924 220.135 708.625 220.135 709.328 220.135C710.03 220.135 710.735 220.135 711.441 220.135C712.147 220.135 712.855 220.135 713.564 220.135C714.274 220.135 714.986 220.135 715.699 220.135C716.412 220.135 717.127 220.135 717.844 220.135C718.561 220.135 719.28 220.135 720 220.135V217.635V215.135C719.28 215.135 718.561 215.135 717.844 215.135C717.127 215.135 716.412 215.135 715.699 215.135C714.986 215.135 714.274 215.135 713.564 215.135C712.855 215.135 712.147 215.135 711.441 215.135C710.735 215.135 710.03 215.135 709.328 215.135C708.625 215.135 707.924 215.135 707.225 215.135C706.526 215.135 705.829 215.135 705.133 215.135C704.438 215.135 703.744 215.135 703.052 215.135C702.36 215.135 701.67 215.135 700.981 215.135C700.293 215.135 699.606 215.135 698.921 215.135C698.236 215.135 697.553 215.135 696.871 215.135C696.19 215.135 695.51 215.135 694.832 215.135C694.154 215.135 693.478 215.135 692.803 215.135C692.129 215.135 691.456 215.135 690.785 215.135C690.114 215.135 689.444 215.135 688.777 215.135C688.109 215.135 687.443 215.135 686.779 215.135C686.115 215.135 685.452 215.135 684.792 215.135C684.131 215.135 683.472 215.135 682.815 215.135C682.157 215.135 681.502 215.135 680.848 215.135C680.194 215.135 679.542 215.135 678.891 215.135C678.241 215.135 677.592 215.135 676.945 215.135C676.298 215.135 675.652 215.135 675.008 215.135C674.365 215.135 673.723 215.135 673.082 215.135C672.442 215.135 671.803 215.135 671.166 215.135C670.529 215.135 669.894 215.135 669.26 215.135C668.627 215.135 667.995 215.135 667.365 215.135C666.734 215.135 666.106 215.135 665.479 215.135C664.852 215.135 664.227 215.135 663.603 215.135C662.979 215.135 662.357 215.135 661.737 215.135C661.117 215.135 660.498 215.135 659.881 215.135C659.264 215.135 658.649 215.135 658.035 215.135C657.421 215.135 656.809 215.135 656.199 215.135C655.589 215.135 654.98 215.135 654.373 215.135C653.765 215.135 653.16 215.135 652.556 215.135C651.952 215.135 651.35 215.135 650.749 215.135C650.149 215.135 649.55 215.135 648.953 215.135C648.355 215.135 647.759 215.135 647.165 215.135C646.571 215.135 645.979 215.135 645.388 215.135C644.797 215.135 644.208 215.135 643.62 215.135C643.032 215.135 642.446 215.135 641.862 215.135C641.277 215.135 640.695 215.135 640.113 215.135C639.532 215.135 638.952 215.135 638.374 215.135C637.796 215.135 637.22 215.135 636.645 215.135C636.07 215.135 635.497 215.135 634.925 215.135C634.353 215.135 633.783 215.135 633.215 215.135C632.646 215.135 632.079 215.135 631.514 215.135C630.948 215.135 630.385 215.135 629.822 215.135C629.26 215.135 628.7 215.135 628.14 215.135C627.581 215.135 627.024 215.135 626.468 215.135C625.912 215.135 625.357 215.135 624.805 215.135C624.252 215.135 623.7 215.135 623.151 215.135C622.601 215.135 622.053 215.135 621.506 215.135C620.959 215.135 620.414 215.135 619.87 215.135C619.327 215.135 618.785 215.135 618.244 215.135C617.704 215.135 617.165 215.135 616.627 215.135C616.09 215.135 615.554 215.135 615.02 215.135C614.485 215.135 613.952 215.135 613.421 215.135C612.89 215.135 612.36 215.135 611.832 215.135C611.303 215.135 610.776 215.135 610.251 215.135C609.726 215.135 609.202 215.135 608.68 215.135C608.158 215.135 607.637 215.135 607.118 215.135C606.598 215.135 606.081 215.135 605.564 215.135C605.048 215.135 604.533 215.135 604.02 215.135C603.507 215.135 602.995 215.135 602.485 215.135C601.974 215.135 601.466 215.135 600.958 215.135C600.451 215.135 599.945 215.135 599.441 215.135C598.936 215.135 598.433 215.135 597.932 215.135C597.431 215.135 596.931 215.135 596.432 215.135C595.934 215.135 595.437 215.135 594.941 215.135C594.446 215.135 593.951 215.135 593.459 215.135C592.966 215.135 592.475 215.135 591.985 215.135C591.496 215.135 591.007 215.135 590.521 215.135C590.034 215.135 589.548 215.135 589.064 215.135C588.581 215.135 588.098 215.135 587.617 215.135C587.136 215.135 586.656 215.135 586.178 215.135C585.7 215.135 585.223 215.135 584.748 215.135C584.273 215.135 583.799 215.135 583.326 215.135C582.854 215.135 582.383 215.135 581.913 215.135C581.444 215.135 580.975 215.135 580.509 215.135C580.042 215.135 579.576 215.135 579.112 215.135C578.649 215.135 578.186 215.135 577.725 215.135C577.264 215.135 576.804 215.135 576.346 215.135C575.887 215.135 575.43 215.135 574.975 215.135C574.519 215.135 574.065 215.135 573.612 215.135C573.16 215.135 572.708 215.135 572.258 215.135C571.808 215.135 571.36 215.135 570.912 215.135C570.465 215.135 570.019 215.135 569.575 215.135C569.13 215.135 568.687 215.135 568.246 215.135C567.804 215.135 567.364 215.135 566.925 215.135C566.486 215.135 566.048 215.135 565.612 215.135C565.175 215.135 564.741 215.135 564.307 215.135C563.873 215.135 563.441 215.135 563.01 215.135C562.58 215.135 562.15 215.135 561.722 215.135C561.294 215.135 560.867 215.135 560.442 215.135C560.016 215.135 559.592 215.135 559.169 215.135C558.747 215.135 558.325 215.135 557.905 215.135C557.485 215.135 557.066 215.135 556.649 215.135C556.231 215.135 555.815 215.135 555.4 215.135C554.986 215.135 554.572 215.135 554.16 215.135C553.748 215.135 553.337 215.135 552.927 215.135C552.518 215.135 552.11 215.135 551.703 215.135C551.296 215.135 550.89 215.135 550.486 215.135C550.082 215.135 549.679 215.135 549.277 215.135C548.875 215.135 548.475 215.135 548.076 215.135C547.677 215.135 547.279 215.135 546.882 215.135C546.486 215.135 546.091 215.135 545.697 215.135C545.303 215.135 544.91 215.135 544.519 215.135C544.127 215.135 543.737 215.135 543.348 215.135C542.959 215.135 542.572 215.135 542.186 215.135C541.799 215.135 541.414 215.135 541.031 215.135C540.647 215.135 540.264 215.135 539.883 215.135C539.502 215.135 539.122 215.135 538.743 215.135C538.364 215.135 537.987 215.135 537.611 215.135C537.234 215.135 536.859 215.135 536.486 215.135C536.112 215.135 535.74 215.135 535.368 215.135C534.997 215.135 534.627 215.135 534.258 215.135C533.89 215.135 533.522 215.135 533.156 215.135C532.789 215.135 532.424 215.135 532.06 215.135C531.697 215.135 531.334 215.135 530.973 215.135C530.611 215.135 530.251 215.135 529.892 215.135C529.533 215.135 529.175 215.135 528.819 215.135C528.462 215.135 528.107 215.135 527.753 215.135C527.399 215.135 527.046 215.135 526.694 215.135C526.342 215.135 525.992 215.135 525.643 215.135C525.293 215.135 524.945 215.135 524.598 215.135C524.251 215.135 523.905 215.135 523.561 215.135C523.216 215.135 522.873 215.135 522.531 215.135C522.189 215.135 521.848 215.135 521.508 215.135C521.168 215.135 520.829 215.135 520.492 215.135C520.154 215.135 519.818 215.135 519.483 215.135C519.148 215.135 518.814 215.135 518.481 215.135C518.148 215.135 517.817 215.135 517.486 215.135C517.156 215.135 516.826 215.135 516.498 215.135C516.17 215.135 515.843 215.135 515.517 215.135C515.191 215.135 514.866 215.135 514.543 215.135C514.219 215.135 513.897 215.135 513.575 215.135C513.254 215.135 512.934 215.135 512.615 215.135C512.296 215.135 511.978 215.135 511.661 215.135C511.344 215.135 511.029 215.135 510.714 215.135C510.4 215.135 510.086 215.135 509.774 215.135C509.462 215.135 509.151 215.135 508.841 215.135C508.53 215.135 508.222 215.135 507.914 215.135C507.606 215.135 507.299 215.135 506.994 215.135C506.688 215.135 506.383 215.135 506.08 215.135C505.777 215.135 505.474 215.135 505.173 215.135C504.872 215.135 504.572 215.135 504.273 215.135C503.974 215.135 503.676 215.135 503.379 215.135C503.082 215.135 502.786 215.135 502.492 215.135C502.197 215.135 501.903 215.135 501.611 215.135C501.318 215.135 501.027 215.135 500.736 215.135C500.446 215.135 500.157 215.135 499.868 215.135C499.58 215.135 499.293 215.135 499.007 215.135C498.721 215.135 498.436 215.135 498.152 215.135C497.868 215.135 497.585 215.135 497.303 215.135C497.021 215.135 496.74 215.135 496.46 215.135C496.18 215.135 495.902 215.135 495.624 215.135C495.346 215.135 495.069 215.135 494.794 215.135C494.518 215.135 494.243 215.135 493.97 215.135C493.696 215.135 493.424 215.135 493.152 215.135C492.881 215.135 492.61 215.135 492.341 215.135C492.071 215.135 491.803 215.135 491.535 215.135C491.268 215.135 491.002 215.135 490.736 215.135C490.471 215.135 490.206 215.135 489.943 215.135C489.68 215.135 489.417 215.135 489.156 215.135C488.895 215.135 488.634 215.135 488.375 215.135C488.115 215.135 487.857 215.135 487.6 215.135C487.342 215.135 487.086 215.135 486.83 215.135C486.575 215.135 486.321 215.135 486.067 215.135C485.814 215.135 485.561 215.135 485.31 215.135C485.058 215.135 484.808 215.135 484.558 215.135C484.309 215.135 484.06 215.135 483.813 215.135C483.565 215.135 483.319 215.135 483.073 215.135C482.827 215.135 482.583 215.135 482.339 215.135C482.095 215.135 481.852 215.135 481.611 215.135C481.369 215.135 481.128 215.135 480.888 215.135C480.648 215.135 480.409 215.135 480.171 215.135C479.933 215.135 479.696 215.135 479.46 215.135C479.224 215.135 478.989 215.135 478.754 215.135C478.52 215.135 478.287 215.135 478.054 215.135C477.822 215.135 477.59 215.135 477.36 215.135C477.129 215.135 476.9 215.135 476.671 215.135C476.442 215.135 476.215 215.135 475.988 215.135C475.761 215.135 475.535 215.135 475.31 215.135C475.085 215.135 474.861 215.135 474.638 215.135C474.414 215.135 474.192 215.135 473.971 215.135C473.749 215.135 473.529 215.135 473.309 215.135C473.089 215.135 472.871 215.135 472.653 215.135C472.435 215.135 472.218 215.135 472.002 215.135C471.786 215.135 471.571 215.135 471.357 215.135C471.142 215.135 470.929 215.135 470.716 215.135C470.504 215.135 470.292 215.135 470.081 215.135C469.871 215.135 469.661 215.135 469.452 215.135C469.243 215.135 469.035 215.135 468.827 215.135C468.62 215.135 468.414 215.135 468.208 215.135C468.002 215.135 467.798 215.135 467.594 215.135C467.39 215.135 467.187 215.135 466.985 215.135C466.782 215.135 466.581 215.135 466.381 215.135C466.18 215.135 465.981 215.135 465.782 215.135C465.583 215.135 465.385 215.135 465.188 215.135C464.991 215.135 464.794 215.135 464.599 215.135C464.403 215.135 464.209 215.135 464.015 215.135C463.821 215.135 463.628 215.135 463.436 215.135C463.244 215.135 463.052 215.135 462.862 215.135C462.671 215.135 462.482 215.135 462.293 215.135C462.104 215.135 461.916 215.135 461.728 215.135C461.541 215.135 461.354 215.135 461.169 215.135C460.983 215.135 460.798 215.135 460.614 215.135C460.43 215.135 460.246 215.135 460.064 215.135C459.881 215.135 459.7 215.135 459.519 215.135C459.338 215.135 459.158 215.135 458.978 215.135C458.799 215.135 458.62 215.135 458.442 215.135C458.264 215.135 458.087 215.135 457.911 215.135C457.735 215.135 457.559 215.135 457.384 215.135C457.21 215.135 457.036 215.135 456.862 215.135C456.689 215.135 456.517 215.135 456.345 215.135C456.173 215.135 456.002 215.135 455.832 215.135C455.662 215.135 455.492 215.135 455.324 215.135C455.155 215.135 454.987 215.135 454.82 215.135C454.653 215.135 454.486 215.135 454.32 215.135C454.155 215.135 453.99 215.135 453.825 215.135C453.661 215.135 453.497 215.135 453.335 215.135C453.172 215.135 453.01 215.135 452.848 215.135C452.687 215.135 452.526 215.135 452.366 215.135C452.206 215.135 452.047 215.135 451.889 215.135C451.73 215.135 451.572 215.135 451.415 215.135C451.258 215.135 451.102 215.135 450.946 215.135C450.79 215.135 450.635 215.135 450.481 215.135C450.327 215.135 450.173 215.135 450.02 215.135C449.867 215.135 449.715 215.135 449.564 215.135C449.412 215.135 449.261 215.135 449.111 215.135C448.961 215.135 448.811 215.135 448.663 215.135C448.514 215.135 448.366 215.135 448.218 215.135C448.071 215.135 447.924 215.135 447.778 215.135C447.632 215.135 447.486 215.135 447.342 215.135C447.197 215.135 447.053 215.135 446.909 215.135C446.766 215.135 446.623 215.135 446.481 215.135C446.339 215.135 446.197 215.135 446.057 215.135C445.916 215.135 445.776 215.135 445.636 215.135C445.497 215.135 445.358 215.135 445.219 215.135C445.081 215.135 444.943 215.135 444.807 215.135C444.67 215.135 444.533 215.135 444.397 215.135C444.262 215.135 444.127 215.135 443.992 215.135C443.858 215.135 443.724 215.135 443.591 215.135C443.457 215.135 443.325 215.135 443.193 215.135C443.061 215.135 442.93 215.135 442.799 215.135C442.668 215.135 442.538 215.135 442.408 215.135C442.279 215.135 442.15 215.135 442.022 215.135C441.893 215.135 441.765 215.135 441.638 215.135C441.511 215.135 441.385 215.135 441.259 215.135C441.133 215.135 441.007 215.135 440.883 215.135C440.758 215.135 440.634 215.135 440.51 215.135C440.386 215.135 440.263 215.135 440.141 215.135C440.018 215.135 439.897 215.135 439.775 215.135C439.654 215.135 439.533 215.135 439.413 215.135C439.293 215.135 439.173 215.135 439.054 215.135C438.935 215.135 438.817 215.135 438.699 215.135C438.581 215.135 438.464 215.135 438.347 215.135C438.23 215.135 438.114 215.135 437.998 215.135C437.882 215.135 437.767 215.135 437.652 215.135C437.538 215.135 437.424 215.135 437.31 215.135C437.197 215.135 437.084 215.135 436.971 215.135C436.859 215.135 436.747 215.135 436.635 215.135C436.524 215.135 436.413 215.135 436.303 215.135C436.192 215.135 436.083 215.135 435.973 215.135C435.864 215.135 435.755 215.135 435.647 215.135C435.539 215.135 435.431 215.135 435.323 215.135C435.216 215.135 435.109 215.135 435.003 215.135C434.897 215.135 434.791 215.135 434.686 215.135C434.581 215.135 434.476 215.135 434.372 215.135C434.267 215.135 434.164 215.135 434.06 215.135C433.957 215.135 433.854 215.135 433.752 215.135C433.65 215.135 433.548 215.135 433.447 215.135C433.345 215.135 433.244 215.135 433.144 215.135C433.044 215.135 432.944 215.135 432.844 215.135C432.745 215.135 432.646 215.135 432.547 215.135C432.449 215.135 432.351 215.135 432.253 215.135C432.156 215.135 432.058 215.135 431.962 215.135C431.865 215.135 431.769 215.135 431.673 215.135C431.577 215.135 431.482 215.135 431.387 215.135C431.292 215.135 431.198 215.135 431.104 215.135C431.01 215.135 430.916 215.135 430.823 215.135C430.73 215.135 430.638 215.135 430.545 215.135C430.453 215.135 430.361 215.135 430.27 215.135C430.178 215.135 430.088 215.135 429.997 215.135C429.906 215.135 429.816 215.135 429.727 215.135C429.637 215.135 429.548 215.135 429.459 215.135C429.37 215.135 429.281 215.135 429.193 215.135C429.105 215.135 429.018 215.135 428.931 215.135C428.843 215.135 428.756 215.135 428.67 215.135C428.584 215.135 428.497 215.135 428.412 215.135C428.326 215.135 428.241 215.135 428.156 215.135C428.071 215.135 427.987 215.135 427.903 215.135C427.819 215.135 427.735 215.135 427.651 215.135C427.568 215.135 427.485 215.135 427.403 215.135C427.32 215.135 427.238 215.135 427.156 215.135C427.074 215.135 426.993 215.135 426.911 215.135C426.83 215.135 426.75 215.135 426.669 215.135C426.589 215.135 426.509 215.135 426.429 215.135C426.349 215.135 426.27 215.135 426.191 215.135C426.112 215.135 426.033 215.135 425.955 215.135C425.877 215.135 425.799 215.135 425.721 215.135C425.644 215.135 425.566 215.135 425.489 215.135C425.412 215.135 425.336 215.135 425.26 215.135C425.183 215.135 425.107 215.135 425.032 215.135C424.956 215.135 424.881 215.135 424.806 215.135C424.731 215.135 424.656 215.135 424.582 215.135C424.508 215.135 424.434 215.135 424.36 215.135C424.286 215.135 424.213 215.135 424.14 215.135C424.066 215.135 423.994 215.135 423.921 215.135C423.849 215.135 423.776 215.135 423.705 215.135C423.633 215.135 423.561 215.135 423.49 215.135C423.418 215.135 423.347 215.135 423.277 215.135C423.206 215.135 423.135 215.135 423.065 215.135C422.995 215.135 422.925 215.135 422.856 215.135C422.786 215.135 422.717 215.135 422.648 215.135C422.579 215.135 422.51 215.135 422.441 215.135C422.373 215.135 422.304 215.135 422.236 215.135C422.168 215.135 422.101 215.135 422.033 215.135C421.966 215.135 421.898 215.135 421.831 215.135C421.764 215.135 421.698 215.135 421.631 215.135C421.565 215.135 421.499 215.135 421.433 215.135C421.367 215.135 421.301 215.135 421.235 215.135C421.17 215.135 421.105 215.135 421.04 215.135C420.974 215.135 420.91 215.135 420.845 215.135C420.78 215.135 420.716 215.135 420.652 215.135C420.588 215.135 420.524 215.135 420.46 215.135C420.397 215.135 420.333 215.135 420.27 215.135C420.207 215.135 420.144 215.135 420.081 215.135C420.018 215.135 419.955 215.135 419.893 215.135C419.83 215.135 419.768 215.135 419.706 215.135C419.644 215.135 419.582 215.135 419.521 215.135C419.459 215.135 419.398 215.135 419.336 215.135C419.275 215.135 419.214 215.135 419.153 215.135C419.092 215.135 419.032 215.135 418.971 215.135C418.91 215.135 418.85 215.135 418.79 215.135C418.73 215.135 418.67 215.135 418.61 215.135C418.55 215.135 418.491 215.135 418.431 215.135C418.372 215.135 418.312 215.135 418.253 215.135C418.194 215.135 418.135 215.135 418.076 215.135C418.017 215.135 417.959 215.135 417.9 215.135C417.841 215.135 417.783 215.135 417.725 215.135C417.667 215.135 417.608 215.135 417.551 215.135C417.493 215.135 417.435 215.135 417.377 215.135C417.319 215.135 417.262 215.135 417.204 215.135C417.147 215.135 417.09 215.135 417.033 215.135C416.975 215.135 416.918 215.135 416.861 215.135C416.805 215.135 416.748 215.135 416.691 215.135C416.634 215.135 416.578 215.135 416.521 215.135C416.465 215.135 416.409 215.135 416.352 215.135C416.296 215.135 416.24 215.135 416.184 215.135C416.128 215.135 416.072 215.135 416.016 215.135C415.96 215.135 415.905 215.135 415.849 215.135C415.793 215.135 415.738 215.135 415.682 215.135C415.627 215.135 415.572 215.135 415.516 215.135C415.461 215.135 415.406 215.135 415.351 215.135C415.295 215.135 415.24 215.135 415.185 215.135C415.13 215.135 415.076 215.135 415.021 215.135C414.966 215.135 414.911 215.135 414.856 215.135C414.802 215.135 414.747 215.135 414.692 215.135C414.638 215.135 414.583 215.135 414.529 215.135C414.474 215.135 414.42 215.135 414.366 215.135C414.311 215.135 414.257 215.135 414.203 215.135C414.148 215.135 414.094 215.135 414.04 215.135C413.986 215.135 413.931 215.135 413.877 215.135C413.823 215.135 413.769 215.135 413.715 215.135C413.661 215.135 413.607 215.135 413.553 215.135C413.499 215.135 413.445 215.135 413.391 215.135C413.337 215.135 413.283 215.135 413.229 215.135C413.175 215.135 413.121 215.135 413.067 215.135C413.013 215.135 412.96 215.135 412.906 215.135C412.852 215.135 412.798 215.135 412.744 215.135C412.69 215.135 412.636 215.135 412.582 215.135C412.528 215.135 412.474 215.135 412.421 215.135C412.367 215.135 412.313 215.135 412.259 215.135C412.205 215.135 412.151 215.135 412.097 215.135C412.043 215.135 411.989 215.135 411.935 215.135C411.881 215.135 411.827 215.135 411.773 215.135C411.719 215.135 411.665 215.135 411.61 215.135C411.556 215.135 411.502 215.135 411.448 215.135C411.394 215.135 411.34 215.135 411.285 215.135C411.231 215.135 411.177 215.135 411.122 215.135C411.068 215.135 411.013 215.135 410.959 215.135C410.904 215.135 410.85 215.135 410.795 215.135C410.741 215.135 410.686 215.135 410.631 215.135C410.577 215.135 410.522 215.135 410.467 215.135C410.412 215.135 410.357 215.135 410.302 215.135C410.247 215.135 410.192 215.135 410.137 215.135C410.082 215.135 410.027 215.135 409.971 215.135C409.916 215.135 409.861 215.135 409.805 215.135C409.75 215.135 409.694 215.135 409.639 215.135C409.583 215.135 409.527 215.135 409.471 215.135C409.416 215.135 409.36 215.135 409.304 215.135C409.248 215.135 409.191 215.135 409.135 215.135C409.079 215.135 409.023 215.135 408.966 215.135C408.91 215.135 408.853 215.135 408.796 215.135C408.74 215.135 408.683 215.135 408.626 215.135C408.569 215.135 408.512 215.135 408.455 215.135C408.398 215.135 408.34 215.135 408.283 215.135C408.226 215.135 408.168 215.135 408.11 215.135C408.053 215.135 407.995 215.135 407.937 215.135C407.879 215.135 407.821 215.135 407.762 215.135C407.704 215.135 407.646 215.135 407.587 215.135C407.529 215.135 407.47 215.135 407.411 215.135C407.352 215.135 407.293 215.135 407.234 215.135C407.175 215.135 407.116 215.135 407.056 215.135C406.997 215.135 406.937 215.135 406.877 215.135C406.817 215.135 406.757 215.135 406.697 215.135C406.637 215.135 406.576 215.135 406.516 215.135C406.455 215.135 406.395 215.135 406.334 215.135C406.273 215.135 406.212 215.135 406.151 215.135C406.089 215.135 406.028 215.135 405.966 215.135C405.905 215.135 405.843 215.135 405.781 215.135C405.719 215.135 405.656 215.135 405.594 215.135C405.531 215.135 405.469 215.135 405.406 215.135C405.343 215.135 405.28 215.135 405.217 215.135C405.153 215.135 405.09 215.135 405.026 215.135C404.963 215.135 404.899 215.135 404.834 215.135C404.77 215.135 404.706 215.135 404.641 215.135C404.577 215.135 404.512 215.135 404.447 215.135C404.382 215.135 404.316 215.135 404.251 215.135C404.185 215.135 404.12 215.135 404.054 215.135C403.988 215.135 403.921 215.135 403.855 215.135C403.788 215.135 403.722 215.135 403.655 215.135C403.588 215.135 403.52 215.135 403.453 215.135C403.385 215.135 403.318 215.135 403.25 215.135C403.181 215.135 403.113 215.135 403.045 215.135C402.976 215.135 402.907 215.135 402.838 215.135C402.769 215.135 402.7 215.135 402.63 215.135C402.56 215.135 402.491 215.135 402.42 215.135C402.35 215.135 402.28 215.135 402.209 215.135C402.138 215.135 402.067 215.135 401.996 215.135C401.924 215.135 401.853 215.135 401.781 215.135C401.709 215.135 401.637 215.135 401.564 215.135C401.492 215.135 401.419 215.135 401.346 215.135C401.273 215.135 401.199 215.135 401.125 215.135C401.052 215.135 400.978 215.135 400.903 215.135C400.829 215.135 400.754 215.135 400.679 215.135C400.604 215.135 400.529 215.135 400.453 215.135C400.377 215.135 400.301 215.135 400.225 215.135C400.149 215.135 400.072 215.135 399.995 215.135C399.918 215.135 399.841 215.135 399.763 215.135C399.686 215.135 399.608 215.135 399.529 215.135C399.451 215.135 399.372 215.135 399.293 215.135C399.214 215.135 399.135 215.135 399.055 215.135C398.976 215.135 398.896 215.135 398.815 215.135C398.735 215.135 398.654 215.135 398.573 215.135C398.492 215.135 398.41 215.135 398.328 215.135C398.246 215.135 398.164 215.135 398.081 215.135C397.999 215.135 397.916 215.135 397.832 215.135C397.749 215.135 397.665 215.135 397.581 215.135C397.497 215.135 397.412 215.135 397.328 215.135C397.243 215.135 397.157 215.135 397.072 215.135C396.986 215.135 396.9 215.135 396.813 215.135C396.727 215.135 396.64 215.135 396.553 215.135C396.466 215.135 396.378 215.135 396.29 215.135C396.202 215.135 396.113 215.135 396.024 215.135C395.935 215.135 395.846 215.135 395.756 215.135C395.667 215.135 395.576 215.135 395.486 215.135C395.395 215.135 395.304 215.135 395.213 215.135C395.121 215.135 395.03 215.135 394.937 215.135C394.845 215.135 394.752 215.135 394.659 215.135C394.566 215.135 394.472 215.135 394.378 215.135C394.284 215.135 394.19 215.135 394.095 215.135C394 215.135 393.905 215.135 393.809 215.135C393.713 215.135 393.617 215.135 393.52 215.135C393.424 215.135 393.326 215.135 393.229 215.135C393.131 215.135 393.033 215.135 392.934 215.135C392.836 215.135 392.737 215.135 392.637 215.135C392.538 215.135 392.438 215.135 392.338 215.135C392.237 215.135 392.136 215.135 392.035 215.135C391.933 215.135 391.832 215.135 391.729 215.135C391.627 215.135 391.524 215.135 391.421 215.135C391.317 215.135 391.214 215.135 391.109 215.135C391.005 215.135 390.9 215.135 390.795 215.135C390.69 215.135 390.584 215.135 390.478 215.135C390.371 215.135 390.264 215.135 390.157 215.135C390.05 215.135 389.942 215.135 389.834 215.135C389.725 215.135 389.616 215.135 389.507 215.135C389.398 215.135 389.288 215.135 389.177 215.135C389.067 215.135 388.956 215.135 388.845 215.135C388.733 215.135 388.621 215.135 388.509 215.135C388.396 215.135 388.283 215.135 388.169 215.135C388.056 215.135 387.942 215.135 387.827 215.135C387.712 215.135 387.597 215.135 387.481 215.135C387.366 215.135 387.249 215.135 387.132 215.135C387.016 215.135 386.898 215.135 386.78 215.135C386.662 215.135 386.544 215.135 386.425 215.135C386.306 215.135 386.186 215.135 386.066 215.135C385.945 215.135 385.825 215.135 385.703 215.135C385.582 215.135 385.46 215.135 385.338 215.135C385.215 215.135 385.092 215.135 384.968 215.135C384.845 215.135 384.72 215.135 384.596 215.135C384.471 215.135 384.345 215.135 384.219 215.135C384.093 215.135 383.967 215.135 383.839 215.135C383.712 215.135 383.585 215.135 383.456 215.135C383.328 215.135 383.199 215.135 383.069 215.135C382.94 215.135 382.809 215.135 382.679 215.135C382.548 215.135 382.416 215.135 382.284 215.135C382.152 215.135 382.02 215.135 381.886 215.135C381.753 215.135 381.619 215.135 381.485 215.135C381.35 215.135 381.215 215.135 381.079 215.135C380.943 215.135 380.807 215.135 380.67 215.135C380.533 215.135 380.395 215.135 380.257 215.135C380.119 215.135 379.98 215.135 379.84 215.135C379.7 215.135 379.56 215.135 379.419 215.135C379.278 215.135 379.137 215.135 378.995 215.135C378.853 215.135 378.71 215.135 378.566 215.135C378.423 215.135 378.279 215.135 378.134 215.135C377.989 215.135 377.843 215.135 377.697 215.135C377.551 215.135 377.404 215.135 377.257 215.135C377.109 215.135 376.961 215.135 376.812 215.135C376.663 215.135 376.514 215.135 376.364 215.135V217.635Z" fill="white" fill-opacity="0.05"/>
</svg>
