<svg width="49" height="48" viewBox="0 0 49 48" fill="none" xmlns="http://www.w3.org/2000/svg">
<path d="M28.8095 34.17H26.1595V31.52C26.1595 31.24 25.9395 31.02 25.6595 31.02H23.3395C23.0595 31.02 22.8395 31.24 22.8395 31.52V34.17H20.1895C19.9095 34.17 19.6895 34.39 19.6895 34.67V37C19.6895 37.28 19.9095 37.5 20.1895 37.5H22.8395V40.15C22.8395 40.43 23.0595 40.65 23.3395 40.65H25.6595C25.9395 40.65 26.1595 40.43 26.1595 40.15V37.5H28.8095C29.0895 37.5 29.3095 37.28 29.3095 37V34.67C29.3095 34.39 29.0895 34.17 28.8095 34.17Z" fill="#02070D"/>
<path d="M38.4306 35.86C38.4306 36.05 38.5706 36.2 38.7506 36.23C39.3606 36.34 39.9706 36.45 40.5706 36.57L42.5206 37.04C42.7706 37.1 43.0106 36.91 43.0106 36.66V35.49C43.0106 35.49 43.0106 35.49 43.0106 35.48V18.24C43.0106 18.07 42.9006 17.93 42.7406 17.9L41.9306 17.74C41.4106 17.64 39.4306 17.59 37.6806 17.6C37.6806 17.6 36.8406 17.59 35.7806 17.59C35.5606 17.59 35.3906 17.77 35.3906 17.98V26.81C35.3906 26.9 35.4206 26.98 35.4706 27.05C37.0106 29 38.0206 31.38 38.3406 33.96C38.3406 33.96 38.3406 33.97 38.3406 33.98C38.3906 34.59 38.4306 35.4 38.4406 35.84L38.4306 35.86Z" fill="#02070D"/>
<path d="M28.7997 14.11L27.9897 13.95C27.1097 13.78 21.9997 13.75 20.9997 13.95L20.1997 14.12C20.0497 14.15 19.9397 14.29 19.9297 14.44V21.97C19.9297 22.24 20.1897 22.42 20.4397 22.34C20.7197 22.26 20.9997 22.18 21.2797 22.12C21.3597 22.1 21.4397 22.09 21.5297 22.07C21.7697 22.02 22.0097 21.97 22.2497 21.93C22.9797 21.81 23.7297 21.73 24.4997 21.73C25.2697 21.73 26.0497 21.81 26.7997 21.94C27.0097 21.97 27.2097 22.02 27.4097 22.06C27.5397 22.09 27.6697 22.12 27.7997 22.15C28.0497 22.21 28.2997 22.28 28.5497 22.35C28.8097 22.43 29.0597 22.24 29.0597 21.98V14.46C29.0597 14.29 28.9497 14.15 28.7897 14.12L28.7997 14.11Z" fill="#02070D"/>
<path d="M13.6398 26.83V17.99C13.6398 17.77 13.4598 17.6 13.2498 17.6C12.1898 17.6 11.3398 17.61 11.3398 17.61C9.58977 17.59 7.60977 17.65 7.08977 17.75L6.27977 17.91C6.11977 17.94 6.00977 18.08 6.00977 18.24V36.67C6.00977 36.93 6.24977 37.11 6.49977 37.05L8.39977 36.59C9.02977 36.46 9.65977 36.35 10.2898 36.24C10.4698 36.21 10.6098 36.05 10.6098 35.87C10.6198 35.42 10.6598 34.62 10.7098 34.01C10.7098 33.99 10.7098 33.97 10.7098 33.95C11.0398 31.38 12.0498 29.02 13.5898 27.08C13.6398 27.01 13.6698 26.93 13.6698 26.84L13.6398 26.83Z" fill="#02070D"/>
<path d="M24.5105 1C21.4605 1 18.9805 3.48 18.9805 6.53C18.9805 9.58 21.4605 12.06 24.5105 12.06C27.5605 12.06 30.0405 9.58 30.0405 6.53C30.0405 3.48 27.5605 1 24.5105 1ZM24.5105 9.38C22.9405 9.38 21.6605 8.1 21.6605 6.53C21.6605 4.96 22.9405 3.68 24.5105 3.68C26.0805 3.68 27.3605 4.96 27.3605 6.53C27.3605 8.1 26.0805 9.38 24.5105 9.38Z" fill="#02070D"/>
<path d="M47.5005 20.74C47.5005 19.44 46.4505 18.39 45.1505 18.39C44.9605 18.39 44.8105 18.54 44.8105 18.73V32.14C44.8105 32.33 44.9605 32.48 45.1505 32.48C46.4505 32.48 47.5005 31.43 47.5005 30.13V20.75V20.74Z" fill="#02070D"/>
<path d="M33.5506 24.26L33.5706 16.95C33.5706 15.65 32.5206 14.6 31.2206 14.6C31.0406 14.6 30.8906 14.75 30.8906 14.93V23.06C30.9606 23.17 31.0306 23.29 31.1006 23.4C31.7406 23.75 32.3506 24.14 32.9306 24.58C33.1906 24.77 33.5606 24.58 33.5606 24.26H33.5506Z" fill="#02070D"/>
<path d="M15.4492 24.27C15.4492 24.59 15.8192 24.79 16.0792 24.59C16.6592 24.15 17.2792 23.75 17.9292 23.4C17.9992 23.29 18.0692 23.17 18.1392 23.06V14.93C18.1392 14.74 17.9792 14.59 17.7892 14.59C16.4992 14.59 15.4592 15.65 15.4592 16.94V24.26L15.4492 24.27Z" fill="#02070D"/>
<path d="M1.5 30.13C1.5 31.43 2.55 32.48 3.85 32.48C4.04 32.48 4.19 32.33 4.19 32.14V18.73C4.19 18.54 4.04 18.39 3.85 18.39C2.55 18.39 1.5 19.44 1.5 20.74V30.12V30.13Z" fill="#02070D"/>
<path d="M37.6999 4.79999C34.6499 4.79999 32.1699 7.27999 32.1699 10.33C32.1699 13.38 34.6499 15.86 37.6999 15.86C40.7499 15.86 43.2299 13.38 43.2299 10.33C43.2299 7.27999 40.7499 4.79999 37.6999 4.79999ZM37.6999 13.18C36.1299 13.18 34.8499 11.9 34.8499 10.33C34.8499 8.75999 36.1299 7.47999 37.6999 7.47999C39.2699 7.47999 40.5499 8.75999 40.5499 10.33C40.5499 11.9 39.2699 13.18 37.6999 13.18Z" fill="#02070D"/>
<path d="M11.2995 4.79999C8.24953 4.79999 5.76953 7.27999 5.76953 10.33C5.76953 13.38 8.24953 15.86 11.2995 15.86C14.3495 15.86 16.8295 13.38 16.8295 10.33C16.8295 7.27999 14.3495 4.79999 11.2995 4.79999ZM11.2995 13.18C9.72953 13.18 8.44953 11.9 8.44953 10.33C8.44953 8.75999 9.72953 7.47999 11.2995 7.47999C12.8695 7.47999 14.1495 8.75999 14.1495 10.33C14.1495 11.9 12.8695 13.18 11.2995 13.18Z" fill="#02070D"/>
<path d="M24.5095 24.36C18.2595 24.36 13.1895 29.43 13.1895 35.68C13.1895 41.93 18.2595 47 24.5095 47C30.7595 47 35.8295 41.93 35.8295 35.68C35.8295 29.43 30.7595 24.36 24.5095 24.36ZM24.5095 44.37C19.7195 44.37 15.8195 40.47 15.8195 35.68C15.8195 30.89 19.7195 26.99 24.5095 26.99C29.2995 26.99 33.1995 30.89 33.1995 35.68C33.1995 40.47 29.2995 44.37 24.5095 44.37Z" fill="#02070D"/>
</svg>
