<svg width="49" height="48" viewBox="0 0 49 48" fill="none" xmlns="http://www.w3.org/2000/svg">
<path d="M30.5 35.7551C30.5 40.6243 26.4706 44.5714 21.5 44.5714H19.5C13.4249 44.5714 8.5 39.747 8.5 33.7959V31.8367" stroke="#02070D" stroke-width="2" stroke-linecap="round" stroke-linejoin="round"/>
<path d="M24.5 10.2857C21.1863 10.2857 18.5 12.9172 18.5 16.1633V27.9184C18.5 32.2465 22.0817 35.7551 26.5 35.7551H34.5C38.9183 35.7551 42.5 32.2465 42.5 27.9184V17.1428C42.5 13.3557 39.366 10.2857 35.5 10.2857" stroke="#02070D" stroke-width="2" stroke-linecap="round" stroke-linejoin="round"/>
<path d="M25.5 15.1837L25.5 5.38774" stroke="#02070D" stroke-width="2" stroke-linecap="round" stroke-linejoin="round"/>
<path d="M34.5 15.1837L34.5 5.38774" stroke="#02070D" stroke-width="2" stroke-linecap="round" stroke-linejoin="round"/>
<path d="M8.5 31.8367C5.18629 31.8367 2.5 29.2052 2.5 25.9592C2.5 22.7131 5.18629 20.0816 8.5 20.0816C11.8137 20.0816 14.5 22.7131 14.5 25.9592C14.5 29.2052 11.8137 31.8367 8.5 31.8367Z" stroke="#02070D" stroke-width="2" stroke-linecap="round" stroke-linejoin="round"/>
</svg>
