<svg width="24" height="24" viewBox="0 0 24 24" fill="none" xmlns="http://www.w3.org/2000/svg">
<path d="M9 19C9 20.6569 10.3431 22 12 22H14.5C17.5376 22 20 19.5376 20 16.5V15.5" stroke="#02070D" stroke-width="2" stroke-linecap="round"/>
<path d="M12 5H12.0455C13.6772 5 15 6.3228 15 7.95455V12C15 15.3137 12.3137 18 9 18C5.68629 18 3 15.3137 3 12V7.95454C3 6.32279 4.3228 5 5.95455 5H6.5" stroke="#02070D" stroke-width="2" stroke-linecap="round"/>
<path d="M11 7V3" stroke="#02070D" stroke-width="2" stroke-linecap="round"/>
<path d="M7 7V3" stroke="#02070D" stroke-width="2" stroke-linecap="round"/>
<path d="M20 15C21.1046 15 22 14.1046 22 13C22 11.8954 21.1046 11 20 11C18.8954 11 18 11.8954 18 13C18 14.1046 18.8954 15 20 15Z" stroke="#02070D" stroke-width="2" stroke-linecap="round"/>
</svg>
